<svg width="61" height="50" viewBox="0 0 61 50" fill="none" xmlns="http://www.w3.org/2000/svg">
<path d="M46.1466 47.351C45.9493 47.1536 45.7746 46.9344 45.626 46.6975C45.275 46.1358 45.0883 45.4856 45.0875 44.8217C45.0866 44.1578 45.2716 43.5071 45.6211 42.9444C45.7708 42.7091 45.9454 42.4908 46.1417 42.2934L46.9741 43.1326C46.8393 43.2699 46.7199 43.4219 46.6181 43.5856C46.3887 43.9571 46.2671 44.3859 46.2671 44.8234C46.2671 45.261 46.3887 45.6898 46.6181 46.0612C46.7218 46.2235 46.842 46.3745 46.9766 46.5118C47.3525 46.8968 47.8503 47.1369 48.3836 47.1901C48.7353 47.2295 49.0913 47.1887 49.4254 47.0709C49.7594 46.9531 50.063 46.7612 50.3136 46.5093L51.1485 47.351C50.7743 47.73 50.32 48.0189 49.8196 48.1959C49.3191 48.373 48.7854 48.4337 48.2584 48.3735C47.4579 48.2906 46.7112 47.929 46.1466 47.351Z" fill="url(#paint0_linear)"/>
<path d="M45.0195 48.4849C44.7402 48.2061 44.4931 47.8963 44.2829 47.5615C43.7713 46.7431 43.5 45.7954 43.5004 44.828C43.5008 43.8607 43.773 42.9132 44.2853 42.0953C44.4977 41.7605 44.7446 41.4493 45.022 41.1669L45.8569 42.0087C45.6391 42.2281 45.4464 42.4714 45.2823 42.734C44.893 43.363 44.6866 44.0895 44.6866 44.8309C44.6866 45.5722 44.893 46.2987 45.2823 46.9277C45.4462 47.1869 45.6371 47.4276 45.8519 47.6456C46.5962 48.3906 47.6025 48.8087 48.6512 48.8087C49.7 48.8087 50.7063 48.3906 51.4505 47.6456L52.2805 48.4849C51.317 49.4543 50.0113 49.9988 48.65 49.9988C47.2887 49.9988 45.9831 49.4543 45.0195 48.4849Z" fill="url(#paint1_linear)"/>
<path d="M25.6209 41.4244C25.5962 41.5289 25.5426 41.6242 25.4662 41.6992H25.4613C25.3695 41.7886 25.2515 41.8455 25.1248 41.8614C24.9982 41.8773 24.8699 41.8513 24.7592 41.7874C24.6484 41.7235 24.5613 41.6251 24.5108 41.5069C24.4603 41.3888 24.4492 41.2573 24.4791 41.1323C24.5212 40.9816 24.619 40.8529 24.7524 40.7728C24.8858 40.6927 25.0446 40.6671 25.1961 40.7015C25.3477 40.7416 25.4774 40.8403 25.5571 40.9763C25.597 41.0429 25.6233 41.1168 25.6342 41.1938C25.6452 41.2708 25.6407 41.3492 25.6209 41.4244Z" fill="url(#paint2_linear)"/>
<path d="M31.4847 38.9909C31.4539 39.0581 31.4115 39.1193 31.3595 39.1716H31.3718C31.3024 39.2418 31.2168 39.2934 31.1226 39.3217C31.0285 39.35 30.9288 39.3542 30.8327 39.3338C30.7365 39.3133 30.647 39.269 30.5722 39.2048C30.4973 39.1406 30.4396 39.0585 30.4043 38.9661C30.3466 38.8216 30.3466 38.6601 30.4043 38.5156C30.4682 38.3718 30.5858 38.2593 30.7315 38.2023C30.8772 38.1453 31.0393 38.1484 31.1827 38.2111C31.324 38.2756 31.4348 38.3932 31.4912 38.539C31.5477 38.6847 31.5453 38.8469 31.4847 38.9909Z" fill="url(#paint3_linear)"/>
<path d="M34.2865 47.8635C35.4073 47.8659 36.4834 47.4209 37.2797 46.6257H37.2822C37.7738 46.1398 38.1245 45.5278 38.2963 44.8556C38.9199 42.321 40.1896 39.9947 41.9796 38.1071L42.8169 38.9513C41.1779 40.6844 40.0136 42.817 39.4381 45.1403C39.2204 46.0243 38.766 46.831 38.1244 47.4723C37.1053 48.4884 35.7295 49.0578 34.2963 49.0567C33.5951 49.0606 32.9003 48.9236 32.2523 48.6537C31.6043 48.3838 31.0161 47.9864 30.5221 47.4847C29.8582 46.8172 29.3793 45.9861 29.1328 45.074C28.8864 44.1619 28.8812 43.2007 29.1176 42.2859C29.2453 41.7908 29.3902 41.2957 29.5473 40.8006C29.5978 40.6537 29.7027 40.5323 29.84 40.4617C29.9773 40.3911 30.1364 40.3768 30.284 40.4218C30.4312 40.4706 30.5534 40.5759 30.6242 40.7149C30.695 40.8539 30.7086 41.0154 30.6621 41.1645C30.4976 41.6249 30.3724 42.1027 30.252 42.5805C30.0889 43.2033 30.0698 43.8555 30.1961 44.4869C30.3224 45.1183 30.5907 45.712 30.9805 46.2224C31.3702 46.7327 31.871 47.1461 32.4441 47.4306C33.0173 47.7151 33.6476 47.8632 34.2865 47.8635Z" fill="url(#paint4_linear)"/>
<path d="M32.3982 45.5711C32.3163 45.4864 32.2392 45.3971 32.1673 45.3037C31.9119 44.9746 31.7355 44.5904 31.652 44.181C31.5685 43.7717 31.5801 43.3485 31.6861 42.9444C32.6317 39.2784 34.5049 35.9227 37.1226 33.2054L37.9575 34.0446C35.4885 36.6122 33.7213 39.7807 32.8279 43.2415C32.7685 43.4714 32.7623 43.7121 32.81 43.9448C32.8577 44.1775 32.9579 44.3959 33.1029 44.5833C33.1427 44.6351 33.1862 44.6839 33.233 44.7294C33.3695 44.8711 33.5334 44.983 33.7147 45.058C33.8959 45.1329 34.0906 45.1694 34.2865 45.1651C34.6991 45.1676 35.0964 45.0078 35.3939 44.7195C35.5411 44.5787 35.6451 44.3982 35.6935 44.1996C36.4339 41.1883 37.9482 38.4269 40.0839 36.1934L40.9164 37.0351C38.9336 39.1142 37.5279 41.6823 36.8402 44.4818C36.7387 44.8901 36.5281 45.2626 36.2312 45.5587C35.7115 46.0709 35.0132 46.3572 34.2865 46.3558C33.9356 46.3593 33.5876 46.2916 33.2633 46.1568C32.9389 46.022 32.6447 45.8228 32.3982 45.5711Z" fill="url(#paint5_linear)"/>
<path d="M15.2101 26.5554C15.2211 26.4783 15.2476 26.4043 15.2881 26.338H15.2807C15.3599 26.2021 15.4893 26.1034 15.6406 26.0638C15.7919 26.0241 15.9526 26.0466 16.0874 26.1263C16.2222 26.2061 16.32 26.3366 16.3594 26.4891C16.3988 26.6416 16.3765 26.8037 16.2973 26.9396C16.2737 26.9847 16.243 27.0256 16.2065 27.0609C16.133 27.1344 16.0415 27.187 15.9414 27.2133C15.8413 27.2397 15.736 27.2389 15.6362 27.211C15.5365 27.1831 15.4459 27.1291 15.3735 27.0544C15.3012 26.9798 15.2497 26.8872 15.2243 26.7861C15.204 26.711 15.1991 26.6325 15.2101 26.5554Z" fill="url(#paint6_linear)"/>
<path d="M6.20023 32.5691C5.0076 36.1097 4.2192 39.7759 3.8503 43.4965C3.82908 43.7096 3.8529 43.9248 3.9202 44.1279C3.9875 44.331 4.09674 44.5175 4.24073 44.6749L4.29229 44.7318C4.43118 44.8734 4.59687 44.9853 4.77953 45.061C4.96218 45.1367 5.15806 45.1746 5.35553 45.1725C5.55574 45.1738 5.75421 45.1349 5.9393 45.058C6.1244 44.981 6.29241 44.8676 6.43351 44.7244C6.66397 44.4986 6.80753 44.1977 6.83867 43.8753C7.17285 40.4357 7.89029 37.045 8.97742 33.7673C10.053 30.5051 11.4826 27.3727 13.2402 24.4268C13.3221 24.2928 13.453 24.1966 13.6046 24.1591C13.7562 24.1216 13.9164 24.1457 14.0505 24.2263C14.0943 24.2514 14.1334 24.2841 14.1659 24.3229C14.257 24.4162 14.3146 24.5374 14.3297 24.6674C14.3448 24.7974 14.3166 24.9288 14.2494 25.0408V25.0606C10.7932 30.8251 8.65884 37.2957 8.00258 43.9991C7.94416 44.5916 7.68383 45.1454 7.26593 45.5661C7.01547 45.8194 6.71765 46.0201 6.38972 46.1565C6.06179 46.2929 5.71027 46.3623 5.35553 46.3608C5.00318 46.3625 4.65404 46.2933 4.32854 46.1572C4.00304 46.0212 3.70773 45.8211 3.45987 45.5686C3.42616 45.5365 3.39419 45.5026 3.36411 45.4671C3.11065 45.1864 2.91866 44.8551 2.80062 44.4947C2.68259 44.1343 2.64115 43.7528 2.67902 43.3752C3.0557 39.5644 3.86223 35.8094 5.08297 32.1829C5.1364 32.0359 5.24421 31.9153 5.38381 31.8466C5.52341 31.7778 5.68398 31.7662 5.8319 31.8141C5.97941 31.8659 6.10075 31.9741 6.16968 32.1154C6.23861 32.2567 6.24959 32.4197 6.20023 32.5691Z" fill="url(#paint7_linear)"/>
<path d="M3.19959 33.2351C3.17158 33.3281 3.12191 33.413 3.05471 33.4826C2.97943 33.5586 2.88483 33.6123 2.7813 33.6376C2.67776 33.6629 2.5693 33.659 2.46784 33.6262C2.31828 33.5799 2.19298 33.4758 2.11936 33.3366C2.04573 33.1975 2.02977 33.0345 2.07496 32.8835C2.12403 32.7352 2.22807 32.6116 2.36533 32.5387C2.5026 32.4659 2.66249 32.4492 2.81162 32.4924C2.8856 32.5153 2.95436 32.5527 3.01396 32.6024C3.07355 32.6522 3.12279 32.7133 3.15885 32.7824C3.19491 32.8514 3.21707 32.9269 3.22406 33.0046C3.23105 33.0823 3.22274 33.1606 3.19959 33.2351Z" fill="url(#paint8_linear)"/>
<path d="M22.5614 42.9791C22.5427 43.0991 22.4868 43.21 22.4017 43.296C22.3369 43.3636 22.2568 43.4144 22.1684 43.4442C22.0799 43.4739 21.9856 43.4817 21.8935 43.4668C21.8162 43.4551 21.742 43.4279 21.6753 43.3869C21.6085 43.3459 21.5506 43.2919 21.5049 43.228C21.4591 43.1642 21.4265 43.0917 21.4089 43.015C21.3913 42.9382 21.3891 42.8587 21.4023 42.781C21.4312 42.6254 21.5185 42.4869 21.6462 42.3947C21.7739 42.3024 21.9319 42.2634 22.0874 42.2859C22.241 42.3149 22.3769 42.4039 22.4656 42.5335C22.5105 42.5974 22.5421 42.6699 22.5586 42.7464C22.575 42.823 22.576 42.9021 22.5614 42.9791Z" fill="url(#paint9_linear)"/>
<path d="M14.5146 28.9795C14.5722 29.0095 14.6244 29.0488 14.6693 29.0958C14.7576 29.183 14.8159 29.2963 14.8358 29.4192C14.8556 29.5421 14.836 29.6682 14.7798 29.7791C12.5513 34.3145 11.1569 39.2196 10.6644 44.2565C10.547 45.473 10.014 46.6106 9.15668 47.4748C8.37502 48.2631 7.37082 48.7885 6.28156 48.9791C5.1923 49.1698 4.0712 49.0164 3.07174 48.54C2.07227 48.0635 1.24329 47.2873 0.698263 46.3176C0.153235 45.3478 -0.0811965 44.2319 0.0270576 43.1227C0.288288 40.4497 0.754596 37.8011 1.42179 35.2007C1.46544 35.0506 1.56406 34.9229 1.69765 34.8433C1.83124 34.7638 1.98982 34.7385 2.14126 34.7724C2.29224 34.8137 2.4211 34.9131 2.50009 35.0493C2.57909 35.1854 2.6019 35.3473 2.56361 35.5003C1.91265 38.0383 1.45621 40.623 1.19834 43.2316C1.10822 44.0988 1.28751 44.9729 1.71144 45.7329C2.13536 46.493 2.78298 47.1015 3.56479 47.4744C4.34661 47.8473 5.22401 47.9662 6.07573 47.8146C6.92745 47.663 7.71144 47.2484 8.31935 46.6282C8.98674 45.9617 9.40121 45.0804 9.49063 44.1377C9.99621 38.9575 11.4306 33.9129 13.7239 29.2493C13.7955 29.11 13.9179 29.004 14.0653 28.9537C14.2128 28.9033 14.3738 28.9126 14.5146 28.9795Z" fill="url(#paint10_linear)"/>
<path d="M22.4194 46.8645C23.1684 46.2311 23.6731 45.3528 23.8456 44.3828L23.8603 44.3803C23.8796 44.273 23.9277 44.1731 23.9993 44.0914C24.071 44.0097 24.1635 43.9494 24.2667 43.917C24.37 43.8846 24.4801 43.8813 24.5851 43.9076C24.6901 43.9338 24.7859 43.9886 24.8622 44.0659C24.9274 44.1333 24.9759 44.2153 25.0036 44.3053C25.0313 44.3952 25.0376 44.4905 25.0218 44.5833C24.8547 45.5611 24.4234 46.4735 23.7753 47.2202C23.1272 47.9668 22.2874 48.5188 21.3482 48.8154C20.4091 49.112 19.407 49.1417 18.4522 48.9012C17.4974 48.6608 16.6269 48.1595 15.9364 47.4525C15.3534 46.8745 14.9133 46.1666 14.6514 45.3857C14.3895 44.6048 14.3132 43.7729 14.4287 42.9568C15.5306 35.0269 19.0436 27.6364 24.484 21.8027C24.5368 21.7452 24.6004 21.6988 24.6711 21.6663C24.7418 21.6337 24.8182 21.6157 24.8958 21.6131C24.9735 21.6106 25.0509 21.6237 25.1235 21.6515C25.1961 21.6794 25.2626 21.7215 25.3189 21.7755C25.432 21.8843 25.498 22.0337 25.5026 22.1912C25.5072 22.3488 25.45 22.5018 25.3435 22.6172C20.072 28.2727 16.6667 35.435 15.595 43.1202C15.5065 43.754 15.5665 44.4 15.7703 45.0062C15.9742 45.6124 16.3161 46.162 16.7688 46.6108C17.1592 47.0058 17.6235 47.3186 18.1348 47.5311C18.6462 47.7436 19.1943 47.8515 19.7473 47.8486C20.7249 47.8461 21.6705 47.4978 22.4194 46.8645Z" fill="url(#paint11_linear)"/>
<path d="M33.3681 43.6129V43.5931C33.756 42.4523 34.2339 41.3446 34.7972 40.2807C35.8303 38.2687 37.1215 36.4026 38.6376 34.7303L39.4725 35.5721C37.3341 37.9604 35.6673 40.7382 34.5615 43.7564C34.5173 43.8951 34.4927 43.9644 34.4927 43.9644C34.4431 44.1124 34.339 44.2356 34.2019 44.3084C34.0648 44.3812 33.9052 44.398 33.7561 44.3555C33.607 44.3088 33.4825 44.2043 33.4097 44.0651C33.337 43.9259 33.322 43.7632 33.3681 43.6129Z" fill="url(#paint12_linear)"/>
<path d="M7.0081 30.3609C6.97836 30.4378 6.93322 30.5078 6.8755 30.5664C6.79439 30.6502 6.69015 30.7076 6.5763 30.731C6.46246 30.7544 6.34426 30.7427 6.23706 30.6976C6.16441 30.6701 6.09785 30.6284 6.04122 30.5749C5.98458 30.5214 5.93898 30.4572 5.90704 30.3858C5.8751 30.3145 5.85744 30.2376 5.85508 30.1594C5.85272 30.0812 5.86571 30.0033 5.89329 29.9301C5.92216 29.8551 5.96567 29.7867 6.02124 29.7289C6.07681 29.6711 6.14331 29.6252 6.21681 29.5938C6.29031 29.5624 6.36931 29.5462 6.44913 29.5461C6.52895 29.5461 6.60797 29.5622 6.68151 29.5934C6.75398 29.6213 6.8202 29.6634 6.87629 29.7174C6.93237 29.7714 6.97718 29.8361 7.0081 29.9078C7.03843 29.9795 7.05406 30.0565 7.05406 30.1344C7.05406 30.2122 7.03843 30.2893 7.0081 30.3609Z" fill="url(#paint13_linear)"/>
<path d="M16.0248 22.3201C16.0062 22.3478 15.9848 22.3736 15.9609 22.3968V22.4067C15.8618 22.5038 15.732 22.5627 15.5942 22.5731C15.4565 22.5835 15.3194 22.5448 15.2071 22.4637C15.0782 22.3735 14.9899 22.2355 14.9615 22.08C14.9483 22.0027 14.9504 21.9235 14.9677 21.847C14.9849 21.7705 15.0171 21.6982 15.0622 21.6343C15.1539 21.5072 15.291 21.4211 15.4446 21.3943C15.5982 21.3675 15.7561 21.4021 15.8848 21.4908C15.9481 21.5359 16.0019 21.5932 16.0432 21.6593C16.0845 21.7254 16.1124 21.7991 16.1254 21.8761C16.1384 21.9532 16.1362 22.032 16.119 22.1082C16.1017 22.1844 16.0697 22.2564 16.0248 22.3201Z" fill="url(#paint14_linear)"/>
<path d="M16.4366 20.3623C16.3987 20.2942 16.3747 20.2191 16.3661 20.1415L16.3636 20.1514C16.3462 19.9944 16.3912 19.8368 16.4889 19.7133C17.5502 18.3606 18.6856 17.0688 19.8897 15.8439L20.7197 16.6683C19.55 17.8628 18.4466 19.1215 17.4146 20.4386C17.3175 20.5618 17.176 20.6413 17.0211 20.6599C16.8661 20.6784 16.7101 20.6345 16.5871 20.5376C16.5258 20.4899 16.4746 20.4303 16.4366 20.3623Z" fill="url(#paint15_linear)"/>
<path d="M4.53785 43.343C4.6066 42.5855 5.04614 38.5428 6.8976 33.1261C8.00604 29.8745 9.42632 26.7396 11.1383 23.7658C13.1323 20.3039 15.5449 17.1048 18.3207 14.2422L19.1531 15.0814C16.7261 17.5784 14.5846 20.3419 12.7687 23.3202C11.1582 25.9737 9.7906 28.7695 8.68276 31.673C7.29109 35.241 6.32103 38.9619 5.79262 42.7588C5.73614 43.2118 5.71404 43.4594 5.71404 43.4594C5.7042 43.5993 5.64496 43.731 5.54706 43.8307C5.4616 43.9172 5.35186 43.9752 5.23268 43.9968C5.11349 44.0185 4.99058 44.0027 4.88056 43.9517C4.77053 43.9007 4.67867 43.8169 4.61739 43.7116C4.5561 43.6063 4.52834 43.4845 4.53785 43.3628C4.53726 43.3562 4.53726 43.3496 4.53785 43.343Z" fill="url(#paint16_linear)"/>
<path d="M7.48692 27.6823C7.4242 27.6526 7.36691 27.6124 7.31749 27.5634C7.23237 27.477 7.17565 27.3663 7.15501 27.2463C7.13437 27.1263 7.1508 27.0028 7.20208 26.8925C9.62653 21.6861 12.9132 16.9342 16.921 12.841L17.7534 13.6802C13.8417 17.6757 10.6347 22.3147 8.27024 27.3976C8.20128 27.5377 8.08129 27.6456 7.93533 27.6986C7.78936 27.7517 7.62871 27.7458 7.48692 27.6823Z" fill="url(#paint17_linear)"/>
<path d="M3.14066 29.7618C4.53014 26.0722 6.31525 22.5466 8.46422 19.2478C10.3984 16.2818 12.6024 13.5037 15.0475 10.9496L15.8799 11.7913C13.4916 14.288 11.3387 17.003 9.44888 19.9014C7.34996 23.1281 5.60374 26.5745 4.24073 30.1802C4.21256 30.2594 4.16727 30.3312 4.10813 30.3906C4.05338 30.446 3.98832 30.4899 3.91669 30.5199C3.84506 30.5499 3.76825 30.5653 3.69069 30.5653C3.61313 30.5653 3.53633 30.5499 3.46469 30.5199C3.39306 30.4899 3.328 30.446 3.27325 30.3906C3.19286 30.3102 3.13748 30.2078 3.11393 30.0961C3.09038 29.9844 3.09967 29.8682 3.14066 29.7618Z" fill="url(#paint18_linear)"/>
<path d="M45 22.2658L45.8447 23.1199C45.9012 23.177 45.9684 23.2223 46.0424 23.2532C46.1163 23.2841 46.1956 23.3 46.2756 23.3C46.3557 23.3 46.4349 23.2841 46.5089 23.2532C46.5828 23.2223 46.65 23.177 46.7066 23.1199L47.5513 22.2658C47.6078 22.209 47.6527 22.1414 47.6834 22.0671C47.714 21.9928 47.7298 21.913 47.7298 21.8325C47.7298 21.752 47.714 21.6723 47.6834 21.598C47.6527 21.5236 47.6078 21.4561 47.5513 21.3993L46.7066 20.5477C46.5917 20.4335 46.4369 20.3696 46.2756 20.3696C46.1143 20.3696 45.9595 20.4335 45.8447 20.5477L45 21.4018C44.8865 21.5164 44.8227 21.6718 44.8227 21.8338C44.8227 21.9958 44.8865 22.1511 45 22.2658ZM38.7581 18.0721L39.6961 19.0153C39.7524 19.0723 39.8194 19.1176 39.8931 19.1485C39.9669 19.1793 40.0459 19.1952 40.1258 19.1952C40.2056 19.1952 40.2847 19.1793 40.3584 19.1485C40.4322 19.1176 40.4991 19.0723 40.5555 19.0153L41.5942 17.9681C41.7072 17.8527 41.7706 17.6971 41.7706 17.5349C41.7706 17.3727 41.7072 17.217 41.5942 17.1016L40.6562 16.1584C40.5998 16.1014 40.5329 16.0561 40.4591 16.0253C40.3854 15.9944 40.3063 15.9785 40.2265 15.9785C40.1466 15.9785 40.0675 15.9944 39.9938 16.0253C39.9201 16.0561 39.8531 16.1014 39.7967 16.1584L38.7581 17.2031C38.6448 17.3189 38.5814 17.475 38.5814 17.6376C38.5814 17.8002 38.6448 17.9563 38.7581 18.0721ZM35.0183 25.4742C34.9052 25.3588 34.8418 25.2031 34.8418 25.0409C34.8418 24.8787 34.9052 24.7231 35.0183 24.6077L38.3676 21.2334C38.4808 21.1176 38.5443 20.9616 38.5443 20.799C38.5443 20.6364 38.4808 20.4803 38.3676 20.3645L37.4296 19.4213C37.3733 19.3642 37.3063 19.319 37.2326 19.2881C37.1588 19.2572 37.0797 19.2413 36.9999 19.2413C36.92 19.2413 36.841 19.2572 36.7672 19.2881C36.6935 19.319 36.6265 19.3642 36.5702 19.4213L33.2233 22.7955C33.1668 22.8527 33.0996 22.898 33.0256 22.9289C32.9517 22.9598 32.8724 22.9757 32.7924 22.9757C32.7123 22.9757 32.6331 22.9598 32.5591 22.9289C32.4852 22.898 32.418 22.8527 32.3614 22.7955L31.9612 22.3895C31.9046 22.3327 31.8597 22.2652 31.8291 22.1909C31.7985 22.1165 31.7827 22.0368 31.7827 21.9563C31.7827 21.8758 31.7985 21.7961 31.8291 21.7218C31.8597 21.6474 31.9046 21.5799 31.9612 21.5231L32.8624 20.6121C32.9189 20.5552 32.9638 20.4877 32.9944 20.4134C33.0251 20.339 33.0408 20.2593 33.0408 20.1788C33.0408 20.0983 33.0251 20.0186 32.9944 19.9443C32.9638 19.8699 32.9189 19.8024 32.8624 19.7456L31.9219 18.8148C31.8655 18.7577 31.7986 18.7125 31.7248 18.6816C31.6511 18.6507 31.572 18.6348 31.4922 18.6348C31.4123 18.6348 31.3333 18.6507 31.2595 18.6816C31.1858 18.7125 31.1188 18.7577 31.0625 18.8148L30.1588 19.7233C30.1025 19.7803 30.0355 19.8256 29.9618 19.8565C29.888 19.8874 29.809 19.9033 29.7291 19.9033C29.6493 19.9033 29.5702 19.8874 29.4965 19.8565C29.4227 19.8256 29.3557 19.7803 29.2994 19.7233L28.3172 18.7331C28.2608 18.676 28.1939 18.6308 28.1201 18.5999C28.0464 18.569 27.9673 18.5531 27.8875 18.5531C27.8076 18.5531 27.7286 18.569 27.6548 18.5999C27.5811 18.6308 27.5141 18.676 27.4578 18.7331L27.3202 18.8717C27.2636 18.9287 27.2187 18.9964 27.188 19.071C27.1573 19.1455 27.1415 19.2255 27.1415 19.3062C27.1415 19.3869 27.1573 19.4668 27.188 19.5413C27.2187 19.6159 27.2636 19.6836 27.3202 19.7406L34.0214 26.4892C34.1362 26.6033 34.291 26.6673 34.4523 26.6673C34.6136 26.6673 34.7684 26.6033 34.8832 26.4892L35.0183 26.3505C35.0761 26.2934 35.1219 26.2252 35.1533 26.15C35.1846 26.0747 35.2007 25.9939 35.2007 25.9123C35.2007 25.8308 35.1846 25.75 35.1533 25.6747C35.1219 25.5995 35.0761 25.5313 35.0183 25.4742ZM24.9187 15.292L23.7057 14.069C23.6491 14.012 23.6041 13.9443 23.5735 13.8697C23.5428 13.7952 23.527 13.7152 23.527 13.6345C23.527 13.5538 23.5428 13.4739 23.5735 13.3994C23.6041 13.3248 23.6491 13.2571 23.7057 13.2001L25.292 11.5959C25.3486 11.5391 25.3935 11.4715 25.4241 11.3972C25.4547 11.3228 25.4705 11.2431 25.4705 11.1626C25.4705 11.0821 25.4547 11.0024 25.4241 10.9281C25.3935 10.8537 25.3486 10.7862 25.292 10.7294L24.3564 9.78619C24.2999 9.72908 24.2327 9.68377 24.1588 9.65285C24.0848 9.62194 24.0055 9.60603 23.9255 9.60603C23.8454 9.60603 23.7662 9.62194 23.6922 9.65285C23.6183 9.68377 23.5511 9.72908 23.4945 9.78619L21.9083 11.3879C21.8519 11.445 21.785 11.4902 21.7112 11.5211C21.6375 11.552 21.5584 11.5679 21.4786 11.5679C21.3987 11.5679 21.3197 11.552 21.2459 11.5211C21.1722 11.4902 21.1052 11.445 21.0489 11.3879L20.0151 10.3457C19.9585 10.2889 19.9136 10.2214 19.883 10.147C19.8524 10.0727 19.8366 9.99295 19.8366 9.91245C19.8366 9.83195 19.8524 9.75223 19.883 9.67789C19.9136 9.60354 19.9585 9.53603 20.0151 9.47922L24.6511 4.80525C24.7077 4.74823 24.7527 4.68051 24.7834 4.60596C24.814 4.53141 24.8298 4.45149 24.8298 4.37078C24.8298 4.29008 24.814 4.21016 24.7834 4.13561C24.7527 4.06106 24.7077 3.99334 24.6511 3.93631L23.7155 2.99311C23.659 2.93599 23.5918 2.89068 23.5179 2.85977C23.4439 2.82885 23.3647 2.81294 23.2846 2.81294C23.2045 2.81294 23.1253 2.82885 23.0513 2.85977C22.9774 2.89068 22.9102 2.93599 22.8537 2.99311L17.2207 8.66474C17.1641 8.72155 17.1192 8.78907 17.0886 8.86341C17.058 8.93776 17.0422 9.01747 17.0422 9.09797C17.0422 9.17847 17.058 9.25819 17.0886 9.33253C17.1192 9.40688 17.1641 9.47439 17.2207 9.5312L23.9218 16.2971C23.9782 16.3541 24.0451 16.3994 24.1189 16.4302C24.1926 16.4611 24.2717 16.477 24.3515 16.477C24.4314 16.477 24.5104 16.4611 24.5842 16.4302C24.6579 16.3994 24.7249 16.3541 24.7812 16.2971L24.9187 16.1584C24.9753 16.1016 25.0202 16.0341 25.0508 15.9598C25.0815 15.8854 25.0972 15.8057 25.0972 15.7252C25.0972 15.6447 25.0815 15.565 25.0508 15.4906C25.0202 15.4163 24.9753 15.3488 24.9187 15.292ZM27.3522 1.03242L26.505 0.180807C26.4487 0.12377 26.3817 0.0785126 26.308 0.0476318C26.2342 0.016751 26.1551 0.000854492 26.0753 0.000854492C25.9954 0.000854492 25.9164 0.016751 25.8426 0.0476318C25.7689 0.0785126 25.7019 0.12377 25.6456 0.180807L24.8009 1.03242C24.6877 1.14822 24.6242 1.30429 24.6242 1.46689C24.6242 1.62949 24.6877 1.78556 24.8009 1.90136L25.648 2.75297C25.7044 2.81001 25.7714 2.85526 25.8451 2.88615C25.9188 2.91703 25.9979 2.93292 26.0778 2.93292C26.1576 2.93292 26.2367 2.91703 26.3104 2.88615C26.3842 2.85526 26.4511 2.81001 26.5075 2.75297L27.3546 1.90136C27.4675 1.78523 27.5305 1.62898 27.5301 1.46638C27.5296 1.30378 27.4657 1.14789 27.3522 1.03242ZM32.9483 17.7725L33.8863 18.7157C33.9429 18.7728 34.01 18.8182 34.084 18.8491C34.1579 18.88 34.2372 18.8959 34.3172 18.8959C34.3973 18.8959 34.4766 18.88 34.5505 18.8491C34.6245 18.8182 34.6916 18.7728 34.7482 18.7157L37.6825 15.745C37.7391 15.6882 37.784 15.6207 37.8146 15.5463C37.8453 15.472 37.861 15.3923 37.861 15.3118C37.861 15.2313 37.8453 15.1516 37.8146 15.0772C37.784 15.0029 37.7391 14.9353 37.6825 14.8785L36.747 13.9353C36.6906 13.8783 36.6237 13.833 36.5499 13.8021C36.4762 13.7713 36.3971 13.7554 36.3173 13.7554C36.2374 13.7554 36.1584 13.7713 36.0846 13.8021C36.0109 13.833 35.9439 13.8783 35.8875 13.9353L32.9409 16.9061C32.8282 17.0221 32.7657 17.1784 32.7671 17.3408C32.7685 17.5032 32.8336 17.6584 32.9483 17.7725ZM46.0534 28.6454L46.989 29.5911C47.1038 29.7053 47.2586 29.7692 47.4199 29.7692C47.5812 29.7692 47.736 29.7053 47.8508 29.5911L53.1474 24.2611C53.204 24.2043 53.2489 24.1368 53.2795 24.0624C53.3101 23.9881 53.3259 23.9084 53.3259 23.8279C53.3259 23.7474 53.3101 23.6677 53.2795 23.5933C53.2489 23.519 53.204 23.4515 53.1474 23.3946L52.2118 22.449C52.0974 22.335 51.943 22.271 51.7821 22.271C51.6212 22.271 51.4669 22.335 51.3524 22.449L46.0534 27.7913C45.944 27.9062 45.8829 28.0592 45.8829 28.2184C45.8829 28.3776 45.944 28.5306 46.0534 28.6454ZM45.1203 35.6489L43.9073 34.426C43.8507 34.3692 43.8058 34.3017 43.7752 34.2273C43.7446 34.153 43.7288 34.0733 43.7288 33.9928C43.7288 33.9123 43.7446 33.8325 43.7752 33.7582C43.8058 33.6838 43.8507 33.6163 43.9073 33.5595L45.4984 31.9553C45.6115 31.8399 45.6749 31.6843 45.6749 31.5221C45.6749 31.3599 45.6115 31.2042 45.4984 31.0889L44.5604 30.1432C44.446 30.0292 44.2916 29.9653 44.1307 29.9653C43.9699 29.9653 43.8155 30.0292 43.701 30.1432L42.1098 31.7474C42.0535 31.8044 41.9865 31.8497 41.9128 31.8805C41.839 31.9114 41.76 31.9273 41.6801 31.9273C41.6003 31.9273 41.5212 31.9114 41.4475 31.8805C41.3737 31.8497 41.3068 31.8044 41.2504 31.7474L40.2166 30.7051C40.1601 30.6483 40.1152 30.5808 40.0845 30.5065C40.0539 30.4321 40.0381 30.3524 40.0381 30.2719C40.0381 30.1914 40.0539 30.1117 40.0845 30.0373C40.1152 29.963 40.1601 29.8955 40.2166 29.8387L44.8526 25.1647C44.9659 25.0489 45.0293 24.8928 45.0293 24.7302C45.0293 24.5676 44.9659 24.4116 44.8526 24.2958L43.9146 23.3526C43.8583 23.2955 43.7913 23.2503 43.7176 23.2194C43.6438 23.1885 43.5648 23.1726 43.4849 23.1726C43.4051 23.1726 43.326 23.1885 43.2523 23.2194C43.1785 23.2503 43.1116 23.2955 43.0552 23.3526L37.4075 29.0316C37.2943 29.1474 37.2308 29.3035 37.2308 29.4661C37.2308 29.6287 37.2943 29.7848 37.4075 29.9006L44.1086 36.6565C44.1652 36.7136 44.2324 36.7589 44.3063 36.7899C44.3803 36.8208 44.4595 36.8367 44.5396 36.8367C44.6196 36.8367 44.6989 36.8208 44.7728 36.7899C44.8468 36.7589 44.914 36.7136 44.9705 36.6565L45.108 36.5179C45.1655 36.4617 45.2114 36.3946 45.2431 36.3205C45.2748 36.2464 45.2917 36.1667 45.2929 36.086C45.294 36.0053 45.2794 35.9251 45.2498 35.8501C45.2201 35.7751 45.1762 35.7068 45.1203 35.6489ZM31.1509 2.07218L25.8543 7.41208C25.7977 7.4691 25.7527 7.53683 25.722 7.61138C25.6914 7.68593 25.6756 7.76584 25.6756 7.84655C25.6756 7.92725 25.6914 8.00717 25.722 8.08172C25.7527 8.15627 25.7977 8.224 25.8543 8.28102L26.7899 9.22423C26.8462 9.28126 26.9132 9.32652 26.9869 9.3574C27.0607 9.38828 27.1397 9.40418 27.2196 9.40418C27.2994 9.40418 27.3785 9.38828 27.4522 9.3574C27.526 9.32652 27.5929 9.28126 27.6493 9.22423L32.9483 3.88185C33.0614 3.76647 33.1248 3.61081 33.1248 3.44862C33.1248 3.28642 33.0614 3.13077 32.9483 3.01539L32.0127 2.07218C31.9562 2.01506 31.889 1.96975 31.8151 1.93884C31.7411 1.90793 31.6619 1.89201 31.5818 1.89201C31.5017 1.89201 31.4225 1.90793 31.3485 1.93884C31.2746 1.96975 31.2074 2.01506 31.1509 2.07218ZM57.9872 37.4735L58.9228 38.4167C58.9793 38.4738 59.0465 38.5191 59.1204 38.55C59.1944 38.5809 59.2737 38.5968 59.3537 38.5968C59.4338 38.5968 59.513 38.5809 59.587 38.55C59.6609 38.5191 59.7281 38.4738 59.7847 38.4167L60.8209 37.372C60.8775 37.3149 60.9225 37.2472 60.9531 37.1727C60.9838 37.0981 60.9996 37.0182 60.9996 36.9375C60.9996 36.8568 60.9838 36.7769 60.9531 36.7023C60.9225 36.6278 60.8775 36.5601 60.8209 36.503L59.8853 35.5598C59.8288 35.5027 59.7616 35.4574 59.6877 35.4265C59.6137 35.3956 59.5344 35.3797 59.4544 35.3797C59.3743 35.3797 59.2951 35.3956 59.2211 35.4265C59.1472 35.4574 59.08 35.5027 59.0234 35.5598L57.9872 36.607C57.8752 36.7214 57.8124 36.8757 57.8124 37.0365C57.8124 37.1973 57.8752 37.3516 57.9872 37.466V37.4735ZM56.9092 34.2799L55.986 33.3293C55.9294 33.2722 55.8622 33.2269 55.7883 33.196C55.7143 33.165 55.6351 33.1491 55.555 33.1491C55.475 33.1491 55.3957 33.165 55.3218 33.196C55.2478 33.2269 55.1806 33.2722 55.1241 33.3293L52.1897 36.3C52.1331 36.3571 52.0881 36.4248 52.0575 36.4993C52.0268 36.5739 52.011 36.6538 52.011 36.7345C52.011 36.8152 52.0268 36.8951 52.0575 36.9697C52.0881 37.0442 52.1331 37.1119 52.1897 37.169L53.1253 38.1122C53.1816 38.1692 53.2486 38.2145 53.3224 38.2454C53.3961 38.2762 53.4752 38.2921 53.555 38.2921C53.6349 38.2921 53.7139 38.2762 53.7877 38.2454C53.8614 38.2145 53.9284 38.1692 53.9847 38.1122L56.9313 35.1414C56.9866 35.083 57.0298 35.0141 57.0586 34.9387C57.0874 34.8634 57.1011 34.7831 57.0991 34.7023C57.097 34.6216 57.0792 34.5421 57.0466 34.4684C57.0141 34.3946 56.9674 34.328 56.9092 34.2725V34.2799ZM51.5906 42.1796L51.1879 41.7761C51.1312 41.7191 51.0863 41.6513 51.0556 41.5768C51.025 41.5022 51.0092 41.4223 51.0092 41.3416C51.0092 41.2609 51.025 41.181 51.0556 41.1064C51.0863 41.0319 51.1312 40.9642 51.1879 40.9072L52.0915 39.9986C52.1482 39.9416 52.1931 39.8738 52.2238 39.7993C52.2544 39.7247 52.2702 39.6448 52.2702 39.5641C52.2702 39.4834 52.2544 39.4035 52.2238 39.329C52.1931 39.2544 52.1482 39.1867 52.0915 39.1297L51.156 38.1864C51.0994 38.1293 51.0322 38.084 50.9583 38.0531C50.8843 38.0222 50.8051 38.0063 50.725 38.0063C50.645 38.0063 50.5657 38.0222 50.4918 38.0531C50.4178 38.084 50.3506 38.1293 50.2941 38.1864L49.3929 39.0975C49.278 39.2116 49.1232 39.2756 48.962 39.2756C48.8007 39.2756 48.6459 39.2116 48.531 39.0975L48.1872 38.7509C48.1307 38.6938 48.0635 38.6485 47.9896 38.6175C47.9156 38.5866 47.8364 38.5707 47.7563 38.5707C47.6762 38.5707 47.597 38.5866 47.523 38.6175C47.4491 38.6485 47.3819 38.6938 47.3254 38.7509L47.1903 38.8895C47.1337 38.9463 47.0888 39.0138 47.0582 39.0882C47.0276 39.1625 47.0118 39.2422 47.0118 39.3228C47.0118 39.4033 47.0276 39.483 47.0582 39.5573C47.0888 39.6317 47.1337 39.6992 47.1903 39.756L53.5894 46.2074C53.6457 46.2645 53.7127 46.3097 53.7864 46.3406C53.8602 46.3715 53.9393 46.3874 54.0191 46.3874C54.099 46.3874 54.178 46.3715 54.2518 46.3406C54.3255 46.3097 54.3925 46.2645 54.4488 46.2074L54.5863 46.0713C54.643 46.0143 54.6879 45.9465 54.7186 45.872C54.7492 45.7974 54.765 45.7175 54.765 45.6368C54.765 45.5561 54.7492 45.4762 54.7186 45.4016C54.6879 45.3271 54.643 45.2594 54.5863 45.2023L54.2475 44.8607C54.1908 44.8037 54.1459 44.736 54.1152 44.6614C54.0845 44.5869 54.0688 44.5069 54.0688 44.4262C54.0688 44.3455 54.0845 44.2656 54.1152 44.1911C54.1459 44.1165 54.1908 44.0488 54.2475 43.9918L57.5943 40.6175C57.651 40.5605 57.6959 40.4928 57.7266 40.4182C57.7573 40.3437 57.773 40.2637 57.773 40.183C57.773 40.1023 57.7573 40.0224 57.7266 39.9479C57.6959 39.8733 57.651 39.8056 57.5943 39.7486L56.6588 38.8054C56.6022 38.7482 56.535 38.7029 56.4611 38.672C56.3872 38.6411 56.3079 38.6252 56.2278 38.6252C56.1478 38.6252 56.0685 38.6411 55.9946 38.672C55.9206 38.7029 55.8535 38.7482 55.7969 38.8054L52.45 42.1796C52.3937 42.2367 52.3267 42.2819 52.253 42.3128C52.1792 42.3437 52.1002 42.3596 52.0203 42.3596C51.9405 42.3596 51.8614 42.3437 51.7877 42.3128C51.7139 42.2819 51.6469 42.2367 51.5906 42.1796Z" fill="url(#paint19_linear)"/>
<defs>
<linearGradient id="paint0_linear" x1="24.8403" y1="10.7821" x2="26.7092" y2="60.8512" gradientUnits="userSpaceOnUse">
<stop stop-color="white"/>
</linearGradient>
<linearGradient id="paint1_linear" x1="24.8403" y1="10.7821" x2="26.7092" y2="60.8512" gradientUnits="userSpaceOnUse">
<stop stop-color="white"/>
</linearGradient>
<linearGradient id="paint2_linear" x1="24.8403" y1="10.7821" x2="26.7092" y2="60.8512" gradientUnits="userSpaceOnUse">
<stop stop-color="white"/>
</linearGradient>
<linearGradient id="paint3_linear" x1="24.8403" y1="10.7821" x2="26.7092" y2="60.8512" gradientUnits="userSpaceOnUse">
<stop stop-color="white"/>
</linearGradient>
<linearGradient id="paint4_linear" x1="24.8403" y1="10.7821" x2="26.7092" y2="60.8512" gradientUnits="userSpaceOnUse">
<stop stop-color="white"/>
</linearGradient>
<linearGradient id="paint5_linear" x1="24.8403" y1="10.7821" x2="26.7092" y2="60.8512" gradientUnits="userSpaceOnUse">
<stop stop-color="white"/>
</linearGradient>
<linearGradient id="paint6_linear" x1="24.8403" y1="10.7821" x2="26.7092" y2="60.8512" gradientUnits="userSpaceOnUse">
<stop stop-color="white"/>
</linearGradient>
<linearGradient id="paint7_linear" x1="24.8403" y1="10.7821" x2="26.7092" y2="60.8512" gradientUnits="userSpaceOnUse">
<stop stop-color="white"/>
</linearGradient>
<linearGradient id="paint8_linear" x1="24.8403" y1="10.7821" x2="26.7092" y2="60.8512" gradientUnits="userSpaceOnUse">
<stop stop-color="white"/>
</linearGradient>
<linearGradient id="paint9_linear" x1="24.8403" y1="10.7821" x2="26.7092" y2="60.8512" gradientUnits="userSpaceOnUse">
<stop stop-color="white"/>
</linearGradient>
<linearGradient id="paint10_linear" x1="24.8403" y1="10.7821" x2="26.7092" y2="60.8512" gradientUnits="userSpaceOnUse">
<stop stop-color="white"/>
</linearGradient>
<linearGradient id="paint11_linear" x1="24.8403" y1="10.7821" x2="26.7092" y2="60.8512" gradientUnits="userSpaceOnUse">
<stop stop-color="white"/>
</linearGradient>
<linearGradient id="paint12_linear" x1="24.8403" y1="10.7821" x2="26.7092" y2="60.8512" gradientUnits="userSpaceOnUse">
<stop stop-color="white"/>
</linearGradient>
<linearGradient id="paint13_linear" x1="24.8403" y1="10.7821" x2="26.7092" y2="60.8512" gradientUnits="userSpaceOnUse">
<stop stop-color="white"/>
</linearGradient>
<linearGradient id="paint14_linear" x1="24.8403" y1="10.7821" x2="26.7092" y2="60.8512" gradientUnits="userSpaceOnUse">
<stop stop-color="white"/>
</linearGradient>
<linearGradient id="paint15_linear" x1="24.8403" y1="10.7821" x2="26.7092" y2="60.8512" gradientUnits="userSpaceOnUse">
<stop stop-color="white"/>
</linearGradient>
<linearGradient id="paint16_linear" x1="24.8403" y1="10.7821" x2="26.7092" y2="60.8512" gradientUnits="userSpaceOnUse">
<stop stop-color="white"/>
</linearGradient>
<linearGradient id="paint17_linear" x1="24.8403" y1="10.7821" x2="26.7092" y2="60.8512" gradientUnits="userSpaceOnUse">
<stop stop-color="white"/>
</linearGradient>
<linearGradient id="paint18_linear" x1="24.8403" y1="10.7821" x2="26.7092" y2="60.8512" gradientUnits="userSpaceOnUse">
<stop stop-color="white"/>
</linearGradient>
<linearGradient id="paint19_linear" x1="38.493" y1="8.65186" x2="40.3426" y2="58.1906" gradientUnits="userSpaceOnUse">
<stop stop-color="#F24E3D"/>
</linearGradient>
</defs>
</svg>
