<svg width="65" height="64" viewBox="0 0 65 64" fill="none" xmlns="http://www.w3.org/2000/svg">
<path d="M32.47 63.66C49.9388 63.66 64.1 49.4988 64.1 32.03C64.1 14.5613 49.9388 0.400024 32.47 0.400024C15.0012 0.400024 0.839996 14.5613 0.839996 32.03C0.839996 49.4988 15.0012 63.66 32.47 63.66Z" fill="url(#paint0_linear)"/>
<path d="M23.63 34.0001H26.18V34.4601C26.18 36.3201 25.84 37.5301 25.18 38.0701C24.52 38.6101 23 38.8901 20.67 38.8901C18.03 38.8901 16.4 38.4601 15.8 37.6001C15.2 36.7401 14.88 34.4301 14.88 30.6701C14.88 28.4601 15.3 27.0101 16.12 26.3101C16.94 25.6101 18.67 25.3101 21.29 25.3101C23.2 25.3101 24.47 25.5901 25.12 26.1701C25.77 26.7501 26.12 27.8701 26.12 29.5801V29.8801H23.57V29.5401C23.57 28.6601 23.4 28.1001 23.07 27.8501C22.3621 27.5308 21.5827 27.4032 20.81 27.4801C19.23 27.4801 18.29 27.6801 17.97 28.0601C17.65 28.4401 17.49 29.5901 17.49 31.5001C17.49 34.0601 17.63 35.5801 17.92 36.0501C18.21 36.5201 19.12 36.7501 20.68 36.7501C21.5198 36.8297 22.366 36.6955 23.14 36.3601C23.51 36.1001 23.7 35.5201 23.7 34.6301L23.63 34.0001Z" fill="white"/>
<path d="M37.72 29.24H35.24C35.24 29.12 35.24 29.02 35.24 28.96C35.2646 28.4396 35.0852 27.9301 34.74 27.5399C34.1254 27.2915 33.4598 27.1955 32.8 27.2599C31.9985 27.1918 31.192 27.3046 30.44 27.59C30.234 27.7549 30.0748 27.971 29.9783 28.2166C29.8818 28.4622 29.8513 28.7289 29.89 28.99C29.89 29.84 30.04 30.3399 30.34 30.5099C31.3155 30.787 32.326 30.9218 33.34 30.91C35.34 31.02 36.62 31.2999 37.21 31.7599C37.8 32.2199 38.09 33.17 38.09 34.61C38.09 36.39 37.74 37.54 37.09 38.06C36.44 38.58 34.89 38.84 32.55 38.84C30.44 38.84 29.04 38.59 28.35 38.08C27.66 37.57 27.35 36.53 27.35 34.9799V34.49H29.82V34.77C29.82 35.71 29.98 36.28 30.31 36.49C31.1723 36.7773 32.0848 36.8828 32.99 36.8C33.7358 36.8767 34.4885 36.7524 35.17 36.44C35.48 36.2 35.64 35.6399 35.64 34.7599C35.6699 34.5318 35.6534 34.2999 35.5916 34.0782C35.5297 33.8566 35.4237 33.6497 35.28 33.47C34.8113 33.1943 34.2734 33.0589 33.73 33.08L32.33 32.99C30.21 32.87 28.86 32.58 28.27 32.11C27.68 31.64 27.39 30.65 27.39 29.11C27.39 27.57 27.74 26.51 28.45 25.99C29.16 25.47 30.58 25.21 32.7 25.21C34.82 25.21 36.07 25.44 36.77 25.92C37.1612 26.2648 37.4615 26.7005 37.6447 27.1888C37.8278 27.6771 37.888 28.2029 37.82 28.72V29.2299L37.72 29.24Z" fill="white"/>
<path d="M49.75 29.24H47.27C47.262 29.1468 47.262 29.0531 47.27 28.96C47.2946 28.4396 47.1152 27.9301 46.77 27.5399C46.1518 27.2918 45.4831 27.1958 44.82 27.2599C44.0218 27.1916 43.2185 27.3044 42.47 27.59C42.2622 27.7538 42.101 27.9693 42.0027 28.2151C41.9045 28.4608 41.8725 28.728 41.91 28.99C41.91 29.84 42.06 30.3399 42.36 30.5099C43.3358 30.7857 44.346 30.9204 45.36 30.91C47.36 31.02 48.64 31.2999 49.23 31.7599C49.82 32.2199 50.1 33.17 50.1 34.61C50.1 36.39 49.76 37.54 49.1 38.06C48.44 38.58 46.9 38.84 44.56 38.84C42.46 38.84 41.06 38.59 40.37 38.08C39.68 37.57 39.37 36.53 39.37 34.9799V34.49H41.85V34.77C41.85 35.71 42.01 36.28 42.34 36.49C43.1985 36.7788 44.1081 36.8844 45.01 36.8C45.7559 36.8792 46.5092 36.7548 47.19 36.44C47.5 36.2 47.66 35.6399 47.66 34.7599C47.6899 34.5318 47.6734 34.2999 47.6115 34.0782C47.5497 33.8566 47.4437 33.6497 47.3 33.47C46.8357 33.1924 46.3004 33.0568 45.76 33.08L44.35 32.99C42.24 32.87 40.88 32.58 40.29 32.11C39.7 31.64 39.41 30.65 39.41 29.11C39.41 27.57 39.77 26.51 40.48 25.99C41.19 25.47 42.6 25.21 44.73 25.21C46.86 25.21 48.1 25.44 48.8 25.92C49.1912 26.2648 49.4915 26.7005 49.6747 27.1888C49.8578 27.6771 49.918 28.2029 49.85 28.72V29.2299L49.75 29.24Z" fill="white"/>
<defs>
<linearGradient id="paint0_linear" x1="19917.6" y1="13856.2" x2="23919.4" y2="13856.2" gradientUnits="userSpaceOnUse">
<stop offset="0.15" stop-color="#D4145A"/>
<stop offset="1" stop-color="#D44076"/>
</linearGradient>
</defs>
</svg>
