<svg width="38" height="39" viewBox="0 0 38 39" fill="none" xmlns="http://www.w3.org/2000/svg">
<path fill-rule="evenodd" clip-rule="evenodd" d="M37.17 28.63L37 29.07C34.13 34.66 29 38.07 21.78 38.25C18.7622 38.2974 15.769 37.7008 13 36.5C8.51832 34.4344 4.83711 30.9569 2.52 26.6C-0.480004 20.78 -1.03 12.69 5.22 6.59998C5.31 6.59998 4.46 7.90997 4.56 7.90997L4.38 8.46997C-0.119996 22.56 13.75 34.63 27.22 33.25C30.9327 32.7758 34.4009 31.1414 37.13 28.58L37.17 28.63Z" fill="#F24E3D"/>
<path fill-rule="evenodd" clip-rule="evenodd" d="M29 22.81C32.3807 22.7749 35.6126 21.4139 38 19.02C36.16 23.68 30.85 26.67 23.73 25.72C17.73 24.92 12.08 18.92 11.5 12.91C11.07 8.53 12.59 5.91 15.11 2.75C14.4512 3.90833 14.0169 5.1806 13.83 6.5C12.83 15.97 21.39 22.76 28.97 22.81H29Z" fill="#F24E3D"/>
<path fill-rule="evenodd" clip-rule="evenodd" d="M37.7 11.0499C37.17 12.2599 34.14 14.5399 32.8 14.8299C30.8273 15.3656 28.7334 15.24 26.8389 14.4725C24.9443 13.7049 23.3535 12.3376 22.31 10.5799C21.9851 9.97084 21.7044 9.33924 21.47 8.68994C20.78 6.33994 21.1 2.78995 23.16 0.949951C22.5741 2.58403 22.4394 4.34577 22.77 6.04993C23.0846 7.13771 23.5599 8.17245 24.18 9.11993C24.9731 10.3336 26.0785 11.3112 27.38 11.95C27.8898 12.2593 28.4292 12.5172 28.99 12.7199C30.33 13.1099 33.15 14.1499 37.7 11.0499Z" fill="#F24E3D"/>
</svg>
