<svg width="108" height="103" viewBox="0 0 108 103" fill="none" xmlns="http://www.w3.org/2000/svg">
<path d="M28.58 56.29C19.7512 61.8194 10.2146 66.1285 0.230011 69.1C0.430011 69.51 0.639987 69.9201 0.829987 70.3401C10.9056 67.3155 20.5261 62.9426 29.43 57.3401C29.13 57.0001 28.85 56.66 28.58 56.29Z" fill="#77C4D3"/>
<path d="M36.87 69.52C26.8493 75.7698 16.0319 80.6403 4.70999 84C4.94999 84.46 5.18999 84.93 5.39999 85.41C16.8219 81.9862 27.7301 77.0383 37.83 70.7C37.49 70.35 37.17 69.94 36.87 69.52Z" fill="#77C4D3"/>
<path d="M46.21 84.4399C34.8605 91.5411 22.6028 97.0746 9.76999 100.89C10.04 101.42 10.31 101.94 10.55 102.48C23.4957 98.6106 35.858 93.0064 47.3 85.8199C46.92 85.3699 46.56 84.9099 46.21 84.4399Z" fill="#77C4D3"/>
<path d="M63.28 25.3001C68.533 17.8336 72.8959 9.77901 76.28 1.30011C75.84 1.17011 75.4 1.04014 74.96 0.890137C71.6252 9.20682 67.3329 17.1067 62.17 24.4301C62.57 24.7301 62.93 25.0001 63.28 25.3001Z" fill="#77C4D3"/>
<path d="M76.21 34.38C82.1812 25.9195 87.1447 16.7911 91 7.17999C90.5 7.02999 90 6.89997 89.5 6.71997C85.7152 16.1506 80.8493 25.1105 75 33.42C75.41 33.72 75.81 34.05 76.21 34.38Z" fill="#77C4D3"/>
<path d="M90.79 44.61C97.554 35.0237 103.175 24.6803 107.54 13.79C106.97 13.63 106.4 13.47 105.85 13.27C101.557 23.9575 96.0398 34.1119 89.41 43.53C89.88 43.87 90.34 44.24 90.79 44.61Z" fill="#77C4D3"/>
</svg>
