<svg width="47" height="39" viewBox="0 0 47 39" fill="none" xmlns="http://www.w3.org/2000/svg">
<path d="M40.2 23.4101C39.47 23.6901 39.5 23.6901 39.12 22.9901C38.6334 22.1207 38.3657 21.146 38.34 20.1501C38.3505 19.2942 38.5271 18.4486 38.86 17.6601C39.1 17.0301 38.79 16.8101 38.24 16.7501C37.8376 16.7101 37.4323 16.7101 37.03 16.7501C36.03 16.8601 35.89 16.9501 35.61 17.9601C35.4792 18.5675 35.2883 19.1605 35.04 19.7301C34.37 21.1301 33.61 22.4801 32.83 23.8201C32.7052 24.0741 32.5508 24.3124 32.37 24.5301C31.8424 23.7013 31.5551 22.7424 31.54 21.7601C31.546 20.8072 31.7432 19.8653 32.12 18.9901C32.1495 18.9344 32.1667 18.8729 32.1704 18.81C32.1741 18.7471 32.1643 18.6841 32.1415 18.6253C32.1187 18.5665 32.0836 18.5133 32.0385 18.4693C31.9934 18.4252 31.9393 18.3914 31.88 18.3701C31.7632 18.3122 31.6385 18.2717 31.51 18.2501C30.8403 18.1805 30.1635 18.2279 29.51 18.3901C29.3709 18.4171 29.2434 18.4863 29.145 18.5883C29.0466 18.6903 28.982 18.8201 28.96 18.9601C28.8394 19.6049 28.6413 20.2328 28.37 20.8301L26.15 25.8301C25.51 27.2801 24.87 28.7301 24.15 30.1201C24.1 30.2201 24.05 30.3901 23.92 30.3601C23.79 30.3301 23.83 30.1601 23.82 30.0401C23.8274 29.233 23.952 28.4313 24.19 27.6601C24.49 26.4201 24.82 25.1801 25.14 23.9501C25.1871 23.8026 25.1773 23.6428 25.1125 23.5021C25.0477 23.3615 24.9327 23.2502 24.79 23.1901C24.5947 23.0585 24.3615 22.995 24.1264 23.0095C23.8914 23.024 23.6677 23.1155 23.49 23.2701C23.5538 22.8097 23.5739 22.3443 23.55 21.8801C23.586 21.4773 23.4739 21.0753 23.2345 20.7494C22.9952 20.4235 22.6451 20.1961 22.25 20.1101C21.6809 20.0311 21.1016 20.14 20.6 20.4201C19.4171 20.9966 18.3887 21.8468 17.6 22.9001C17.5151 23.0273 17.4022 23.1333 17.27 23.2101C15.73 24.0501 14.2 24.8801 12.67 25.7301C12.6401 25.7532 12.6058 25.77 12.5693 25.7795C12.5327 25.789 12.4946 25.7911 12.4572 25.7855C12.4198 25.7799 12.384 25.7668 12.3518 25.7469C12.3196 25.7271 12.2918 25.701 12.27 25.6701C11.477 24.8701 10.6245 24.1313 9.71999 23.4601C8.4401 22.5641 7.23908 21.5604 6.13 20.4601C5.48007 19.8037 4.99661 19.0014 4.71999 18.1201C4.53514 17.4219 4.493 16.6937 4.59609 15.9789C4.69919 15.2641 4.9454 14.5775 5.32 13.9601C6.19322 12.4614 7.3721 11.1632 8.77999 10.1501C10.9603 8.48616 13.3384 7.09891 15.86 6.02006C18.6293 4.71682 21.6597 4.06352 24.72 4.11006C25.9489 4.11682 27.1587 4.41501 28.25 4.98009C28.6314 5.16229 28.9622 5.43541 29.2133 5.77543C29.4644 6.11546 29.6281 6.51194 29.69 6.93007C29.8392 7.9633 29.646 9.01696 29.14 9.93007C28.0637 11.9264 26.4263 13.5638 24.43 14.6401C22.788 15.5822 20.989 16.2191 19.12 16.5201C18.0906 16.7331 17.0335 16.777 15.99 16.6501C14.7904 16.5401 13.6746 15.9875 12.86 15.1001C12.8242 15.0378 12.7659 14.9916 12.697 14.9711C12.6281 14.9506 12.554 14.9574 12.49 14.9901C12.32 15.0701 12.33 15.2101 12.35 15.3501C12.3627 15.449 12.3862 15.5463 12.42 15.6401C12.6558 16.1795 13.028 16.6482 13.5 17.0001C14.7359 17.9302 16.2542 18.4068 17.8 18.3501C19.3192 18.3666 20.8344 18.1919 22.31 17.8301C25.5983 17.1477 28.5187 15.2744 30.51 12.5701C31.7796 10.9585 32.4606 8.96158 32.44 6.91008C32.4377 6.2577 32.3056 5.6123 32.0515 5.01143C31.7975 4.41056 31.4264 3.86621 30.96 3.41008C29.8002 2.33027 28.3513 1.61106 26.79 1.34007C25.0694 0.963742 23.2969 0.885932 21.55 1.11006C20.022 1.28255 18.5168 1.61778 17.06 2.11006C14.8249 2.87916 12.663 3.84635 10.6 5.00007C8.46906 6.13805 6.49853 7.55373 4.74 9.21007C3.14943 10.6401 1.90765 12.4155 1.10999 14.4001C0.733853 15.2577 0.615711 16.2064 0.769997 17.1301C1.06478 18.3231 1.63695 19.4298 2.44 20.3601C3.66649 21.7584 5.07192 22.989 6.61999 24.0201C7.82999 24.8901 9.1 25.6901 10.27 26.6301C10.6 26.8901 10.6 26.8901 10.21 27.1001C9.82 27.3101 9.29 27.5601 8.85 27.8201C6.99818 28.7646 5.31003 30.0003 3.85 31.4801C3.16722 32.1883 2.68417 33.0646 2.44999 34.0201C3.60849 35.7478 4.98672 37.3177 6.55 38.6901C7.81632 38.588 9.03958 38.1832 10.1168 37.5097C11.194 36.8362 12.0937 35.9138 12.74 34.8201C13.4272 33.7108 13.8355 32.4515 13.93 31.1501C14.0401 30.0047 13.9211 28.849 13.58 27.7501C13.52 27.5601 13.3 27.3601 13.39 27.1901C13.48 27.0201 13.71 26.9501 13.89 26.8501L16.09 25.5801C16.1048 25.7033 16.084 25.8283 16.03 25.9401C15.5286 27.481 15.3916 29.1173 15.63 30.7201C15.8005 31.7355 16.2044 32.6974 16.81 33.5301C16.9799 33.7252 17.1896 33.8816 17.4251 33.9888C17.6606 34.096 17.9163 34.1514 18.175 34.1514C18.4337 34.1514 18.6894 34.096 18.9249 33.9888C19.1604 33.8816 19.3701 33.7252 19.54 33.5301C20.0865 32.7403 20.5427 31.8916 20.9 31.0001C21.12 30.5401 21.32 30.0701 21.52 29.6101C21.485 30.1595 21.485 30.7106 21.52 31.2601C21.5163 31.7971 21.6469 32.3264 21.9 32.8001C21.9728 32.9321 22.0713 33.0483 22.1897 33.1417C22.3081 33.2351 22.444 33.3039 22.5893 33.344C22.7347 33.3841 22.8867 33.3946 23.0362 33.375C23.1857 33.3555 23.3298 33.3062 23.46 33.2301C24.0418 32.8992 24.5145 32.4056 24.82 31.8101C26.2514 29.3522 27.5208 26.8034 28.62 24.1801L29.34 22.4401C29.34 22.6501 29.41 22.7701 29.43 22.9001C29.6669 24.1449 30.1025 25.3436 30.72 26.4501C30.793 26.5407 30.8329 26.6536 30.8329 26.7701C30.8329 26.8865 30.793 26.9994 30.72 27.0901C30.15 27.8601 29.53 28.5901 28.91 29.3301C28.368 29.9317 27.8637 30.5663 27.4 31.2301C27.302 31.3424 27.2356 31.4788 27.2078 31.6252C27.1799 31.7717 27.1915 31.9229 27.2414 32.0634C27.2912 32.2039 27.3776 32.3286 27.4916 32.4246C27.6056 32.5207 27.7431 32.5847 27.89 32.6101C28.0935 32.6552 28.3017 32.6754 28.51 32.6701C29.6279 32.6391 30.7192 32.3223 31.68 31.7501C32.3203 31.4431 32.8572 30.9561 33.2248 30.3487C33.5925 29.7412 33.775 29.0397 33.75 28.3301C33.7192 27.6174 33.5494 26.9176 33.25 26.2701C33.2137 26.2115 33.1945 26.144 33.1945 26.0751C33.1945 26.0062 33.2137 25.9386 33.25 25.8801C34.157 24.569 34.9819 23.2031 35.72 21.7901C35.8301 21.5162 35.9746 21.2575 36.15 21.0201C36.15 21.1201 36.21 21.1801 36.22 21.2401C36.4151 22.4159 36.8037 23.5513 37.37 24.6001C37.53 24.8901 37.45 25.0401 37.23 25.2301C36.4346 25.8823 35.7579 26.6672 35.23 27.5501C34.8063 28.2178 34.5745 28.9893 34.56 29.7801C34.5452 29.9754 34.5788 30.1714 34.6579 30.3507C34.737 30.5299 34.8591 30.6869 35.0135 30.8076C35.1678 30.9283 35.3496 31.009 35.5426 31.0426C35.7356 31.0761 35.934 31.0616 36.12 31.0001C37.0293 30.7916 37.8867 30.4003 38.64 29.8501C40.3 28.6401 40.78 27.3601 40.26 25.5801C40.06 24.8801 40.06 24.8901 40.77 24.6801C42.2873 24.2395 43.8867 24.1608 45.44 24.4501L45.97 24.5501C46.06 23.9901 46.13 23.4301 46.18 22.8501C44.1764 22.4196 42.0889 22.6151 40.2 23.4101ZM7.66 36.0001C7.21921 36.1627 6.74833 36.2276 6.27999 36.1901C6.00413 36.1746 5.74522 36.0519 5.55843 35.8483C5.37164 35.6447 5.27174 35.3763 5.27999 35.1001C5.25864 34.4025 5.42437 33.712 5.75999 33.1001C6.38858 32.0206 7.25356 31.0974 8.28999 30.4001C9.24741 29.6717 10.2494 29.0037 11.29 28.4001C11.6 28.2201 11.61 28.2201 11.68 28.5901C11.7866 29.0523 11.837 29.5257 11.83 30.0001C11.8177 31.3032 11.4133 32.5725 10.6696 33.6427C9.92582 34.7128 8.87713 35.5343 7.66 36.0001ZM22 22.7101C21.8132 23.8097 21.5081 24.886 21.09 25.9201C20.57 27.3401 20.09 28.7701 19.39 30.1401C19.2537 30.4634 19.0681 30.7636 18.84 31.0301C18.61 31.2701 18.4 31.2401 18.24 30.9501C18.0184 30.4112 17.9096 29.8326 17.92 29.2501C17.9285 27.0714 18.668 24.9586 20.02 23.2501C20.3726 22.763 20.8804 22.4104 21.46 22.2501C21.87 22.1201 22.06 22.2801 22 22.7101ZM31.1 29.7101C30.6638 30.4608 30.0124 31.0635 29.23 31.4401C29.15 31.4401 29.04 31.5601 28.96 31.4401C28.88 31.3201 29.01 31.2801 29.06 31.2301C29.84 30.3701 30.61 29.5101 31.31 28.5801H31.4C31.3927 28.9641 31.2859 29.3397 31.09 29.6701L31.1 29.7101ZM36.5 29.7101C36.39 29.7701 36.25 29.8701 36.14 29.7801C36.03 29.6901 36.06 29.5101 36.14 29.3801C36.3151 28.7832 36.5672 28.2118 36.89 27.6801C37.1704 27.2387 37.5065 26.8354 37.89 26.4801C38.04 26.3301 38.11 26.3501 38.16 26.5601C38.2047 26.7737 38.2249 26.9918 38.22 27.2101C38.2116 27.7426 38.0417 28.2602 37.7328 28.6941C37.4239 29.128 36.9905 29.4579 36.49 29.6401L36.5 29.7101Z" fill="#8CC63F"/>
</svg>
