<svg width="103" height="105" viewBox="0 0 103 105" fill="none" xmlns="http://www.w3.org/2000/svg">
<path d="M56 60.05C69.5294 72.2116 85.2163 81.7324 102.25 88.12C102.41 87.61 102.56 87.12 102.75 86.6C85.4692 80.1084 69.5978 70.3547 56 57.87L55.59 57.5201L55.17 57.08C38.4308 41.575 25.9731 22.0152 19 0.290039C18.5 0.520039 18 0.770042 17.47 0.980042C24.5813 23.02 37.2682 42.8478 54.3 58.54L56 60.05Z" fill="#8CC63F"/>
<path d="M44.19 73C59.4649 86.7294 77.1772 97.4748 96.41 104.68C96.58 104.11 96.75 103.53 96.97 102.97C77.4602 95.6438 59.5415 84.6338 44.19 70.54L43.73 70.14L43.26 69.66C24.3854 52.1455 10.3438 30.0619 2.49 5.54004C1.91 5.81004 1.35 6.08004 0.760002 6.32004C8.78141 31.2081 23.1015 53.5994 42.33 71.32L44.19 73Z" fill="#8CC63F"/>
</svg>
