<svg width="164" height="88" viewBox="0 0 164 88" fill="none" xmlns="http://www.w3.org/2000/svg">
<path d="M162.357 43.9934C162.359 52.3742 159.865 60.5674 155.189 67.537C150.513 74.5066 143.866 79.9394 136.088 83.1483C128.31 86.3573 119.751 87.1982 111.493 85.5648C103.234 83.9314 95.6483 79.897 89.6938 73.9719C83.7393 68.0467 79.6838 60.497 78.0402 52.2775C76.3967 44.058 77.2389 35.538 80.4603 27.7949C83.6818 20.0519 89.1378 13.4337 96.1383 8.77737C103.139 4.12102 111.369 1.63568 119.789 1.63568" stroke="#F24E3D" stroke-width="2.5" stroke-miterlimit="10"/>
<path d="M0.696777 68.267L20.6923 48.364" stroke="white" stroke-width="1.5" stroke-miterlimit="10"/>
<path d="M18.1288 68.267L38.1243 48.364" stroke="white" stroke-width="1.5" stroke-miterlimit="10"/>
<path d="M35.5607 68.267L55.5562 48.364" stroke="white" stroke-width="1.5" stroke-miterlimit="10"/>
<path d="M52.9927 68.267L73.0014 48.364" stroke="white" stroke-width="1.5" stroke-miterlimit="10"/>
<path d="M70.4247 68.267L90.4333 48.364" stroke="white" stroke-width="1.5" stroke-miterlimit="10"/>
<path d="M87.8699 68.267L107.865 48.364" stroke="white" stroke-width="1.5" stroke-miterlimit="10"/>
<path d="M105.302 68.267L125.297 48.364" stroke="white" stroke-width="1.5" stroke-miterlimit="10"/>
</svg>
