<svg width="205" height="168" viewBox="0 0 205 168" fill="none" xmlns="http://www.w3.org/2000/svg">
<g clip-path="url(#clip0)">
<path d="M48.65 239.2C-7.43456 239.2 -52.9001 193.734 -52.9001 137.65C-52.9001 81.5653 -7.43456 36.0999 48.65 36.0999C104.734 36.0999 150.2 81.5653 150.2 137.65C150.2 193.734 104.734 239.2 48.65 239.2Z" stroke="#F24E3D" stroke-width="2" stroke-miterlimit="10"/>
<path d="M-3.40098 263.981C-73.1812 235.234 -106.445 155.362 -77.6981 85.5813C-48.951 15.8011 30.9212 -17.4629 100.701 11.2842C170.482 40.0313 203.746 119.904 174.999 189.684C146.251 259.464 66.3793 292.728 -3.40098 263.981Z" stroke="#F24E3D" stroke-width="2" stroke-miterlimit="10"/>
<path d="M48.65 256.75C72.2058 256.75 95.2325 249.765 114.818 236.678C134.404 223.591 149.67 204.99 158.684 183.227C167.698 161.465 170.057 137.518 165.462 114.415C160.866 91.3115 149.523 70.0899 132.866 53.4334C116.21 36.777 94.9884 25.4338 71.8853 20.8383C48.7821 16.2428 24.8351 18.6014 3.0724 27.6158C-18.6903 36.6302 -37.2911 51.8955 -50.378 71.4814C-63.4649 91.0673 -70.45 114.094 -70.45 137.65C-70.4129 169.226 -57.8531 199.498 -35.5255 221.825C-13.1979 244.153 17.0741 256.713 48.65 256.75Z" stroke="#F24E3D" stroke-width="2" stroke-miterlimit="10"/>
<path d="M48.65 239.2C-7.43456 239.2 -52.9001 193.734 -52.9001 137.65C-52.9001 81.5653 -7.43456 36.0999 48.65 36.0999C104.734 36.0999 150.2 81.5653 150.2 137.65C150.2 193.734 104.734 239.2 48.65 239.2Z" stroke="#F24E3D" stroke-width="2" stroke-miterlimit="10"/>
<path d="M48.65 220.37C2.96501 220.37 -34.07 183.335 -34.07 137.65C-34.07 91.9649 2.96501 54.9299 48.65 54.9299C94.335 54.9299 131.37 91.9649 131.37 137.65C131.37 183.335 94.335 220.37 48.65 220.37Z" stroke="#F24E3D" stroke-width="2" stroke-miterlimit="10"/>
<path d="M48.65 203.11C12.4974 203.11 -16.81 173.802 -16.81 137.65C-16.81 101.497 12.4974 72.1899 48.65 72.1899C84.8026 72.1899 114.11 101.497 114.11 137.65C114.11 173.802 84.8026 203.11 48.65 203.11Z" stroke="#F24E3D" stroke-width="2" stroke-miterlimit="10"/>
</g>
<defs>
<clipPath id="clip0">
<rect width="293.41" height="275.3" fill="white" transform="matrix(-1 0 0 1 204.41 0)"/>
</clipPath>
</defs>
</svg>
