<?xml version="1.0" encoding="utf-8"?><svg viewBox="0 0 164 162" xmlns="http://www.w3.org/2000/svg" xmlns:xlink="http://www.w3.org/1999/xlink"><style>:root>svg{display:none}:root>svg:target{display:block}</style><svg fill="none" viewBox="0 0 32 162" id="dots(16)" xmlns="http://www.w3.org/2000/svg"><g clip-path="url(#aclip0)" fill="#fff"><path d="M28.76 5.21a2.61 2.61 0 110-5.22 2.61 2.61 0 010 5.22zM28.76 27.57a2.6 2.6 0 11.02-5.2 2.6 2.6 0 01-.02 5.2zM28.76 49.94a2.6 2.6 0 11.02-5.2 2.6 2.6 0 01-.02 5.2zM28.76 72.31a2.61 2.61 0 110-5.221 2.61 2.61 0 010 5.221zM28.76 94.07a2.61 2.61 0 110-5.221 2.61 2.61 0 010 5.221zM28.76 116.44a2.608 2.608 0 01-2.56-3.119 2.61 2.61 0 112.56 3.119zM28.76 138.8a2.599 2.599 0 11.02-5.198 2.599 2.599 0 01-.02 5.198zM28.76 161.17a2.599 2.599 0 11.02-5.198 2.599 2.599 0 01-.02 5.198zM2.6 5.21a2.61 2.61 0 110-5.22 2.61 2.61 0 010 5.22zM2.6 27.57a2.6 2.6 0 11.02-5.2 2.6 2.6 0 01-.02 5.2zM2.6 49.94a2.6 2.6 0 11.02-5.2 2.6 2.6 0 01-.02 5.2zM2.6 72.31a2.61 2.61 0 110-5.22 2.61 2.61 0 010 5.22zM2.6 94.07a2.61 2.61 0 110-5.22 2.61 2.61 0 010 5.22zM2.6 116.44a2.608 2.608 0 01-2.56-3.119 2.609 2.609 0 015.17.509 2.612 2.612 0 01-2.61 2.61zM2.6 138.8a2.6 2.6 0 11.02-5.199 2.6 2.6 0 01-.02 5.199zM2.6 161.17a2.6 2.6 0 11.02-5.199 2.6 2.6 0 01-.02 5.199z"/></g><defs><clipPath id="aclip0"><path fill="#fff" d="M0 0h31.37v161.17H0z"/></clipPath></defs></svg><svg fill="none" viewBox="0 0 9 9" id="plus" xmlns="http://www.w3.org/2000/svg"><g clip-path="url(#bclip0)"><path d="M8.959 2.148L6.654 4.453 9 6.799 6.793 9.006l-2.34-2.352-2.305 2.305L.054 6.865 2.359 4.56 0 2.207 2.207 0l2.36 2.359L6.864.054 8.96 2.148z" fill="#F24E3D"/></g><defs><clipPath id="bclip0"><path fill="#fff" d="M0 0h9v9H0z"/></clipPath></defs></svg><svg fill="none" viewBox="0 0 91 146" id="round(dots)" xmlns="http://www.w3.org/2000/svg"><g clip-path="url(#cclip0)"><path d="M3.92 82.939c0-.381-.115-.753-.33-1.07a1.958 1.958 0 00-.883-.71 2.004 2.004 0 00-1.136-.109 1.979 1.979 0 00-1.006.527c-.275.27-.463.613-.538.986a1.89 1.89 0 00.111 1.113c.15.352.401.653.724.864a1.995 1.995 0 002.483-.24c.368-.36.575-.85.575-1.361zM20.84 82.939c0-.381-.115-.753-.331-1.07a1.958 1.958 0 00-.882-.71 2.004 2.004 0 00-1.136-.109 1.98 1.98 0 00-1.007.527c-.275.27-.462.613-.538.986a1.89 1.89 0 00.112 1.113c.149.352.4.653.724.864a1.995 1.995 0 002.482-.24c.369-.36.576-.85.576-1.361zM37.749 82.939a1.903 1.903 0 00-.33-1.074 1.963 1.963 0 00-.883-.714 2.009 2.009 0 00-2.15.415 1.92 1.92 0 00-.542.989c-.077.374-.038.763.111 1.116.15.353.402.655.726.868a2.001 2.001 0 002.488-.238c.37-.361.578-.85.58-1.362zM54.651 82.939c0-.381-.115-.753-.33-1.07a1.958 1.958 0 00-.883-.71 2.004 2.004 0 00-1.136-.109 1.98 1.98 0 00-1.006.527c-.275.27-.462.613-.538.986a1.89 1.89 0 00.111 1.113c.15.352.401.653.724.864a1.995 1.995 0 002.483-.24c.368-.36.575-.85.575-1.361zM3.92 67.231c0-.38-.115-.753-.33-1.07a1.957 1.957 0 00-.883-.709 2.004 2.004 0 00-2.142.418c-.275.269-.463.612-.538.986a1.89 1.89 0 00.111 1.112c.15.352.401.653.724.864a1.995 1.995 0 002.483-.24c.368-.36.575-.85.575-1.36zM20.84 67.231c0-.38-.115-.753-.331-1.07a1.957 1.957 0 00-.882-.709 2.004 2.004 0 00-2.143.418c-.275.269-.462.612-.538.986a1.89 1.89 0 00.112 1.112c.149.352.4.653.724.864a1.995 1.995 0 002.482-.24c.369-.36.576-.85.576-1.36zM37.749 67.231a1.903 1.903 0 00-.33-1.074 1.963 1.963 0 00-.883-.714 2.01 2.01 0 00-2.15.415 1.92 1.92 0 00-.542.989c-.077.375-.038.763.111 1.117.15.353.402.655.726.867a2 2 0 002.488-.238c.37-.36.578-.85.58-1.362zM54.651 67.231c0-.38-.115-.753-.33-1.07a1.957 1.957 0 00-.883-.709 2.004 2.004 0 00-2.142.418c-.275.269-.462.612-.538.986a1.89 1.89 0 00.111 1.112c.15.352.401.653.724.864a1.995 1.995 0 002.483-.24c.368-.36.575-.85.575-1.36zM3.92 51.53c0-.382-.115-.754-.33-1.07a1.957 1.957 0 00-.883-.71 2.004 2.004 0 00-2.142.417c-.275.27-.463.613-.538.986-.076.374-.037.761.111 1.113.15.352.401.653.724.864a1.995 1.995 0 002.481-.24c.368-.362.576-.85.577-1.36zM20.84 51.53c0-.382-.115-.754-.331-1.07a1.957 1.957 0 00-.882-.71 2.004 2.004 0 00-2.143.417c-.275.27-.462.613-.538.986a1.89 1.89 0 00.112 1.113c.149.352.4.653.724.864a1.995 1.995 0 002.48-.24c.37-.362.577-.85.578-1.36zM37.749 51.53a1.903 1.903 0 00-.33-1.075 1.963 1.963 0 00-.883-.714 2.01 2.01 0 00-1.14-.112 1.985 1.985 0 00-1.01.527 1.92 1.92 0 00-.542.989c-.077.375-.038.763.111 1.116.15.354.402.655.726.868a2.001 2.001 0 002.487-.24c.369-.36.578-.85.58-1.36zM54.651 51.53c0-.382-.115-.754-.33-1.07a1.957 1.957 0 00-.883-.71 2.004 2.004 0 00-2.142.417c-.275.27-.462.613-.538.986a1.89 1.89 0 00.111 1.113c.15.352.401.653.724.864a1.995 1.995 0 002.481-.24c.369-.362.576-.85.578-1.36zM3.92 35.822c0-.381-.115-.754-.33-1.07a1.958 1.958 0 00-.883-.71 2.004 2.004 0 00-1.136-.11 1.978 1.978 0 00-1.006.528c-.275.27-.463.612-.538.986a1.89 1.89 0 00.111 1.112c.15.352.401.653.724.865a1.994 1.994 0 002.483-.24c.368-.361.575-.85.575-1.361zM20.84 35.822c0-.381-.115-.754-.331-1.07a1.958 1.958 0 00-.882-.71 2.004 2.004 0 00-1.136-.11 1.978 1.978 0 00-1.007.528c-.275.27-.462.612-.538.986a1.89 1.89 0 00.112 1.112c.149.352.4.653.724.865a1.995 1.995 0 002.482-.24c.369-.361.576-.85.576-1.361zM37.749 35.822a1.904 1.904 0 00-.33-1.075 1.963 1.963 0 00-.883-.714 2.01 2.01 0 00-2.15.415 1.92 1.92 0 00-.542.99c-.077.374-.038.762.111 1.116.15.353.402.655.726.867a2 2 0 002.488-.237c.37-.361.578-.851.58-1.362zM54.651 35.822c0-.381-.115-.754-.33-1.07a1.958 1.958 0 00-.883-.71 2.004 2.004 0 00-1.136-.11 1.978 1.978 0 00-1.006.528c-.275.27-.462.612-.538.986a1.89 1.89 0 00.111 1.112c.15.352.401.653.724.865a1.995 1.995 0 002.483-.24c.368-.361.575-.85.575-1.361zM3.92 144.074c0-.381-.116-.754-.332-1.071a1.954 1.954 0 00-.884-.709 1.988 1.988 0 00-2.144.422c-.274.271-.46.615-.535.989a1.89 1.89 0 00.116 1.114c.15.351.404.651.73.862a1.999 1.999 0 002.477-.249c.366-.361.572-.849.572-1.358zM20.84 144.074c0-.381-.115-.753-.331-1.07a1.963 1.963 0 00-.882-.709 1.996 1.996 0 00-2.143.418 1.911 1.911 0 00-.538.986c-.076.373-.037.76.112 1.112.149.352.4.653.724.864a1.992 1.992 0 002.482-.239c.369-.361.576-.851.576-1.362zM37.749 144.074a1.902 1.902 0 00-.33-1.074 1.966 1.966 0 00-.883-.714 2.009 2.009 0 00-2.15.415 1.92 1.92 0 00-.542.989c-.077.375-.038.763.111 1.117.15.353.402.655.726.867.325.213.706.326 1.096.326.522 0 1.023-.203 1.392-.564.37-.361.578-.85.58-1.362zM54.651 144.074c0-.381-.115-.753-.33-1.07a1.963 1.963 0 00-.883-.709 1.996 1.996 0 00-2.142.418 1.911 1.911 0 00-.538.986c-.076.373-.037.76.111 1.112.15.352.401.653.724.864a1.992 1.992 0 002.483-.239c.368-.361.575-.851.575-1.362zM3.92 128.367c0-.381-.115-.754-.33-1.07a1.959 1.959 0 00-.883-.71 2.013 2.013 0 00-1.136-.109 1.979 1.979 0 00-1.006.527 1.891 1.891 0 00-.426 2.099c.148.351.4.652.723.864a2 2 0 002.483-.24c.368-.361.575-.851.575-1.361zM20.84 128.367c0-.381-.115-.754-.331-1.07a1.959 1.959 0 00-.882-.71 2.013 2.013 0 00-1.136-.109 1.98 1.98 0 00-1.007.527 1.891 1.891 0 00-.426 2.099c.149.351.4.652.724.864a2 2 0 002.482-.24c.369-.361.576-.851.576-1.361zM37.749 128.367a1.905 1.905 0 00-.33-1.075 1.973 1.973 0 00-.883-.714 2.009 2.009 0 00-1.14-.112 1.986 1.986 0 00-1.01.528 1.896 1.896 0 00-.43 2.105c.148.353.401.655.725.868a2.004 2.004 0 002.488-.238c.37-.361.578-.851.58-1.362zM54.651 128.367c0-.381-.115-.754-.33-1.07a1.959 1.959 0 00-.883-.71 2.013 2.013 0 00-1.136-.109 1.98 1.98 0 00-1.006.527 1.891 1.891 0 00-.426 2.099c.148.351.4.652.723.864a2 2 0 002.483-.24c.368-.361.575-.851.575-1.361zM3.92 112.659a1.9 1.9 0 00-.334-1.069 1.963 1.963 0 00-.883-.706 2.003 2.003 0 00-1.135-.108c-.381.075-.731.259-1.005.529a1.89 1.89 0 00-.424 2.098c.149.351.4.652.724.863a1.998 1.998 0 002.484-.242 1.913 1.913 0 00.573-1.365zM20.84 112.659a1.899 1.899 0 00-.334-1.069 1.963 1.963 0 00-.883-.706 2.003 2.003 0 00-1.136-.108c-.38.075-.73.259-1.005.529a1.89 1.89 0 00-.424 2.098c.15.351.401.652.725.863a1.998 1.998 0 002.483-.242 1.914 1.914 0 00.574-1.365zM37.749 112.659c0-.382-.116-.755-.333-1.073a1.998 1.998 0 00-3.033-.293c-.276.27-.463.614-.54.989-.076.375-.036.763.113 1.116.149.353.402.654.726.867a2.002 2.002 0 002.49-.241 1.91 1.91 0 00.577-1.365zM54.651 112.659a1.899 1.899 0 00-.334-1.069 1.963 1.963 0 00-.883-.706 2.003 2.003 0 00-1.135-.108c-.381.075-.731.259-1.005.529a1.89 1.89 0 00-.424 2.098c.149.351.4.652.724.863a1.998 1.998 0 002.484-.242 1.914 1.914 0 00.573-1.365zM3.92 96.957c0-.381-.115-.753-.33-1.07a1.957 1.957 0 00-.883-.71 2.004 2.004 0 00-2.142.418c-.275.27-.463.612-.538.986a1.89 1.89 0 00.111 1.113c.15.352.401.652.724.864a1.995 1.995 0 002.483-.24c.368-.36.575-.85.575-1.361zM20.84 96.957c0-.381-.115-.753-.331-1.07a1.957 1.957 0 00-.882-.71 2.004 2.004 0 00-2.143.418c-.275.27-.462.612-.538.986a1.89 1.89 0 00.112 1.113c.149.352.4.652.724.864a1.995 1.995 0 002.482-.24c.369-.36.576-.85.576-1.361zM37.749 96.957a1.903 1.903 0 00-.33-1.075 1.963 1.963 0 00-.883-.713 2.01 2.01 0 00-1.14-.113 1.985 1.985 0 00-1.01.528 1.92 1.92 0 00-.542.988c-.077.375-.038.764.111 1.117.15.353.402.655.726.868a2.001 2.001 0 002.488-.238c.37-.361.578-.851.58-1.362zM54.651 96.957c0-.381-.115-.753-.33-1.07a1.957 1.957 0 00-.883-.71 2.004 2.004 0 00-2.142.418c-.275.27-.462.612-.538.986a1.89 1.89 0 00.111 1.113c.15.352.401.652.724.864a1.995 1.995 0 002.483-.24c.368-.36.575-.85.575-1.361z" fill="#060000"/><path d="M82.023 11.558a29.607 29.607 0 010 42.48c-11.975 11.73-31.39 11.73-43.365 0a29.607 29.607 0 010-42.48c11.975-11.73 31.39-11.73 43.365 0z" fill="#F24E3D"/></g><defs><clipPath id="cclip0"><path fill="#fff" transform="matrix(1 0 0 -1 0 146)" d="M0 0h91v146H0z"/></clipPath></defs></svg><svg fill="none" viewBox="0 0 106 57" id="semicircle" xmlns="http://www.w3.org/2000/svg"><path d="M104.938 28.496a27.395 27.395 0 01-4.633 15.25 27.496 27.496 0 01-12.346 10.111 27.576 27.576 0 01-15.897 1.566 27.535 27.535 0 01-14.09-7.51 27.424 27.424 0 01-7.531-14.051 27.38 27.38 0 011.564-15.859A27.46 27.46 0 0162.138 5.685 27.562 27.562 0 0177.425 1.06" stroke="#F24E3D" stroke-width="2.5" stroke-miterlimit="10"/><path d="M.45 44.218l12.924-12.891M11.717 44.218l12.924-12.891M22.984 44.218l12.924-12.891M34.252 44.218l12.932-12.891M45.518 44.218l12.933-12.891M56.794 44.218l12.924-12.891M68.061 44.218l12.924-12.891" stroke="#fff" stroke-width="1.5" stroke-miterlimit="10"/></svg><svg fill="none" viewBox="0 0 164 88" id="semicircle--black" xmlns="http://www.w3.org/2000/svg"><path d="M162.357 43.993a42.235 42.235 0 01-7.168 23.544 42.526 42.526 0 01-19.101 15.611 42.75 42.75 0 01-24.595 2.417 42.628 42.628 0 01-21.8-11.593A42.31 42.31 0 0178.04 52.278a42.19 42.19 0 012.42-24.483A42.414 42.414 0 0196.138 8.777c7.001-4.656 15.231-7.141 23.651-7.141" stroke="#F24E3D" stroke-width="2.5" stroke-miterlimit="10"/><path d="M.697 68.267l19.995-19.903M18.129 68.267l19.995-19.903M35.56 68.267l19.996-19.903M52.993 68.267L73 48.364M70.425 68.267l20.008-19.903M87.87 68.267l19.995-19.903M105.302 68.267l19.995-19.903" stroke="#060000" stroke-width="1.5" stroke-miterlimit="10"/></svg><svg fill="none" viewBox="0 0 113 33" id="wawe" xmlns="http://www.w3.org/2000/svg"><g clip-path="url(#fclip0)" stroke="#fff" stroke-width="2" stroke-miterlimit="10"><path d="M1 0l11.15 12L23.3 0l11.14 12L45.59 0l11.14 12L67.88 0l11.15 12L90.18 0l11.15 12 11.16-12M.73 19.06l11.15 12 11.15-12 11.14 12 11.15-12 11.14 12 11.15-12 11.15 12 11.15-12 11.15 12 11.16-12"/></g><defs><clipPath id="fclip0"><path fill="#fff" d="M0 0h112.95v32.53H0z"/></clipPath></defs></svg><svg fill="none" viewBox="0 0 146 149" id="web" xmlns="http://www.w3.org/2000/svg"><g clip-path="url(#gclip0)"><path d="M148.081-28.577V-.299h20.314V26.78l-20.314-.078V54.98h-18.129V26.702l-20.396.039V-.338h20.423l-.027-28.239h18.129z" fill="#F24E3D"/></g><g clip-path="url(#gclip1)" stroke="#fff" stroke-width="2" stroke-miterlimit="10"><path d="M137.65 112.2c56.084 0 101.55-45.466 101.55-101.55 0-56.085-45.466-101.55-101.55-101.55C81.565-90.9 36.1-45.435 36.1 10.65c0 56.084 45.465 101.55 101.55 101.55z"/><path d="M189.706 136.989c69.78-28.747 103.044-108.62 74.297-178.4s-108.619-103.044-178.4-74.296C15.824-86.96-17.44-7.088 11.308 62.692s108.619 103.044 178.399 74.297z"/><path d="M137.65 129.75A119.098 119.098 0 0120.838-12.585 119.1 119.1 0 01256.75 10.65a119.239 119.239 0 01-119.1 119.1z"/><path d="M137.65 112.2c56.084 0 101.55-45.466 101.55-101.55 0-56.085-45.466-101.55-101.55-101.55C81.565-90.9 36.1-45.435 36.1 10.65c0 56.084 45.465 101.55 101.55 101.55z"/><path d="M137.65 93.37c45.685 0 82.72-37.035 82.72-82.72s-37.035-82.72-82.72-82.72-82.72 37.035-82.72 82.72 37.035 82.72 82.72 82.72z"/><path d="M137.65 76.11c36.152 0 65.46-29.307 65.46-65.46 0-36.153-29.308-65.46-65.46-65.46-36.153 0-65.46 29.307-65.46 65.46 0 36.153 29.307 65.46 65.46 65.46z"/></g><defs><clipPath id="gclip0"><path fill="#fff" transform="matrix(.57664 -.817 .57664 .817 100 14.114)" d="M0 0h67.567v67.567H0z"/></clipPath><clipPath id="gclip1"><path fill="#fff" transform="translate(0 -127)" d="M0 0h275.3v275.3H0z"/></clipPath></defs></svg></svg>