<?xml version="1.0" encoding="utf-8"?><svg viewBox="0 0 164 162" xmlns="http://www.w3.org/2000/svg" xmlns:xlink="http://www.w3.org/1999/xlink"><style>:root>svg{display:none}:root>svg:target{display:block}</style><svg viewBox="0 0 29 29" id="cross" xmlns="http://www.w3.org/2000/svg"><g clip-path="url(#aclip0)"><path d="M28.41 6.81l-7.31 7.31 7.44 7.44-7 7-7.42-7.46-7.31 7.31-6.64-6.64 7.31-7.31L0 7l7-7 7.48 7.48L21.77.17l6.64 6.64z"/></g><defs><clipPath id="aclip0"><path d="M0 0h28.54v28.54H0z"/></clipPath></defs></svg><svg fill="none" viewBox="0 0 65 64" id="css" xmlns="http://www.w3.org/2000/svg"><path d="M32.47 63.66c17.469 0 31.63-14.161 31.63-31.63S49.939.4 32.47.4.84 14.561.84 32.03s14.161 31.63 31.63 31.63z" fill="url(#bpaint0_linear)"/><path d="M23.63 34h2.55v.46c0 1.86-.34 3.07-1 3.61-.66.54-2.18.82-4.51.82-2.64 0-4.27-.43-4.87-1.29-.6-.86-.92-3.17-.92-6.93 0-2.21.42-3.66 1.24-4.36.82-.7 2.55-1 5.17-1 1.91 0 3.18.28 3.83.86.65.58 1 1.7 1 3.41v.3h-2.55v-.34c0-.88-.17-1.44-.5-1.69a4.43 4.43 0 00-2.26-.37c-1.58 0-2.52.2-2.84.58-.32.38-.48 1.53-.48 3.44 0 2.56.14 4.08.43 4.55.29.47 1.2.7 2.76.7a5 5 0 002.46-.39c.37-.26.56-.84.56-1.73l-.07-.63zM37.72 29.24h-2.48v-.28a2 2 0 00-.5-1.42 4.111 4.111 0 00-1.94-.28 5.37 5.37 0 00-2.36.33 1.51 1.51 0 00-.55 1.4c0 .85.15 1.35.45 1.52a10.53 10.53 0 003 .4c2 .11 3.28.39 3.87.85.59.46.88 1.41.88 2.85 0 1.78-.35 2.93-1 3.45s-2.2.78-4.54.78c-2.11 0-3.51-.25-4.2-.76-.69-.51-1-1.55-1-3.1v-.49h2.47v.28c0 .94.16 1.51.49 1.72a6.582 6.582 0 002.68.31 4.2 4.2 0 002.18-.36c.31-.24.47-.8.47-1.68a1.71 1.71 0 00-.36-1.29 2.84 2.84 0 00-1.55-.39l-1.4-.09c-2.12-.12-3.47-.41-4.06-.88-.59-.47-.88-1.46-.88-3s.35-2.6 1.06-3.12c.71-.52 2.13-.78 4.25-.78s3.37.23 4.07.71a3.18 3.18 0 011.05 2.8v.51l-.1.01zM49.75 29.24h-2.48a1.636 1.636 0 010-.28 2 2 0 00-.5-1.42 4.16 4.16 0 00-1.95-.28 5.32 5.32 0 00-2.35.33 1.51 1.51 0 00-.56 1.4c0 .85.15 1.35.45 1.52.976.276 1.986.41 3 .4 2 .11 3.28.39 3.87.85.59.46.87 1.41.87 2.85 0 1.78-.34 2.93-1 3.45-.66.52-2.2.78-4.54.78-2.1 0-3.5-.25-4.19-.76-.69-.51-1-1.55-1-3.1v-.49h2.48v.28c0 .94.16 1.51.49 1.72a6.48 6.48 0 002.67.31 4.15 4.15 0 002.18-.36c.31-.24.47-.8.47-1.68a1.71 1.71 0 00-.36-1.29 2.77 2.77 0 00-1.54-.39l-1.41-.09c-2.11-.12-3.47-.41-4.06-.88-.59-.47-.88-1.46-.88-3s.36-2.6 1.07-3.12c.71-.52 2.12-.78 4.25-.78s3.37.23 4.07.71a3.18 3.18 0 011.05 2.8v.51l-.1.01z" fill="#fff"/><defs><linearGradient id="bpaint0_linear" x1="19917.6" y1="13856.2" x2="23919.4" y2="13856.2" gradientUnits="userSpaceOnUse"><stop offset=".15" stop-color="#D4145A"/><stop offset="1" stop-color="#D44076"/></linearGradient></defs></svg><svg fill="none" viewBox="0 0 130 99" id="css-line" xmlns="http://www.w3.org/2000/svg"><path d="M72.49 34.73A172.001 172.001 0 00.62 6.91c0 .44-.08.89-.14 1.33a172.181 172.181 0 01127.33 90.14c.5 0 1-.06 1.49-.07a174.39 174.39 0 00-54.88-62.24" fill="url(#cpaint0_linear)"/><path d="M112.77 41.52a179.63 179.63 0 00-26.6-22.7l-2-1.37A176.775 176.775 0 0053.37.8c-.49.31-1 .6-1.49.87a176.6 176.6 0 0160.28 41.2c.21-.46.39-.87.61-1.35z" fill="url(#cpaint1_linear)"/><defs><linearGradient id="cpaint0_linear" x1="47983.3" y1="8572.16" x2="64577.9" y2="8572.16" gradientUnits="userSpaceOnUse"><stop offset=".15" stop-color="#D4145A"/><stop offset="1" stop-color="#D44076"/></linearGradient><linearGradient id="cpaint1_linear" x1="23337.4" y1="2644.06" x2="31373.1" y2="2644.06" gradientUnits="userSpaceOnUse"><stop offset=".15" stop-color="#D4145A"/><stop offset="1" stop-color="#D44076"/></linearGradient></defs></svg><svg fill="none" viewBox="0 0 32 162" id="dots(16)" xmlns="http://www.w3.org/2000/svg"><g clip-path="url(#dclip0)" fill="#fff"><path d="M28.76 5.21a2.61 2.61 0 110-5.22 2.61 2.61 0 010 5.22zM28.76 27.57a2.6 2.6 0 11.02-5.2 2.6 2.6 0 01-.02 5.2zM28.76 49.94a2.6 2.6 0 11.02-5.2 2.6 2.6 0 01-.02 5.2zM28.76 72.31a2.61 2.61 0 110-5.221 2.61 2.61 0 010 5.221zM28.76 94.07a2.61 2.61 0 110-5.221 2.61 2.61 0 010 5.221zM28.76 116.44a2.608 2.608 0 01-2.56-3.119 2.61 2.61 0 112.56 3.119zM28.76 138.8a2.599 2.599 0 11.02-5.198 2.599 2.599 0 01-.02 5.198zM28.76 161.17a2.599 2.599 0 11.02-5.198 2.599 2.599 0 01-.02 5.198zM2.6 5.21a2.61 2.61 0 110-5.22 2.61 2.61 0 010 5.22zM2.6 27.57a2.6 2.6 0 11.02-5.2 2.6 2.6 0 01-.02 5.2zM2.6 49.94a2.6 2.6 0 11.02-5.2 2.6 2.6 0 01-.02 5.2zM2.6 72.31a2.61 2.61 0 110-5.22 2.61 2.61 0 010 5.22zM2.6 94.07a2.61 2.61 0 110-5.22 2.61 2.61 0 010 5.22zM2.6 116.44a2.608 2.608 0 01-2.56-3.119 2.609 2.609 0 015.17.509 2.612 2.612 0 01-2.61 2.61zM2.6 138.8a2.6 2.6 0 11.02-5.199 2.6 2.6 0 01-.02 5.199zM2.6 161.17a2.6 2.6 0 11.02-5.199 2.6 2.6 0 01-.02 5.199z"/></g><defs><clipPath id="dclip0"><path fill="#fff" d="M0 0h31.37v161.17H0z"/></clipPath></defs></svg><svg fill="none" viewBox="0 0 58 65" id="html" xmlns="http://www.w3.org/2000/svg"><path d="M.92 2.49L5.11 56a2 2 0 001.38 1.73l22 7c.386.13.804.13 1.19 0l22-7A2 2 0 0053.1 56l4.18-53.54a2 2 0 00-2-2.13H2.9A2 2 0 00.92 2.49zM46.55 19.1H19.28l.82 7.59H46l-1.69 21.64-15.17 4.81-15.16-4.81L13.06 37h8v5.55l8.3 2.23 8.25-2.23.64-8.84H12.8l-1.69-21.58h36l-.56 6.97z" fill="url(#epaint0_linear)"/><defs><linearGradient id="epaint0_linear" x1="29027.3" y1="26612.1" x2="32204.9" y2="26612.1" gradientUnits="userSpaceOnUse"><stop offset=".09" stop-color="#F7931E"/><stop offset="1" stop-color="#FFA640"/></linearGradient></defs></svg><svg fill="none" viewBox="0 0 158 87" id="html-line" xmlns="http://www.w3.org/2000/svg"><path d="M80.56 43.26A235.451 235.451 0 00.78 21.4c.22.48.44 1 .63 1.46a235.09 235.09 0 01140.18 64c.71 0 1.42.06 2.13.14a238.087 238.087 0 00-60.41-42.46" fill="url(#fpaint0_linear)"/><path d="M69.92 15.07A250.64 250.64 0 005.48.46c.24.5.47 1 .68 1.55A249.159 249.159 0 0169.81 16.6c.02-.51.05-1.02.11-1.53z" fill="url(#fpaint1_linear)"/><path d="M109.84 34a22 22 0 01-1.08 1.08 252.999 252.999 0 0146.8 35.2c.762.01 1.523.06 2.28.15a254.809 254.809 0 00-48-36.43z" fill="url(#fpaint2_linear)"/><defs><linearGradient id="fpaint0_linear" x1="80587.5" y1="13485.8" x2="101019" y2="13485.8" gradientUnits="userSpaceOnUse"><stop offset=".09" stop-color="#F7931E"/><stop offset="1" stop-color="#FFA640"/></linearGradient><linearGradient id="fpaint1_linear" x1="36638.3" y1="2575.27" x2="46456.4" y2="2575.27" gradientUnits="userSpaceOnUse"><stop offset=".09" stop-color="#F7931E"/><stop offset="1" stop-color="#FFA640"/></linearGradient><linearGradient id="fpaint2_linear" x1="28009.8" y1="7436.57" x2="35487.6" y2="7436.57" gradientUnits="userSpaceOnUse"><stop offset=".09" stop-color="#F7931E"/><stop offset="1" stop-color="#FFA640"/></linearGradient></defs></svg><svg fill="none" viewBox="0 0 38 39" id="jquery" xmlns="http://www.w3.org/2000/svg"><path fill-rule="evenodd" clip-rule="evenodd" d="M37.17 28.63l-.17.44c-2.87 5.59-8 9-15.22 9.18A21.23 21.23 0 0113 36.5a22.57 22.57 0 01-10.48-9.9c-3-5.82-3.55-13.91 2.7-20 .09 0-.76 1.31-.66 1.31l-.18.56c-4.5 14.09 9.37 26.16 22.84 24.78a17.771 17.771 0 009.91-4.67l.04.05z" fill="#F24E3D"/><path fill-rule="evenodd" clip-rule="evenodd" d="M29 22.81a12.9 12.9 0 009-3.79c-1.84 4.66-7.15 7.65-14.27 6.7-6-.8-11.65-6.8-12.23-12.81-.43-4.38 1.09-7 3.61-10.16a10.59 10.59 0 00-1.28 3.75c-1 9.47 7.56 16.26 15.14 16.31H29z" fill="#F24E3D"/><path fill-rule="evenodd" clip-rule="evenodd" d="M37.7 11.05c-.53 1.21-3.56 3.49-4.9 3.78a9.35 9.35 0 01-10.49-4.25c-.325-.61-.606-1.24-.84-1.89-.69-2.35-.37-5.9 1.69-7.74a9.66 9.66 0 00-.39 5.1 11.38 11.38 0 001.41 3.07 8.07 8.07 0 003.2 2.83c.51.31 1.05.567 1.61.77 1.34.39 4.16 1.43 8.71-1.67z" fill="#F24E3D"/></svg><svg fill="none" viewBox="0 0 102 105" id="jquery-line" xmlns="http://www.w3.org/2000/svg"><path d="M55.23 59.94A145.718 145.718 0 00101.48 88c.15-.51.31-1 .5-1.52a144 144 0 01-46.75-28.73l-.41-.35-.42-.4A132.77 132.77 0 0118.28.2c-.51.24-1 .48-1.53.69a134.37 134.37 0 0036.83 57.56l1.65 1.49z" fill="#F24E3D"/><path d="M43.43 72.92a164.391 164.391 0 0052.22 31.68c.17-.57.34-1.15.56-1.71a162.36 162.36 0 01-52.78-32.43l-.46-.4-.47-.48A149.811 149.811 0 011.73 5.46C1.15 5.73.58 6 0 6.24a151.66 151.66 0 0041.57 65l1.86 1.68z" fill="#F24E3D"/></svg><svg fill="none" viewBox="0 0 28 28" id="js" xmlns="http://www.w3.org/2000/svg"><path d="M23.29.35H4.43A4.04 4.04 0 00.39 4.39v18.86a4.04 4.04 0 004.04 4.04h18.86a4.04 4.04 0 004.04-4.04V4.39A4.04 4.04 0 0023.29.35z" fill="#77C4D3"/><path d="M17.44 19.82a2.72 2.72 0 002.47 1.52c1.06 0 1.74-.53 1.74-1.26s-.68-1.16-1.84-1.69l-.63-.26c-1.84-.79-3.05-1.73-3.05-3.79a3.38 3.38 0 013.68-3.36 3.65 3.65 0 013.58 2l-1.95 1.26a1.7 1.7 0 00-1.63-1.1 1.1 1.1 0 00-1.21 1.1c0 .74.47 1.05 1.58 1.53l.63.26c2.16.95 3.37 1.84 3.37 4s-1.79 3.52-4.21 3.52a4.84 4.84 0 01-4.63-2.57l2.1-1.16zm-8.94.21c.42.68.73 1.31 1.63 1.31.9 0 1.37-.31 1.37-1.58V11H14v8.63c0 2.63-1.52 3.79-3.79 3.79a3.89 3.89 0 01-3.79-2.32l2.08-1.07z" fill="#fff"/></svg><svg fill="none" viewBox="0 0 108 103" id="js-line" xmlns="http://www.w3.org/2000/svg"><path d="M28.58 56.29A115.46 115.46 0 01.23 69.1c.2.41.41.82.6 1.24a116.711 116.711 0 0028.6-13c-.3-.34-.58-.68-.85-1.05zM36.87 69.52A131.417 131.417 0 014.71 84c.24.46.48.93.69 1.41A132.68 132.68 0 0037.83 70.7c-.34-.35-.66-.76-.96-1.18zM46.21 84.44a148.474 148.474 0 01-36.44 16.45c.27.53.54 1.05.78 1.59A149.696 149.696 0 0047.3 85.82c-.38-.45-.74-.91-1.09-1.38zM63.28 25.3a117.234 117.234 0 0013-24c-.44-.13-.88-.26-1.32-.41a115.38 115.38 0 01-12.79 23.54c.4.3.76.57 1.11.87zM76.21 34.38A133.118 133.118 0 0091 7.18c-.5-.15-1-.28-1.5-.46A131.423 131.423 0 0175 33.42c.41.3.81.63 1.21.96zM90.79 44.61a150.72 150.72 0 0016.75-30.82c-.57-.16-1.14-.32-1.69-.52a149.15 149.15 0 01-16.44 30.26c.47.34.93.71 1.38 1.08z" fill="#77C4D3"/></svg><svg fill="none" viewBox="0 0 9 9" id="plus" xmlns="http://www.w3.org/2000/svg"><g clip-path="url(#kclip0)"><path d="M8.959 2.148L6.654 4.453 9 6.799 6.793 9.006l-2.34-2.352-2.305 2.305L.054 6.865 2.359 4.56 0 2.207 2.207 0l2.36 2.359L6.864.054 8.96 2.148z" fill="#F24E3D"/></g><defs><clipPath id="kclip0"><path fill="#fff" d="M0 0h9v9H0z"/></clipPath></defs></svg><svg fill="none" viewBox="0 0 91 146" id="round(dots)" xmlns="http://www.w3.org/2000/svg"><g clip-path="url(#lclip0)"><path d="M3.92 82.939c0-.381-.115-.753-.33-1.07a1.958 1.958 0 00-.883-.71 2.004 2.004 0 00-1.136-.109 1.979 1.979 0 00-1.006.527c-.275.27-.463.613-.538.986a1.89 1.89 0 00.111 1.113c.15.352.401.653.724.864a1.995 1.995 0 002.483-.24c.368-.36.575-.85.575-1.361zM20.84 82.939c0-.381-.115-.753-.331-1.07a1.958 1.958 0 00-.882-.71 2.004 2.004 0 00-1.136-.109 1.98 1.98 0 00-1.007.527c-.275.27-.462.613-.538.986a1.89 1.89 0 00.112 1.113c.149.352.4.653.724.864a1.995 1.995 0 002.482-.24c.369-.36.576-.85.576-1.361zM37.749 82.939a1.903 1.903 0 00-.33-1.074 1.963 1.963 0 00-.883-.714 2.009 2.009 0 00-2.15.415 1.92 1.92 0 00-.542.989c-.077.374-.038.763.111 1.116.15.353.402.655.726.868a2.001 2.001 0 002.488-.238c.37-.361.578-.85.58-1.362zM54.651 82.939c0-.381-.115-.753-.33-1.07a1.958 1.958 0 00-.883-.71 2.004 2.004 0 00-1.136-.109 1.98 1.98 0 00-1.006.527c-.275.27-.462.613-.538.986a1.89 1.89 0 00.111 1.113c.15.352.401.653.724.864a1.995 1.995 0 002.483-.24c.368-.36.575-.85.575-1.361zM3.92 67.231c0-.38-.115-.753-.33-1.07a1.957 1.957 0 00-.883-.709 2.004 2.004 0 00-2.142.418c-.275.269-.463.612-.538.986a1.89 1.89 0 00.111 1.112c.15.352.401.653.724.864a1.995 1.995 0 002.483-.24c.368-.36.575-.85.575-1.36zM20.84 67.231c0-.38-.115-.753-.331-1.07a1.957 1.957 0 00-.882-.709 2.004 2.004 0 00-2.143.418c-.275.269-.462.612-.538.986a1.89 1.89 0 00.112 1.112c.149.352.4.653.724.864a1.995 1.995 0 002.482-.24c.369-.36.576-.85.576-1.36zM37.749 67.231a1.903 1.903 0 00-.33-1.074 1.963 1.963 0 00-.883-.714 2.01 2.01 0 00-2.15.415 1.92 1.92 0 00-.542.989c-.077.375-.038.763.111 1.117.15.353.402.655.726.867a2 2 0 002.488-.238c.37-.36.578-.85.58-1.362zM54.651 67.231c0-.38-.115-.753-.33-1.07a1.957 1.957 0 00-.883-.709 2.004 2.004 0 00-2.142.418c-.275.269-.462.612-.538.986a1.89 1.89 0 00.111 1.112c.15.352.401.653.724.864a1.995 1.995 0 002.483-.24c.368-.36.575-.85.575-1.36zM3.92 51.53c0-.382-.115-.754-.33-1.07a1.957 1.957 0 00-.883-.71 2.004 2.004 0 00-2.142.417c-.275.27-.463.613-.538.986-.076.374-.037.761.111 1.113.15.352.401.653.724.864a1.995 1.995 0 002.481-.24c.368-.362.576-.85.577-1.36zM20.84 51.53c0-.382-.115-.754-.331-1.07a1.957 1.957 0 00-.882-.71 2.004 2.004 0 00-2.143.417c-.275.27-.462.613-.538.986a1.89 1.89 0 00.112 1.113c.149.352.4.653.724.864a1.995 1.995 0 002.48-.24c.37-.362.577-.85.578-1.36zM37.749 51.53a1.903 1.903 0 00-.33-1.075 1.963 1.963 0 00-.883-.714 2.01 2.01 0 00-1.14-.112 1.985 1.985 0 00-1.01.527 1.92 1.92 0 00-.542.989c-.077.375-.038.763.111 1.116.15.354.402.655.726.868a2.001 2.001 0 002.487-.24c.369-.36.578-.85.58-1.36zM54.651 51.53c0-.382-.115-.754-.33-1.07a1.957 1.957 0 00-.883-.71 2.004 2.004 0 00-2.142.417c-.275.27-.462.613-.538.986a1.89 1.89 0 00.111 1.113c.15.352.401.653.724.864a1.995 1.995 0 002.481-.24c.369-.362.576-.85.578-1.36zM3.92 35.822c0-.381-.115-.754-.33-1.07a1.958 1.958 0 00-.883-.71 2.004 2.004 0 00-1.136-.11 1.978 1.978 0 00-1.006.528c-.275.27-.463.612-.538.986a1.89 1.89 0 00.111 1.112c.15.352.401.653.724.865a1.994 1.994 0 002.483-.24c.368-.361.575-.85.575-1.361zM20.84 35.822c0-.381-.115-.754-.331-1.07a1.958 1.958 0 00-.882-.71 2.004 2.004 0 00-1.136-.11 1.978 1.978 0 00-1.007.528c-.275.27-.462.612-.538.986a1.89 1.89 0 00.112 1.112c.149.352.4.653.724.865a1.995 1.995 0 002.482-.24c.369-.361.576-.85.576-1.361zM37.749 35.822a1.904 1.904 0 00-.33-1.075 1.963 1.963 0 00-.883-.714 2.01 2.01 0 00-2.15.415 1.92 1.92 0 00-.542.99c-.077.374-.038.762.111 1.116.15.353.402.655.726.867a2 2 0 002.488-.237c.37-.361.578-.851.58-1.362zM54.651 35.822c0-.381-.115-.754-.33-1.07a1.958 1.958 0 00-.883-.71 2.004 2.004 0 00-1.136-.11 1.978 1.978 0 00-1.006.528c-.275.27-.462.612-.538.986a1.89 1.89 0 00.111 1.112c.15.352.401.653.724.865a1.995 1.995 0 002.483-.24c.368-.361.575-.85.575-1.361zM3.92 144.074c0-.381-.116-.754-.332-1.071a1.954 1.954 0 00-.884-.709 1.988 1.988 0 00-2.144.422c-.274.271-.46.615-.535.989a1.89 1.89 0 00.116 1.114c.15.351.404.651.73.862a1.999 1.999 0 002.477-.249c.366-.361.572-.849.572-1.358zM20.84 144.074c0-.381-.115-.753-.331-1.07a1.963 1.963 0 00-.882-.709 1.996 1.996 0 00-2.143.418 1.911 1.911 0 00-.538.986c-.076.373-.037.76.112 1.112.149.352.4.653.724.864a1.992 1.992 0 002.482-.239c.369-.361.576-.851.576-1.362zM37.749 144.074a1.902 1.902 0 00-.33-1.074 1.966 1.966 0 00-.883-.714 2.009 2.009 0 00-2.15.415 1.92 1.92 0 00-.542.989c-.077.375-.038.763.111 1.117.15.353.402.655.726.867.325.213.706.326 1.096.326.522 0 1.023-.203 1.392-.564.37-.361.578-.85.58-1.362zM54.651 144.074c0-.381-.115-.753-.33-1.07a1.963 1.963 0 00-.883-.709 1.996 1.996 0 00-2.142.418 1.911 1.911 0 00-.538.986c-.076.373-.037.76.111 1.112.15.352.401.653.724.864a1.992 1.992 0 002.483-.239c.368-.361.575-.851.575-1.362zM3.92 128.367c0-.381-.115-.754-.33-1.07a1.959 1.959 0 00-.883-.71 2.013 2.013 0 00-1.136-.109 1.979 1.979 0 00-1.006.527 1.891 1.891 0 00-.426 2.099c.148.351.4.652.723.864a2 2 0 002.483-.24c.368-.361.575-.851.575-1.361zM20.84 128.367c0-.381-.115-.754-.331-1.07a1.959 1.959 0 00-.882-.71 2.013 2.013 0 00-1.136-.109 1.98 1.98 0 00-1.007.527 1.891 1.891 0 00-.426 2.099c.149.351.4.652.724.864a2 2 0 002.482-.24c.369-.361.576-.851.576-1.361zM37.749 128.367a1.905 1.905 0 00-.33-1.075 1.973 1.973 0 00-.883-.714 2.009 2.009 0 00-1.14-.112 1.986 1.986 0 00-1.01.528 1.896 1.896 0 00-.43 2.105c.148.353.401.655.725.868a2.004 2.004 0 002.488-.238c.37-.361.578-.851.58-1.362zM54.651 128.367c0-.381-.115-.754-.33-1.07a1.959 1.959 0 00-.883-.71 2.013 2.013 0 00-1.136-.109 1.98 1.98 0 00-1.006.527 1.891 1.891 0 00-.426 2.099c.148.351.4.652.723.864a2 2 0 002.483-.24c.368-.361.575-.851.575-1.361zM3.92 112.659a1.9 1.9 0 00-.334-1.069 1.963 1.963 0 00-.883-.706 2.003 2.003 0 00-1.135-.108c-.381.075-.731.259-1.005.529a1.89 1.89 0 00-.424 2.098c.149.351.4.652.724.863a1.998 1.998 0 002.484-.242 1.913 1.913 0 00.573-1.365zM20.84 112.659a1.899 1.899 0 00-.334-1.069 1.963 1.963 0 00-.883-.706 2.003 2.003 0 00-1.136-.108c-.38.075-.73.259-1.005.529a1.89 1.89 0 00-.424 2.098c.15.351.401.652.725.863a1.998 1.998 0 002.483-.242 1.914 1.914 0 00.574-1.365zM37.749 112.659c0-.382-.116-.755-.333-1.073a1.998 1.998 0 00-3.033-.293c-.276.27-.463.614-.54.989-.076.375-.036.763.113 1.116.149.353.402.654.726.867a2.002 2.002 0 002.49-.241 1.91 1.91 0 00.577-1.365zM54.651 112.659a1.899 1.899 0 00-.334-1.069 1.963 1.963 0 00-.883-.706 2.003 2.003 0 00-1.135-.108c-.381.075-.731.259-1.005.529a1.89 1.89 0 00-.424 2.098c.149.351.4.652.724.863a1.998 1.998 0 002.484-.242 1.914 1.914 0 00.573-1.365zM3.92 96.957c0-.381-.115-.753-.33-1.07a1.957 1.957 0 00-.883-.71 2.004 2.004 0 00-2.142.418c-.275.27-.463.612-.538.986a1.89 1.89 0 00.111 1.113c.15.352.401.652.724.864a1.995 1.995 0 002.483-.24c.368-.36.575-.85.575-1.361zM20.84 96.957c0-.381-.115-.753-.331-1.07a1.957 1.957 0 00-.882-.71 2.004 2.004 0 00-2.143.418c-.275.27-.462.612-.538.986a1.89 1.89 0 00.112 1.113c.149.352.4.652.724.864a1.995 1.995 0 002.482-.24c.369-.36.576-.85.576-1.361zM37.749 96.957a1.903 1.903 0 00-.33-1.075 1.963 1.963 0 00-.883-.713 2.01 2.01 0 00-1.14-.113 1.985 1.985 0 00-1.01.528 1.92 1.92 0 00-.542.988c-.077.375-.038.764.111 1.117.15.353.402.655.726.868a2.001 2.001 0 002.488-.238c.37-.361.578-.851.58-1.362zM54.651 96.957c0-.381-.115-.753-.33-1.07a1.957 1.957 0 00-.883-.71 2.004 2.004 0 00-2.142.418c-.275.27-.462.612-.538.986a1.89 1.89 0 00.111 1.113c.15.352.401.652.724.864a1.995 1.995 0 002.483-.24c.368-.36.575-.85.575-1.361z" fill="#060000"/><path d="M82.023 11.558a29.607 29.607 0 010 42.48c-11.975 11.73-31.39 11.73-43.365 0a29.607 29.607 0 010-42.48c11.975-11.73 31.39-11.73 43.365 0z" fill="#F24E3D"/></g><defs><clipPath id="lclip0"><path fill="#fff" transform="matrix(1 0 0 -1 0 146)" d="M0 0h91v146H0z"/></clipPath></defs></svg><svg fill="none" viewBox="0 0 47 39" id="sass" xmlns="http://www.w3.org/2000/svg"><path d="M40.2 23.41c-.73.28-.7.28-1.08-.42a6.14 6.14 0 01-.78-2.84 6.61 6.61 0 01.52-2.49c.24-.63-.07-.85-.62-.91a6.115 6.115 0 00-1.21 0c-1 .11-1.14.2-1.42 1.21-.13.607-.322 1.2-.57 1.77-.67 1.4-1.43 2.75-2.21 4.09-.125.254-.28.492-.46.71a5.31 5.31 0 01-.83-2.77 7.118 7.118 0 01.58-2.77.44.44 0 00-.24-.62 1.33 1.33 0 00-.37-.12 5.81 5.81 0 00-2 .14.69.69 0 00-.55.57 8.141 8.141 0 01-.59 1.87l-2.22 5c-.64 1.45-1.28 2.9-2 4.29-.05.1-.1.27-.23.24-.13-.03-.09-.2-.1-.32a8.33 8.33 0 01.37-2.38c.3-1.24.63-2.48.95-3.71a.62.62 0 00-.35-.76 1.07 1.07 0 00-1.3.08c.064-.46.084-.926.06-1.39a1.66 1.66 0 00-1.3-1.77 2.64 2.64 0 00-1.65.31 8.28 8.28 0 00-3 2.48 1.002 1.002 0 01-.33.31c-1.54.84-3.07 1.67-4.6 2.52a.28.28 0 01-.4-.06 22.311 22.311 0 00-2.55-2.21c-1.28-.896-2.48-1.9-3.59-3a5.79 5.79 0 01-1.41-2.34 5.37 5.37 0 01.6-4.16 12.36 12.36 0 013.46-3.81 33.189 33.189 0 017.08-4.13 20.09 20.09 0 018.86-1.91 7.77 7.77 0 013.53.87 2.58 2.58 0 011.44 1.95 4.78 4.78 0 01-.55 3 11.61 11.61 0 01-4.71 4.71 15.68 15.68 0 01-5.31 1.88 9.68 9.68 0 01-3.13.13 4.85 4.85 0 01-3.13-1.55.28.28 0 00-.37-.11c-.17.08-.16.22-.14.36.013.099.036.196.07.29A3.39 3.39 0 0013.5 17a6.74 6.74 0 004.3 1.35c1.52.017 3.034-.158 4.51-.52a13.62 13.62 0 008.2-5.26 9 9 0 001.93-5.66 4.92 4.92 0 00-1.48-3.5 8.17 8.17 0 00-4.17-2.07 15.37 15.37 0 00-5.24-.23 21.59 21.59 0 00-4.49 1A39.699 39.699 0 0010.6 5a27.31 27.31 0 00-5.86 4.21 14 14 0 00-3.63 5.19 4.82 4.82 0 00-.34 2.73 7.81 7.81 0 001.67 3.23 21.171 21.171 0 004.18 3.66c1.21.87 2.48 1.67 3.65 2.61.33.26.33.26-.06.47-.39.21-.92.46-1.36.72a19.418 19.418 0 00-5 3.66 5.57 5.57 0 00-1.4 2.54 24.002 24.002 0 004.1 4.67 7.93 7.93 0 006.19-3.87 8.08 8.08 0 001.19-3.67 8.67 8.67 0 00-.35-3.4c-.06-.19-.28-.39-.19-.56.09-.17.32-.24.5-.34l2.2-1.27a.65.65 0 01-.06.36 10.47 10.47 0 00-.4 4.78 6.65 6.65 0 001.18 2.81 1.81 1.81 0 002.73 0A12.844 12.844 0 0020.9 31c.22-.46.42-.93.62-1.39-.035.55-.035 1.1 0 1.65a3.22 3.22 0 00.38 1.54 1.13 1.13 0 001.56.43 3.44 3.44 0 001.36-1.42 65.333 65.333 0 003.8-7.63l.72-1.74c0 .21.07.33.09.46a11.82 11.82 0 001.29 3.55.51.51 0 010 .64c-.57.77-1.19 1.5-1.81 2.24a19.653 19.653 0 00-1.51 1.9.84.84 0 00.49 1.38c.203.045.412.065.62.06a6.55 6.55 0 003.17-.92 3.65 3.65 0 002.07-3.42 5.471 5.471 0 00-.5-2.06.37.37 0 010-.39 38.614 38.614 0 002.47-4.09 3.48 3.48 0 01.43-.77c0 .1.06.16.07.22a10.79 10.79 0 001.15 3.36c.16.29.08.44-.14.63a8.92 8.92 0 00-2 2.32 4.31 4.31 0 00-.67 2.23A1.19 1.19 0 0036.12 31a6.88 6.88 0 002.52-1.15c1.66-1.21 2.14-2.49 1.62-4.27-.2-.7-.2-.69.51-.9 1.517-.44 3.117-.52 4.67-.23l.53.1c.09-.56.16-1.12.21-1.7a10 10 0 00-5.98.56zM7.66 36a3.24 3.24 0 01-1.38.19 1.06 1.06 0 01-1-1.09 3.91 3.91 0 01.48-2 8.27 8.27 0 012.53-2.7 28.921 28.921 0 013-2c.31-.18.32-.18.39.19.107.462.157.936.15 1.41a6.49 6.49 0 01-4.17 6zM22 22.71a15.481 15.481 0 01-.91 3.21c-.52 1.42-1 2.85-1.7 4.22a3.4 3.4 0 01-.55.89c-.23.24-.44.21-.6-.08a4.27 4.27 0 01-.32-1.7 9.73 9.73 0 012.1-6 2.65 2.65 0 011.44-1c.41-.13.6.03.54.46zm9.1 7a4.34 4.34 0 01-1.87 1.73c-.08 0-.19.12-.27 0-.08-.12.05-.16.1-.21.78-.86 1.55-1.72 2.25-2.65h.09a2.22 2.22 0 01-.31 1.09l.01.04zm5.4 0c-.11.06-.25.16-.36.07-.11-.09-.08-.27 0-.4a7.158 7.158 0 01.75-1.7 6.08 6.08 0 011-1.2c.15-.15.22-.13.27.08.045.214.065.432.06.65a2.63 2.63 0 01-1.73 2.43l.01.07z" fill="#8CC63F"/></svg><svg fill="none" viewBox="0 0 103 105" id="scss-line" xmlns="http://www.w3.org/2000/svg"><path d="M56 60.05a145.72 145.72 0 0046.25 28.07c.16-.51.31-1 .5-1.52A144 144 0 0156 57.87l-.41-.35-.42-.44A132.68 132.68 0 0119 .29c-.5.23-1 .48-1.53.69A134.37 134.37 0 0054.3 58.54l1.7 1.51z" fill="#8CC63F"/><path d="M44.19 73a164.39 164.39 0 0052.22 31.68c.17-.57.34-1.15.56-1.71a162.529 162.529 0 01-52.78-32.43l-.46-.4-.47-.48A149.81 149.81 0 012.49 5.54c-.58.27-1.14.54-1.73.78a151.66 151.66 0 0041.57 65L44.19 73z" fill="#8CC63F"/></svg><svg fill="none" viewBox="0 0 106 57" id="semicircle" xmlns="http://www.w3.org/2000/svg"><path d="M104.938 28.496a27.395 27.395 0 01-4.633 15.25 27.496 27.496 0 01-12.346 10.111 27.576 27.576 0 01-15.897 1.566 27.535 27.535 0 01-14.09-7.51 27.424 27.424 0 01-7.531-14.051 27.38 27.38 0 011.564-15.859A27.46 27.46 0 0162.138 5.685 27.562 27.562 0 0177.425 1.06" stroke="#F24E3D" stroke-width="2.5" stroke-miterlimit="10"/><path d="M.45 44.218l12.924-12.891M11.717 44.218l12.924-12.891M22.984 44.218l12.924-12.891M34.252 44.218l12.932-12.891M45.518 44.218l12.933-12.891M56.794 44.218l12.924-12.891M68.061 44.218l12.924-12.891" stroke="#fff" stroke-width="1.5" stroke-miterlimit="10"/></svg><svg fill="none" viewBox="0 0 164 88" id="semicircle(big)" xmlns="http://www.w3.org/2000/svg"><path d="M162.357 43.993a42.235 42.235 0 01-7.168 23.544 42.526 42.526 0 01-19.101 15.611 42.75 42.75 0 01-24.595 2.417 42.628 42.628 0 01-21.8-11.593A42.311 42.311 0 0178.04 52.278a42.19 42.19 0 012.42-24.483A42.414 42.414 0 0196.138 8.777c7.001-4.656 15.231-7.141 23.651-7.141" stroke="#F24E3D" stroke-width="2.5" stroke-miterlimit="10"/><path d="M.697 68.267l19.995-19.903M18.129 68.267l19.995-19.903M35.56 68.267l19.996-19.903M52.993 68.267L73 48.364M70.425 68.267l20.008-19.903M87.87 68.267l19.995-19.903M105.302 68.267l19.995-19.903" stroke="#fff" stroke-width="1.5" stroke-miterlimit="10"/></svg><svg fill="none" viewBox="0 0 164 88" id="semicircle--black" xmlns="http://www.w3.org/2000/svg"><path d="M162.357 43.993a42.235 42.235 0 01-7.168 23.544 42.526 42.526 0 01-19.101 15.611 42.75 42.75 0 01-24.595 2.417 42.628 42.628 0 01-21.8-11.593A42.31 42.31 0 0178.04 52.278a42.19 42.19 0 012.42-24.483A42.414 42.414 0 0196.138 8.777c7.001-4.656 15.231-7.141 23.651-7.141" stroke="#F24E3D" stroke-width="2.5" stroke-miterlimit="10"/><path d="M.697 68.267l19.995-19.903M18.129 68.267l19.995-19.903M35.56 68.267l19.996-19.903M52.993 68.267L73 48.364M70.425 68.267l20.008-19.903M87.87 68.267l19.995-19.903M105.302 68.267l19.995-19.903" stroke="#060000" stroke-width="1.5" stroke-miterlimit="10"/></svg><svg fill="none" viewBox="0 0 113 33" id="wawe" xmlns="http://www.w3.org/2000/svg"><g clip-path="url(#rclip0)" stroke="#fff" stroke-width="2" stroke-miterlimit="10"><path d="M1 0l11.15 12L23.3 0l11.14 12L45.59 0l11.14 12L67.88 0l11.15 12L90.18 0l11.15 12 11.16-12M.73 19.06l11.15 12 11.15-12 11.14 12 11.15-12 11.14 12 11.15-12 11.15 12 11.15-12 11.15 12 11.16-12"/></g><defs><clipPath id="rclip0"><path fill="#fff" d="M0 0h112.95v32.53H0z"/></clipPath></defs></svg><svg fill="none" viewBox="0 0 146 149" id="web" xmlns="http://www.w3.org/2000/svg"><g clip-path="url(#sclip0)"><path d="M148.081-28.577V-.299h20.314V26.78l-20.314-.078V54.98h-18.129V26.702l-20.396.039V-.338h20.423l-.027-28.239h18.129z" fill="#F24E3D"/></g><g clip-path="url(#sclip1)" stroke="#fff" stroke-width="2" stroke-miterlimit="10"><path d="M137.65 112.2c56.084 0 101.55-45.466 101.55-101.55 0-56.085-45.466-101.55-101.55-101.55C81.565-90.9 36.1-45.435 36.1 10.65c0 56.084 45.465 101.55 101.55 101.55z"/><path d="M189.706 136.989c69.78-28.747 103.044-108.62 74.297-178.4s-108.619-103.044-178.4-74.296C15.824-86.96-17.44-7.088 11.308 62.692s108.619 103.044 178.399 74.297z"/><path d="M137.65 129.75A119.098 119.098 0 0120.838-12.585 119.1 119.1 0 01256.75 10.65a119.239 119.239 0 01-119.1 119.1z"/><path d="M137.65 112.2c56.084 0 101.55-45.466 101.55-101.55 0-56.085-45.466-101.55-101.55-101.55C81.565-90.9 36.1-45.435 36.1 10.65c0 56.084 45.465 101.55 101.55 101.55z"/><path d="M137.65 93.37c45.685 0 82.72-37.035 82.72-82.72s-37.035-82.72-82.72-82.72-82.72 37.035-82.72 82.72 37.035 82.72 82.72 82.72z"/><path d="M137.65 76.11c36.152 0 65.46-29.307 65.46-65.46 0-36.153-29.308-65.46-65.46-65.46-36.153 0-65.46 29.307-65.46 65.46 0 36.153 29.307 65.46 65.46 65.46z"/></g><defs><clipPath id="sclip0"><path fill="#fff" transform="matrix(.57664 -.817 .57664 .817 100 14.114)" d="M0 0h67.567v67.567H0z"/></clipPath><clipPath id="sclip1"><path fill="#fff" transform="translate(0 -127)" d="M0 0h275.3v275.3H0z"/></clipPath></defs></svg></svg>