<?xml version="1.0" encoding="utf-8"?><svg viewBox="0 0 146 162" xmlns="http://www.w3.org/2000/svg" xmlns:xlink="http://www.w3.org/1999/xlink"><style>:root>svg{display:none}:root>svg:target{display:block}</style><svg fill="none" viewBox="0 0 32 162" id="dots(16)" xmlns="http://www.w3.org/2000/svg"><g clip-path="url(#aclip0)" fill="#fff"><path d="M28.76 5.21a2.61 2.61 0 110-5.22 2.61 2.61 0 010 5.22zM28.76 27.57a2.6 2.6 0 11.02-5.2 2.6 2.6 0 01-.02 5.2zM28.76 49.94a2.6 2.6 0 11.02-5.2 2.6 2.6 0 01-.02 5.2zM28.76 72.31a2.61 2.61 0 110-5.221 2.61 2.61 0 010 5.221zM28.76 94.07a2.61 2.61 0 110-5.221 2.61 2.61 0 010 5.221zM28.76 116.44a2.608 2.608 0 01-2.56-3.119 2.61 2.61 0 112.56 3.119zM28.76 138.8a2.599 2.599 0 11.02-5.198 2.599 2.599 0 01-.02 5.198zM28.76 161.17a2.599 2.599 0 11.02-5.198 2.599 2.599 0 01-.02 5.198zM2.6 5.21a2.61 2.61 0 110-5.22 2.61 2.61 0 010 5.22zM2.6 27.57a2.6 2.6 0 11.02-5.2 2.6 2.6 0 01-.02 5.2zM2.6 49.94a2.6 2.6 0 11.02-5.2 2.6 2.6 0 01-.02 5.2zM2.6 72.31a2.61 2.61 0 110-5.22 2.61 2.61 0 010 5.22zM2.6 94.07a2.61 2.61 0 110-5.22 2.61 2.61 0 010 5.22zM2.6 116.44a2.608 2.608 0 01-2.56-3.119 2.609 2.609 0 015.17.509 2.612 2.612 0 01-2.61 2.61zM2.6 138.8a2.6 2.6 0 11.02-5.199 2.6 2.6 0 01-.02 5.199zM2.6 161.17a2.6 2.6 0 11.02-5.199 2.6 2.6 0 01-.02 5.199z"/></g><defs><clipPath id="aclip0"><path fill="#fff" d="M0 0h31.37v161.17H0z"/></clipPath></defs></svg><svg fill="none" viewBox="0 0 9 9" id="plus" xmlns="http://www.w3.org/2000/svg"><g clip-path="url(#bclip0)"><path d="M8.959 2.148L6.654 4.453 9 6.799 6.793 9.006l-2.34-2.352-2.305 2.305L.054 6.865 2.359 4.56 0 2.207 2.207 0l2.36 2.359L6.864.054 8.96 2.148z" fill="#F24E3D"/></g><defs><clipPath id="bclip0"><path fill="#fff" d="M0 0h9v9H0z"/></clipPath></defs></svg><svg fill="none" viewBox="0 0 106 57" id="semicircle" xmlns="http://www.w3.org/2000/svg"><path d="M104.938 28.496a27.395 27.395 0 01-4.633 15.25 27.496 27.496 0 01-12.346 10.111 27.576 27.576 0 01-15.897 1.566 27.535 27.535 0 01-14.09-7.51 27.424 27.424 0 01-7.531-14.051 27.38 27.38 0 011.564-15.859A27.46 27.46 0 0162.138 5.685 27.562 27.562 0 0177.425 1.06" stroke="#F24E3D" stroke-width="2.5" stroke-miterlimit="10"/><path d="M.45 44.218l12.924-12.891M11.717 44.218l12.924-12.891M22.984 44.218l12.924-12.891M34.252 44.218l12.932-12.891M45.518 44.218l12.933-12.891M56.794 44.218l12.924-12.891M68.061 44.218l12.924-12.891" stroke="#fff" stroke-width="1.5" stroke-miterlimit="10"/></svg><svg fill="none" viewBox="0 0 113 33" id="wawe" xmlns="http://www.w3.org/2000/svg"><g clip-path="url(#dclip0)" stroke="#fff" stroke-width="2" stroke-miterlimit="10"><path d="M1 0l11.15 12L23.3 0l11.14 12L45.59 0l11.14 12L67.88 0l11.15 12L90.18 0l11.15 12 11.16-12M.73 19.06l11.15 12 11.15-12 11.14 12 11.15-12 11.14 12 11.15-12 11.15 12 11.15-12 11.15 12 11.16-12"/></g><defs><clipPath id="dclip0"><path fill="#fff" d="M0 0h112.95v32.53H0z"/></clipPath></defs></svg><svg fill="none" viewBox="0 0 146 149" id="web" xmlns="http://www.w3.org/2000/svg"><g clip-path="url(#eclip0)"><path d="M148.081-28.577V-.299h20.314V26.78l-20.314-.078V54.98h-18.129V26.702l-20.396.039V-.338h20.423l-.027-28.239h18.129z" fill="#F24E3D"/></g><g clip-path="url(#eclip1)" stroke="#fff" stroke-width="2" stroke-miterlimit="10"><path d="M137.65 112.2c56.084 0 101.55-45.466 101.55-101.55 0-56.085-45.466-101.55-101.55-101.55C81.565-90.9 36.1-45.435 36.1 10.65c0 56.084 45.465 101.55 101.55 101.55z"/><path d="M189.706 136.989c69.78-28.747 103.044-108.62 74.297-178.4s-108.619-103.044-178.4-74.296C15.824-86.96-17.44-7.088 11.308 62.692s108.619 103.044 178.399 74.297z"/><path d="M137.65 129.75A119.098 119.098 0 0120.838-12.585 119.1 119.1 0 01256.75 10.65a119.239 119.239 0 01-119.1 119.1z"/><path d="M137.65 112.2c56.084 0 101.55-45.466 101.55-101.55 0-56.085-45.466-101.55-101.55-101.55C81.565-90.9 36.1-45.435 36.1 10.65c0 56.084 45.465 101.55 101.55 101.55z"/><path d="M137.65 93.37c45.685 0 82.72-37.035 82.72-82.72s-37.035-82.72-82.72-82.72-82.72 37.035-82.72 82.72 37.035 82.72 82.72 82.72z"/><path d="M137.65 76.11c36.152 0 65.46-29.307 65.46-65.46 0-36.153-29.308-65.46-65.46-65.46-36.153 0-65.46 29.307-65.46 65.46 0 36.153 29.307 65.46 65.46 65.46z"/></g><defs><clipPath id="eclip0"><path fill="#fff" transform="matrix(.57664 -.817 .57664 .817 100 14.114)" d="M0 0h67.567v67.567H0z"/></clipPath><clipPath id="eclip1"><path fill="#fff" transform="translate(0 -127)" d="M0 0h275.3v275.3H0z"/></clipPath></defs></svg></svg>