<svg width="32" height="162" viewBox="0 0 32 162" fill="none" xmlns="http://www.w3.org/2000/svg">
<g clip-path="url(#clip0)">
<path d="M28.76 5.20999C28.2438 5.20999 27.7392 5.05692 27.31 4.77013C26.8807 4.48334 26.5462 4.07571 26.3487 3.5988C26.1511 3.12188 26.0994 2.5971 26.2001 2.09081C26.3009 1.58452 26.5494 1.11946 26.9144 0.754443C27.2795 0.389428 27.7445 0.140849 28.2508 0.0401418C28.7571 -0.0605656 29.2819 -0.0088789 29.7588 0.188666C30.2357 0.386211 30.6433 0.720741 30.9301 1.14995C31.2169 1.57917 31.37 2.08378 31.37 2.59999C31.37 3.29221 31.095 3.95607 30.6055 4.44554C30.1161 4.93501 29.4522 5.20999 28.76 5.20999Z" fill="#F24E3D"/>
<path d="M28.76 27.5701C28.2449 27.5681 27.7421 27.4131 27.3152 27.1249C26.8883 26.8366 26.5567 26.4281 26.3623 25.9511C26.168 25.4741 26.1197 24.9501 26.2236 24.4456C26.3275 23.9411 26.5789 23.4789 26.9459 23.1175C27.313 22.7561 27.779 22.5119 28.2851 22.4158C28.7911 22.3197 29.3143 22.376 29.7882 22.5777C30.2622 22.7794 30.6655 23.1173 30.9471 23.5486C31.2288 23.9799 31.3759 24.4851 31.37 25.0001C31.3621 25.6862 31.0833 26.3413 30.5944 26.8227C30.1055 27.3041 29.4461 27.5728 28.76 27.5701Z" fill="#F24E3D"/>
<path d="M28.76 49.94C28.2462 49.938 27.7445 49.7838 27.3182 49.4969C26.892 49.2101 26.5603 48.8033 26.365 48.328C26.1698 47.8528 26.1197 47.3303 26.2212 46.8266C26.3226 46.3229 26.571 45.8606 26.935 45.498C27.2991 45.1354 27.7623 44.8887 28.2664 44.7892C28.7705 44.6897 29.2928 44.7418 29.7673 44.9389C30.2418 45.1359 30.6472 45.4692 30.9325 45.8965C31.2177 46.3239 31.37 46.8262 31.37 47.34C31.37 47.6823 31.3024 48.0212 31.1711 48.3373C31.0398 48.6534 30.8474 48.9404 30.6049 49.182C30.3624 49.4236 30.0746 49.6149 29.758 49.7449C29.4414 49.875 29.1023 49.9413 28.76 49.94Z" fill="#F24E3D"/>
<path d="M28.76 72.3101C28.2434 72.3101 27.7384 72.1568 27.3089 71.8695C26.8795 71.5823 26.545 71.1741 26.3477 70.6966C26.1505 70.2191 26.0994 69.6938 26.2009 69.1872C26.3024 68.6807 26.552 68.2156 26.918 67.851C27.284 67.4864 27.75 67.2386 28.257 67.139C28.7639 67.0395 29.289 67.0926 29.7658 67.2916C30.2425 67.4907 30.6494 67.8268 30.935 68.2573C31.2206 68.6879 31.372 69.1935 31.37 69.7101C31.3674 70.4006 31.0912 71.0619 30.602 71.5492C30.1128 72.0365 29.4505 72.3101 28.76 72.3101Z" fill="#F24E3D"/>
<path d="M28.76 94.0701C28.2434 94.0701 27.7384 93.9168 27.3089 93.6295C26.8795 93.3423 26.545 92.9341 26.3477 92.4566C26.1505 91.9791 26.0994 91.4538 26.2009 90.9472C26.3024 90.4407 26.552 89.9756 26.918 89.611C27.284 89.2464 27.75 88.9986 28.257 88.899C28.7639 88.7995 29.289 88.8526 29.7658 89.0517C30.2425 89.2507 30.6494 89.5868 30.935 90.0174C31.2206 90.4479 31.372 90.9535 31.37 91.4701C31.3674 92.1606 31.0912 92.8219 30.602 93.3092C30.1128 93.7965 29.4505 94.0701 28.76 94.0701Z" fill="#F24E3D"/>
<path d="M28.76 116.44C28.2438 116.44 27.7392 116.287 27.31 116C26.8807 115.713 26.5462 115.306 26.3487 114.829C26.1511 114.352 26.0994 113.827 26.2001 113.321C26.3009 112.814 26.5494 112.349 26.9144 111.984C27.2795 111.619 27.7445 111.371 28.2508 111.27C28.7571 111.169 29.2819 111.221 29.7588 111.419C30.2357 111.616 30.6433 111.951 30.9301 112.38C31.2169 112.809 31.37 113.314 31.37 113.83C31.37 114.522 31.095 115.186 30.6055 115.676C30.1161 116.165 29.4522 116.44 28.76 116.44Z" fill="#F24E3D"/>
<path d="M28.76 138.8C28.2462 138.798 27.7445 138.644 27.3182 138.357C26.892 138.07 26.5603 137.663 26.365 137.188C26.1698 136.713 26.1197 136.19 26.2212 135.687C26.3226 135.183 26.571 134.721 26.935 134.358C27.2991 133.995 27.7623 133.749 28.2664 133.649C28.7705 133.55 29.2928 133.602 29.7673 133.799C30.2418 133.996 30.6472 134.329 30.9325 134.757C31.2177 135.184 31.37 135.686 31.37 136.2C31.37 136.542 31.3024 136.881 31.1711 137.197C31.0398 137.513 30.8474 137.801 30.6049 138.042C30.3624 138.284 30.0746 138.475 29.758 138.605C29.4414 138.735 29.1023 138.801 28.76 138.8Z" fill="#F24E3D"/>
<path d="M28.76 161.17C28.2462 161.168 27.7445 161.014 27.3182 160.727C26.892 160.44 26.5603 160.033 26.365 159.558C26.1698 159.083 26.1197 158.56 26.2212 158.057C26.3226 157.553 26.571 157.091 26.935 156.728C27.2991 156.365 27.7623 156.119 28.2664 156.019C28.7705 155.92 29.2928 155.972 29.7673 156.169C30.2418 156.366 30.6472 156.699 30.9325 157.127C31.2177 157.554 31.37 158.056 31.37 158.57C31.37 158.912 31.3024 159.251 31.1711 159.567C31.0398 159.883 30.8474 160.17 30.6049 160.412C30.3624 160.654 30.0746 160.845 29.758 160.975C29.4414 161.105 29.1023 161.171 28.76 161.17Z" fill="#F24E3D"/>
<path d="M2.59999 5.20999C2.08378 5.20999 1.57917 5.05692 1.14995 4.77013C0.720741 4.48334 0.386211 4.07571 0.188666 3.5988C-0.0088789 3.12188 -0.0605656 2.5971 0.0401418 2.09081C0.140849 1.58452 0.389428 1.11946 0.754443 0.754443C1.11946 0.389428 1.58452 0.140849 2.09081 0.0401418C2.5971 -0.0605656 3.12188 -0.0088789 3.5988 0.188666C4.07571 0.386211 4.48334 0.720741 4.77013 1.14995C5.05692 1.57917 5.20999 2.08378 5.20999 2.59999C5.20999 3.29221 4.93501 3.95607 4.44554 4.44554C3.95607 4.93501 3.29221 5.20999 2.59999 5.20999Z" fill="#F24E3D"/>
<path d="M2.59999 27.5701C2.08492 27.5681 1.58205 27.4131 1.15518 27.1249C0.728309 26.8366 0.396668 26.4281 0.202329 25.9511C0.0079902 25.4741 -0.0402898 24.9501 0.0636138 24.4456C0.167517 23.9411 0.418922 23.4789 0.785937 23.1175C1.15295 22.7561 1.61904 22.5119 2.12507 22.4158C2.6311 22.3197 3.15427 22.376 3.62822 22.5777C4.10217 22.7794 4.50553 23.1173 4.78714 23.5486C5.06876 23.9799 5.21593 24.4851 5.20999 25.0001C5.20208 25.6862 4.92329 26.3413 4.43439 26.8227C3.94549 27.3041 3.28612 27.5728 2.59999 27.5701Z" fill="#F24E3D"/>
<path d="M2.59998 49.94C2.08618 49.938 1.58448 49.7838 1.15823 49.4969C0.731982 49.2101 0.400291 48.8033 0.205035 48.328C0.00977995 47.8528 -0.0402841 47.3303 0.0611639 46.8266C0.162612 46.3229 0.411023 45.8606 0.775035 45.498C1.13905 45.1354 1.60234 44.8887 2.10641 44.7892C2.61049 44.6897 3.13275 44.7418 3.60725 44.9389C4.08176 45.1359 4.48723 45.4692 4.77249 45.8965C5.05774 46.3239 5.20998 46.8262 5.20998 47.34C5.20998 47.6823 5.1424 48.0212 5.01112 48.3373C4.87983 48.6534 4.68742 48.9404 4.44493 49.182C4.20243 49.4236 3.91463 49.6149 3.59803 49.7449C3.28143 49.875 2.94226 49.9413 2.59998 49.94Z" fill="#F24E3D"/>
<path d="M2.6 72.3101C2.08337 72.3101 1.57836 72.1568 1.14893 71.8695C0.719504 71.5823 0.384983 71.1741 0.187735 70.6966C-0.00951223 70.2191 -0.0606117 69.6938 0.0409089 69.1872C0.14243 68.6807 0.392003 68.2156 0.758019 67.851C1.12404 67.4864 1.59003 67.2386 2.09697 67.139C2.60392 67.0395 3.12902 67.0926 3.60576 67.2916C4.08249 67.4907 4.48942 67.8268 4.77501 68.2573C5.06059 68.6879 5.21198 69.1935 5.21 69.7101C5.20736 70.4006 4.93121 71.0619 4.44203 71.5492C3.95284 72.0365 3.29049 72.3101 2.6 72.3101Z" fill="#F24E3D"/>
<path d="M2.6 94.0701C2.08337 94.0701 1.57836 93.9168 1.14893 93.6295C0.719504 93.3423 0.384983 92.9341 0.187735 92.4566C-0.00951223 91.9791 -0.0606117 91.4538 0.0409089 90.9472C0.14243 90.4407 0.392003 89.9756 0.758019 89.611C1.12404 89.2464 1.59003 88.9986 2.09697 88.899C2.60392 88.7995 3.12902 88.8526 3.60576 89.0517C4.08249 89.2507 4.48942 89.5868 4.77501 90.0174C5.06059 90.4479 5.21198 90.9535 5.21 91.4701C5.20736 92.1606 4.93121 92.8219 4.44203 93.3092C3.95284 93.7965 3.29049 94.0701 2.6 94.0701Z" fill="#F24E3D"/>
<path d="M2.59999 116.44C2.08378 116.44 1.57917 116.287 1.14995 116C0.720741 115.713 0.386211 115.306 0.188666 114.829C-0.0088789 114.352 -0.0605656 113.827 0.0401418 113.321C0.140849 112.814 0.389428 112.349 0.754443 111.984C1.11946 111.619 1.58452 111.371 2.09081 111.27C2.5971 111.169 3.12188 111.221 3.5988 111.419C4.07571 111.616 4.48334 111.951 4.77013 112.38C5.05692 112.809 5.20999 113.314 5.20999 113.83C5.20999 114.522 4.93501 115.186 4.44554 115.676C3.95607 116.165 3.29221 116.44 2.59999 116.44Z" fill="#F24E3D"/>
<path d="M2.59998 138.8C2.08618 138.798 1.58448 138.644 1.15823 138.357C0.731982 138.07 0.400291 137.663 0.205035 137.188C0.00977995 136.713 -0.0402841 136.19 0.0611639 135.687C0.162612 135.183 0.411023 134.721 0.775035 134.358C1.13905 133.995 1.60234 133.749 2.10641 133.649C2.61049 133.55 3.13275 133.602 3.60725 133.799C4.08176 133.996 4.48723 134.329 4.77249 134.757C5.05774 135.184 5.20998 135.686 5.20998 136.2C5.20998 136.542 5.1424 136.881 5.01112 137.197C4.87983 137.513 4.68742 137.801 4.44493 138.042C4.20243 138.284 3.91463 138.475 3.59803 138.605C3.28143 138.735 2.94226 138.801 2.59998 138.8Z" fill="#F24E3D"/>
<path d="M2.59998 161.17C2.08618 161.168 1.58448 161.014 1.15823 160.727C0.731982 160.44 0.400291 160.033 0.205035 159.558C0.00977995 159.083 -0.0402841 158.56 0.0611639 158.057C0.162612 157.553 0.411023 157.091 0.775035 156.728C1.13905 156.365 1.60234 156.119 2.10641 156.019C2.61049 155.92 3.13275 155.972 3.60725 156.169C4.08176 156.366 4.48723 156.699 4.77249 157.127C5.05774 157.554 5.20998 158.056 5.20998 158.57C5.20998 158.912 5.1424 159.251 5.01112 159.567C4.87983 159.883 4.68742 160.17 4.44493 160.412C4.20243 160.654 3.91463 160.845 3.59803 160.975C3.28143 161.105 2.94226 161.171 2.59998 161.17Z" fill="#F24E3D"/>
</g>
<defs>
<clipPath id="clip0">
<rect width="31.37" height="161.17" fill="white"/>
</clipPath>
</defs>
</svg>
