<svg width="32" height="162" viewBox="0 0 32 162" fill="none" xmlns="http://www.w3.org/2000/svg">
<g clip-path="url(#clip0)">
<path d="M28.76 5.20999C28.2438 5.20999 27.7392 5.05692 27.31 4.77013C26.8807 4.48334 26.5462 4.07571 26.3487 3.5988C26.1511 3.12188 26.0994 2.5971 26.2001 2.09081C26.3009 1.58452 26.5494 1.11946 26.9144 0.754443C27.2795 0.389428 27.7445 0.140849 28.2508 0.0401418C28.7571 -0.0605656 29.2819 -0.0088789 29.7588 0.188666C30.2357 0.386211 30.6433 0.720741 30.9301 1.14995C31.2169 1.57917 31.37 2.08378 31.37 2.59999C31.37 3.29221 31.095 3.95607 30.6055 4.44554C30.1161 4.93501 29.4522 5.20999 28.76 5.20999Z" fill="white"/>
<path d="M28.76 27.57C28.2449 27.568 27.7421 27.413 27.3152 27.1248C26.8883 26.8365 26.5567 26.428 26.3623 25.951C26.168 25.474 26.1197 24.95 26.2236 24.4455C26.3275 23.941 26.5789 23.4788 26.9459 23.1174C27.313 22.756 27.779 22.5118 28.2851 22.4157C28.7911 22.3196 29.3143 22.3759 29.7882 22.5776C30.2622 22.7793 30.6655 23.1172 30.9471 23.5485C31.2288 23.9797 31.3759 24.4849 31.37 25C31.3621 25.6861 31.0833 26.3412 30.5944 26.8226C30.1055 27.304 29.4461 27.5727 28.76 27.57Z" fill="white"/>
<path d="M28.76 49.94C28.2462 49.938 27.7445 49.7838 27.3183 49.4969C26.892 49.2101 26.5603 48.8033 26.3651 48.328C26.1698 47.8528 26.1197 47.3303 26.2212 46.8266C26.3226 46.3229 26.571 45.8606 26.9351 45.498C27.2991 45.1354 27.7624 44.8887 28.2664 44.7892C28.7705 44.6897 29.2928 44.7418 29.7673 44.9389C30.2418 45.1359 30.6473 45.4692 30.9325 45.8965C31.2178 46.3239 31.37 46.8262 31.37 47.34C31.37 47.6823 31.3024 48.0212 31.1711 48.3373C31.0398 48.6534 30.8474 48.9404 30.6049 49.182C30.3625 49.4236 30.0746 49.6149 29.758 49.7449C29.4414 49.875 29.1023 49.9413 28.76 49.94Z" fill="white"/>
<path d="M28.76 72.31C28.2434 72.31 27.7384 72.1566 27.3089 71.8694C26.8795 71.5822 26.545 71.1739 26.3477 70.6964C26.1505 70.2189 26.0994 69.6937 26.2009 69.1871C26.3024 68.6805 26.552 68.2155 26.918 67.8509C27.284 67.4863 27.75 67.2385 28.257 67.1389C28.7639 67.0393 29.289 67.0924 29.7658 67.2915C30.2425 67.4906 30.6494 67.8267 30.935 68.2572C31.2206 68.6877 31.372 69.1933 31.37 69.71C31.3674 70.4004 31.0912 71.0617 30.602 71.5491C30.1128 72.0364 29.4505 72.31 28.76 72.31Z" fill="white"/>
<path d="M28.76 94.07C28.2434 94.07 27.7384 93.9166 27.3089 93.6294C26.8795 93.3422 26.545 92.934 26.3477 92.4565C26.1505 91.979 26.0994 91.4537 26.2009 90.9471C26.3024 90.4405 26.552 89.9755 26.918 89.6109C27.284 89.2463 27.75 88.9985 28.257 88.8989C28.7639 88.7993 29.289 88.8525 29.7658 89.0515C30.2425 89.2506 30.6494 89.5867 30.935 90.0172C31.2206 90.4478 31.372 90.9533 31.37 91.47C31.3674 92.1605 31.0912 92.8218 30.602 93.3091C30.1128 93.7964 29.4505 94.07 28.76 94.07Z" fill="white"/>
<path d="M28.76 116.44C28.2438 116.44 27.7392 116.287 27.31 116C26.8807 115.713 26.5462 115.306 26.3487 114.829C26.1511 114.352 26.0994 113.827 26.2001 113.321C26.3009 112.814 26.5494 112.349 26.9144 111.984C27.2795 111.619 27.7445 111.371 28.2508 111.27C28.7571 111.169 29.2819 111.221 29.7588 111.419C30.2357 111.616 30.6433 111.951 30.9301 112.38C31.2169 112.809 31.37 113.314 31.37 113.83C31.37 114.522 31.095 115.186 30.6055 115.676C30.1161 116.165 29.4522 116.44 28.76 116.44Z" fill="white"/>
<path d="M28.76 138.8C28.2462 138.798 27.7445 138.644 27.3183 138.357C26.892 138.07 26.5603 137.663 26.3651 137.188C26.1698 136.713 26.1197 136.19 26.2212 135.687C26.3226 135.183 26.571 134.721 26.9351 134.358C27.2991 133.995 27.7624 133.749 28.2664 133.649C28.7705 133.55 29.2928 133.602 29.7673 133.799C30.2418 133.996 30.6473 134.329 30.9325 134.757C31.2178 135.184 31.37 135.686 31.37 136.2C31.37 136.542 31.3024 136.881 31.1711 137.197C31.0398 137.513 30.8474 137.8 30.6049 138.042C30.3625 138.284 30.0746 138.475 29.758 138.605C29.4414 138.735 29.1023 138.801 28.76 138.8Z" fill="white"/>
<path d="M28.76 161.17C28.2462 161.168 27.7445 161.014 27.3183 160.727C26.892 160.44 26.5603 160.033 26.3651 159.558C26.1698 159.083 26.1197 158.56 26.2212 158.057C26.3226 157.553 26.571 157.091 26.9351 156.728C27.2991 156.365 27.7624 156.119 28.2664 156.019C28.7705 155.92 29.2928 155.972 29.7673 156.169C30.2418 156.366 30.6473 156.699 30.9325 157.127C31.2178 157.554 31.37 158.056 31.37 158.57C31.37 158.912 31.3024 159.251 31.1711 159.567C31.0398 159.883 30.8474 160.17 30.6049 160.412C30.3625 160.654 30.0746 160.845 29.758 160.975C29.4414 161.105 29.1023 161.171 28.76 161.17Z" fill="white"/>
<path d="M2.6 5.20999C2.08379 5.20999 1.57917 5.05692 1.14996 4.77013C0.720748 4.48334 0.386218 4.07571 0.188673 3.5988C-0.00887127 3.12188 -0.060558 2.5971 0.0401495 2.09081C0.140857 1.58452 0.389435 1.11946 0.75445 0.754443C1.11947 0.389428 1.58452 0.140849 2.09081 0.0401418C2.5971 -0.0605656 3.12189 -0.0088789 3.5988 0.188666C4.07572 0.386211 4.48334 0.720741 4.77013 1.14995C5.05693 1.57917 5.21 2.08378 5.21 2.59999C5.21 3.29221 4.93502 3.95607 4.44555 4.44554C3.95608 4.93501 3.29221 5.20999 2.6 5.20999Z" fill="white"/>
<path d="M2.6 27.57C2.08493 27.568 1.58206 27.413 1.15519 27.1248C0.728316 26.8365 0.396676 26.428 0.202337 25.951C0.00799783 25.474 -0.0402822 24.95 0.0636215 24.4455C0.167525 23.941 0.41893 23.4788 0.785945 23.1174C1.15296 22.756 1.61904 22.5118 2.12507 22.4157C2.6311 22.3196 3.15428 22.3759 3.62823 22.5776C4.10217 22.7793 4.50554 23.1172 4.78715 23.5485C5.06877 23.9797 5.21594 24.4849 5.21 25C5.20209 25.6861 4.9233 26.3412 4.4344 26.8226C3.9455 27.304 3.28612 27.5727 2.6 27.57Z" fill="white"/>
<path d="M2.6 49.94C2.08619 49.938 1.5845 49.7838 1.15825 49.4969C0.731998 49.2101 0.400306 48.8033 0.205051 48.328C0.0097952 47.8528 -0.0402689 47.3303 0.0611792 46.8266C0.162627 46.3229 0.411039 45.8606 0.77505 45.498C1.13906 45.1354 1.60235 44.8887 2.10643 44.7892C2.6105 44.6897 3.13276 44.7418 3.60727 44.9389C4.08177 45.1359 4.48725 45.4692 4.7725 45.8965C5.05775 46.3239 5.20999 46.8262 5.21 47.34C5.21 47.6823 5.14242 48.0212 5.01113 48.3373C4.87984 48.6534 4.68743 48.9404 4.44494 49.182C4.20245 49.4236 3.91465 49.6149 3.59804 49.7449C3.28144 49.875 2.94227 49.9413 2.6 49.94Z" fill="white"/>
<path d="M2.6 72.31C2.08337 72.31 1.57836 72.1566 1.14893 71.8694C0.719504 71.5822 0.384983 71.1739 0.187735 70.6964C-0.00951223 70.2189 -0.0606117 69.6937 0.0409089 69.1871C0.14243 68.6805 0.392003 68.2155 0.758019 67.8509C1.12404 67.4863 1.59003 67.2385 2.09697 67.1389C2.60392 67.0393 3.12902 67.0924 3.60576 67.2915C4.08249 67.4906 4.48942 67.8267 4.77501 68.2572C5.06059 68.6877 5.21198 69.1933 5.21 69.71C5.20736 70.4004 4.93121 71.0617 4.44203 71.5491C3.95284 72.0364 3.29049 72.31 2.6 72.31Z" fill="white"/>
<path d="M2.6 94.07C2.08337 94.07 1.57836 93.9166 1.14893 93.6294C0.719504 93.3422 0.384983 92.934 0.187735 92.4565C-0.00951223 91.979 -0.0606117 91.4537 0.0409089 90.9471C0.14243 90.4405 0.392003 89.9755 0.758019 89.6109C1.12404 89.2463 1.59003 88.9985 2.09697 88.8989C2.60392 88.7993 3.12902 88.8525 3.60576 89.0515C4.08249 89.2506 4.48942 89.5867 4.77501 90.0172C5.06059 90.4478 5.21198 90.9533 5.21 91.47C5.20736 92.1605 4.93121 92.8218 4.44203 93.3091C3.95284 93.7964 3.29049 94.07 2.6 94.07Z" fill="white"/>
<path d="M2.6 116.44C2.08379 116.44 1.57917 116.287 1.14996 116C0.720748 115.713 0.386218 115.306 0.188673 114.829C-0.00887127 114.352 -0.060558 113.827 0.0401495 113.321C0.140857 112.814 0.389435 112.349 0.75445 111.984C1.11947 111.619 1.58452 111.371 2.09081 111.27C2.5971 111.169 3.12189 111.221 3.5988 111.419C4.07572 111.616 4.48334 111.951 4.77013 112.38C5.05693 112.809 5.21 113.314 5.21 113.83C5.21 114.522 4.93502 115.186 4.44555 115.676C3.95608 116.165 3.29221 116.44 2.6 116.44Z" fill="white"/>
<path d="M2.6 138.8C2.08619 138.798 1.5845 138.644 1.15825 138.357C0.731998 138.07 0.400306 137.663 0.205051 137.188C0.0097952 136.713 -0.0402689 136.19 0.0611792 135.687C0.162627 135.183 0.411039 134.721 0.77505 134.358C1.13906 133.995 1.60235 133.749 2.10643 133.649C2.6105 133.55 3.13276 133.602 3.60727 133.799C4.08177 133.996 4.48725 134.329 4.7725 134.757C5.05775 135.184 5.20999 135.686 5.21 136.2C5.21 136.542 5.14242 136.881 5.01113 137.197C4.87984 137.513 4.68743 137.8 4.44494 138.042C4.20245 138.284 3.91465 138.475 3.59804 138.605C3.28144 138.735 2.94227 138.801 2.6 138.8Z" fill="white"/>
<path d="M2.6 161.17C2.08619 161.168 1.5845 161.014 1.15825 160.727C0.731998 160.44 0.400306 160.033 0.205051 159.558C0.0097952 159.083 -0.0402689 158.56 0.0611792 158.057C0.162627 157.553 0.411039 157.091 0.77505 156.728C1.13906 156.365 1.60235 156.119 2.10643 156.019C2.6105 155.92 3.13276 155.972 3.60727 156.169C4.08177 156.366 4.48725 156.699 4.7725 157.127C5.05775 157.554 5.20999 158.056 5.21 158.57C5.21 158.912 5.14242 159.251 5.01113 159.567C4.87984 159.883 4.68743 160.17 4.44494 160.412C4.20245 160.654 3.91465 160.845 3.59804 160.975C3.28144 161.105 2.94227 161.171 2.6 161.17Z" fill="white"/>
</g>
<defs>
<clipPath id="clip0">
<rect width="31.37" height="161.17" fill="white"/>
</clipPath>
</defs>
</svg>
