<svg width="58" height="65" viewBox="0 0 58 65" fill="none" xmlns="http://www.w3.org/2000/svg">
<path d="M0.919987 2.48996L5.10999 56C5.14422 56.3921 5.29346 56.7655 5.53894 57.0732C5.78443 57.381 6.11524 57.6094 6.48999 57.73L28.49 64.73C28.876 64.8603 29.294 64.8603 29.68 64.73L51.68 57.73C52.0622 57.6161 52.4016 57.3905 52.6547 57.0822C52.9077 56.7739 53.0628 56.397 53.1 56L57.28 2.45997C57.2978 2.18659 57.2593 1.9125 57.1668 1.65464C57.0742 1.39678 56.9298 1.16065 56.7423 0.960942C56.5547 0.761231 56.3282 0.602166 56.0767 0.493626C55.8251 0.385087 55.554 0.329381 55.28 0.329961H2.90003C2.62505 0.331829 2.35339 0.390407 2.10205 0.501988C1.85072 0.61357 1.62509 0.775782 1.43927 0.97849C1.25346 1.1812 1.11145 1.42002 1.0221 1.68009C0.932752 1.94016 0.897982 2.21586 0.919987 2.48996ZM46.55 19.1H19.28L20.1 26.69H46L44.31 48.33L29.14 53.14L13.98 48.33L13.06 37H21.06V42.55L29.36 44.78L37.61 42.55L38.25 33.71H12.8L11.11 12.13H47.11L46.55 19.1Z" fill="url(#paint0_linear)"/>
<defs>
<linearGradient id="paint0_linear" x1="29027.3" y1="26612.1" x2="32204.9" y2="26612.1" gradientUnits="userSpaceOnUse">
<stop offset="0.09" stop-color="#F7931E"/>
<stop offset="1" stop-color="#FFA640"/>
</linearGradient>
</defs>
</svg>
