<svg width="102" height="105" viewBox="0 0 102 105" fill="none" xmlns="http://www.w3.org/2000/svg">
<path d="M55.23 59.9399C68.7602 72.098 84.4471 81.6153 101.48 87.9999C101.63 87.4899 101.79 86.9999 101.98 86.4799C84.6992 79.9883 68.8278 70.2346 55.23 57.7499L54.82 57.3999L54.4 56.9999C37.6808 41.4836 25.241 21.9216 18.28 0.199951C17.77 0.439951 17.28 0.679954 16.75 0.889954C23.8613 22.9299 36.5482 42.7577 53.58 58.45L55.23 59.9399Z" fill="#F24E3D"/>
<path d="M43.43 72.92C58.7049 86.6493 76.4172 97.3948 95.65 104.6C95.82 104.03 95.99 103.45 96.21 102.89C76.6984 95.5676 58.7789 84.5572 43.43 70.46L42.97 70.06L42.5 69.58C23.6255 52.0655 9.5838 29.9818 1.73 5.45996C1.15 5.72996 0.58 5.99996 0 6.23996C8.02141 31.128 22.3415 53.5193 41.57 71.24L43.43 72.92Z" fill="#F24E3D"/>
</svg>
