<svg width="28" height="28" viewBox="0 0 28 28" fill="none" xmlns="http://www.w3.org/2000/svg">
<path d="M23.29 0.349976H4.42999C2.19876 0.349976 0.390015 2.15878 0.390015 4.39001V23.25C0.390015 25.4812 2.19876 27.29 4.42999 27.29H23.29C25.5212 27.29 27.33 25.4812 27.33 23.25V4.39001C27.33 2.15878 25.5212 0.349976 23.29 0.349976Z" fill="#77C4D3"/>
<path d="M17.44 19.82C17.6664 20.2806 18.0184 20.6677 18.4555 20.9367C18.8926 21.2056 19.3968 21.3455 19.91 21.34C20.97 21.34 21.65 20.81 21.65 20.08C21.65 19.35 20.97 18.92 19.81 18.39L19.18 18.13C17.34 17.34 16.13 16.4 16.13 14.34C16.1309 13.8715 16.2293 13.4081 16.4188 12.9796C16.6083 12.551 16.8849 12.1666 17.231 11.8506C17.577 11.5346 17.985 11.2941 18.429 11.1442C18.873 10.9943 19.3432 10.9384 19.81 10.98C20.5384 10.9164 21.2691 11.0732 21.9074 11.4298C22.5457 11.7864 23.0623 12.3264 23.39 12.98L21.44 14.24C21.3158 13.9104 21.0922 13.6275 20.8002 13.4304C20.5082 13.2334 20.1622 13.1319 19.81 13.14C19.6566 13.1246 19.5016 13.1416 19.3552 13.19C19.2088 13.2383 19.0741 13.3168 18.9601 13.4206C18.846 13.5243 18.7549 13.6508 18.6929 13.792C18.6309 13.9332 18.5992 14.0858 18.6 14.24C18.6 14.98 19.07 15.29 20.18 15.77L20.81 16.0301C22.97 16.9801 24.18 17.8701 24.18 20.0301C24.18 22.1901 22.39 23.55 19.97 23.55C19.032 23.6178 18.0946 23.4108 17.2723 22.9544C16.4501 22.498 15.7786 21.8119 15.34 20.98L17.44 19.82ZM8.5 20.0301C8.92 20.7101 9.23 21.34 10.13 21.34C11.03 21.34 11.5 21.03 11.5 19.76V11H14V19.63C14 22.26 12.48 23.42 10.21 23.42C9.41695 23.4666 8.62866 23.2692 7.95111 22.8545C7.27357 22.4397 6.73927 21.8274 6.42001 21.1L8.5 20.0301Z" fill="white"/>
</svg>
