<svg width="91" height="146" viewBox="0 0 91 146" fill="none" xmlns="http://www.w3.org/2000/svg">
<g clip-path="url(#clip0)">
<path d="M3.92045 82.9389C3.92045 82.558 3.80516 82.1857 3.58915 81.869C3.37314 81.5523 3.06612 81.3055 2.70691 81.1597C2.3477 81.014 1.95243 80.9758 1.5711 81.0501C1.18976 81.1244 0.83948 81.3079 0.564552 81.5772C0.289624 81.8465 0.102396 82.1896 0.0265435 82.5632C-0.0493089 82.9367 -0.0103787 83.3239 0.138411 83.6758C0.287201 84.0277 0.539168 84.3285 0.862449 84.5401C1.18573 84.7517 1.56581 84.8646 1.95461 84.8646C2.47599 84.8646 2.97601 84.6617 3.34467 84.3006C3.71334 83.9394 3.92045 83.4496 3.92045 82.9389Z" fill="#060000"/>
<path d="M20.8401 82.9389C20.8401 82.558 20.7248 82.1857 20.5088 81.869C20.2928 81.5523 19.9858 81.3055 19.6266 81.1597C19.2674 81.014 18.8721 80.9758 18.4908 81.0501C18.1094 81.1244 17.7592 81.3079 17.4842 81.5772C17.2093 81.8465 17.0221 82.1896 16.9462 82.5632C16.8704 82.9367 16.9093 83.3239 17.0581 83.6758C17.2069 84.0277 17.4588 84.3285 17.7821 84.5401C18.1054 84.7517 18.4855 84.8646 18.8743 84.8646C19.3957 84.8646 19.8957 84.6617 20.2644 84.3006C20.633 83.9394 20.8401 83.4496 20.8401 82.9389Z" fill="#060000"/>
<path d="M37.7486 82.9389C37.7497 82.5567 37.635 82.1828 37.4191 81.8645C37.2031 81.5462 36.8956 81.2978 36.5355 81.1508C36.1754 81.0037 35.7788 80.9647 35.396 81.0386C35.0132 81.1125 34.6614 81.296 34.3851 81.5659C34.1089 81.8357 33.9205 82.1798 33.844 82.5546C33.7675 82.9294 33.8062 83.318 33.9553 83.6712C34.1043 84.0244 34.357 84.3263 34.6813 84.5388C35.0056 84.7512 35.387 84.8646 35.7772 84.8646C36.2991 84.8646 36.7996 84.6619 37.1692 84.3009C37.5388 83.9399 37.7471 83.4501 37.7486 82.9389V82.9389Z" fill="#060000"/>
<path d="M54.6515 82.9389C54.6515 82.558 54.5362 82.1857 54.3202 81.869C54.1042 81.5523 53.7972 81.3055 53.438 81.1597C53.0788 81.014 52.6835 80.9758 52.3022 81.0501C51.9208 81.1244 51.5706 81.3079 51.2956 81.5772C51.0207 81.8465 50.8335 82.1896 50.7576 82.5632C50.6818 82.9367 50.7207 83.3239 50.8695 83.6758C51.0183 84.0277 51.2702 84.3285 51.5935 84.5401C51.9168 84.7517 52.2969 84.8646 52.6857 84.8646C53.2071 84.8646 53.7071 84.6617 54.0758 84.3006C54.4444 83.9394 54.6515 83.4496 54.6515 82.9389Z" fill="#060000"/>
<path d="M3.92045 67.2312C3.92045 66.8504 3.80516 66.478 3.58915 66.1614C3.37314 65.8447 3.06612 65.5978 2.70691 65.4521C2.3477 65.3063 1.95243 65.2682 1.5711 65.3425C1.18976 65.4168 0.83948 65.6002 0.564552 65.8695C0.289624 66.1389 0.102396 66.482 0.0265435 66.8556C-0.0493089 67.2291 -0.0103787 67.6163 0.138411 67.9682C0.287201 68.3201 0.539168 68.6208 0.862449 68.8324C1.18573 69.044 1.56581 69.157 1.95461 69.157C2.47599 69.157 2.97601 68.9541 3.34467 68.5929C3.71334 68.2318 3.92045 67.742 3.92045 67.2312V67.2312Z" fill="#060000"/>
<path d="M20.8401 67.2312C20.8401 66.8504 20.7248 66.478 20.5088 66.1614C20.2928 65.8447 19.9858 65.5978 19.6266 65.4521C19.2674 65.3063 18.8721 65.2682 18.4908 65.3425C18.1094 65.4168 17.7592 65.6002 17.4842 65.8695C17.2093 66.1389 17.0221 66.482 16.9462 66.8556C16.8704 67.2291 16.9093 67.6163 17.0581 67.9682C17.2069 68.3201 17.4588 68.6208 17.7821 68.8324C18.1054 69.044 18.4855 69.157 18.8743 69.157C19.3957 69.157 19.8957 68.9541 20.2644 68.5929C20.633 68.2318 20.8401 67.742 20.8401 67.2312V67.2312Z" fill="#060000"/>
<path d="M37.7486 67.2312C37.7497 66.849 37.635 66.4751 37.4191 66.1568C37.2031 65.8385 36.8956 65.5901 36.5355 65.4431C36.1754 65.2961 35.7788 65.2571 35.396 65.331C35.0132 65.4049 34.6614 65.5884 34.3851 65.8582C34.1089 66.1281 33.9205 66.4722 33.844 66.847C33.7675 67.2217 33.8062 67.6103 33.9553 67.9635C34.1043 68.3167 34.357 68.6187 34.6813 68.8311C35.0056 69.0436 35.387 69.157 35.7772 69.157C36.2991 69.157 36.7996 68.9543 37.1692 68.5933C37.5388 68.2323 37.7471 67.7425 37.7486 67.2312V67.2312Z" fill="#060000"/>
<path d="M54.6515 67.2312C54.6515 66.8504 54.5362 66.478 54.3202 66.1614C54.1042 65.8447 53.7972 65.5978 53.438 65.4521C53.0788 65.3063 52.6835 65.2682 52.3022 65.3425C51.9208 65.4168 51.5706 65.6002 51.2956 65.8695C51.0207 66.1389 50.8335 66.482 50.7576 66.8556C50.6818 67.2291 50.7207 67.6163 50.8695 67.9682C51.0183 68.3201 51.2702 68.6208 51.5935 68.8324C51.9168 69.044 52.2969 69.157 52.6857 69.157C53.2071 69.157 53.7071 68.9541 54.0758 68.5929C54.4444 68.2318 54.6515 67.742 54.6515 67.2312V67.2312Z" fill="#060000"/>
<path d="M3.92045 51.5291C3.92045 51.1482 3.80516 50.7759 3.58915 50.4592C3.37314 50.1425 3.06612 49.8957 2.70691 49.75C2.3477 49.6042 1.95243 49.5661 1.5711 49.6404C1.18976 49.7147 0.83948 49.8981 0.564552 50.1674C0.289624 50.4367 0.102396 50.7798 0.0265435 51.1534C-0.0493089 51.527 -0.0103787 51.9142 0.138411 52.266C0.287201 52.6179 0.539168 52.9187 0.862449 53.1303C1.18573 53.3419 1.56581 53.4548 1.95461 53.4548C2.47553 53.4534 2.97469 53.25 3.34304 52.8892C3.71139 52.5284 3.91898 52.0394 3.92045 51.5291Z" fill="#060000"/>
<path d="M20.8401 51.5291C20.8401 51.1482 20.7248 50.7759 20.5088 50.4592C20.2928 50.1425 19.9858 49.8957 19.6266 49.75C19.2674 49.6042 18.8721 49.5661 18.4908 49.6404C18.1094 49.7147 17.7592 49.8981 17.4842 50.1674C17.2093 50.4367 17.0221 50.7798 16.9462 51.1534C16.8704 51.527 16.9093 51.9142 17.0581 52.266C17.2069 52.6179 17.4588 52.9187 17.7821 53.1303C18.1054 53.3419 18.4855 53.4548 18.8743 53.4548C19.3952 53.4534 19.8944 53.25 20.2627 52.8892C20.6311 52.5284 20.8387 52.0394 20.8401 51.5291V51.5291Z" fill="#060000"/>
<path d="M37.7486 51.5291C37.7497 51.1469 37.635 50.773 37.4191 50.4547C37.2031 50.1364 36.8956 49.888 36.5355 49.741C36.1754 49.594 35.7788 49.5549 35.396 49.6288C35.0132 49.7027 34.6614 49.8862 34.3851 50.1561C34.1089 50.426 33.9205 50.77 33.844 51.1448C33.7675 51.5196 33.8062 51.9082 33.9553 52.2614C34.1043 52.6146 34.357 52.9165 34.6813 53.129C35.0056 53.3414 35.387 53.4548 35.7772 53.4548C36.2986 53.4534 36.7983 53.2502 37.1676 52.8895C37.5368 52.5289 37.7457 52.0399 37.7486 51.5291Z" fill="#060000"/>
<path d="M54.6515 51.5291C54.6515 51.1482 54.5362 50.7759 54.3202 50.4592C54.1042 50.1425 53.7972 49.8957 53.438 49.75C53.0788 49.6042 52.6835 49.5661 52.3022 49.6404C51.9208 49.7147 51.5706 49.8981 51.2956 50.1674C51.0207 50.4367 50.8335 50.7798 50.7576 51.1534C50.6818 51.527 50.7207 51.9142 50.8695 52.266C51.0183 52.6179 51.2702 52.9187 51.5935 53.1303C51.9168 53.3419 52.2969 53.4548 52.6857 53.4548C53.2066 53.4534 53.7058 53.25 54.0741 52.8892C54.4425 52.5284 54.6501 52.0394 54.6515 51.5291Z" fill="#060000"/>
<path d="M3.92045 35.8215C3.92045 35.4406 3.80516 35.0683 3.58915 34.7516C3.37314 34.4349 3.06612 34.1881 2.70691 34.0423C2.3477 33.8966 1.95243 33.8584 1.5711 33.9327C1.18976 34.007 0.83948 34.1904 0.564552 34.4598C0.289624 34.7291 0.102396 35.0722 0.0265435 35.4458C-0.0493089 35.8193 -0.0103787 36.2065 0.138411 36.5584C0.287201 36.9103 0.539168 37.211 0.862449 37.4226C1.18573 37.6343 1.56581 37.7472 1.95461 37.7472C2.47599 37.7472 2.97601 37.5443 3.34467 37.1832C3.71334 36.822 3.92045 36.3322 3.92045 35.8215V35.8215Z" fill="#060000"/>
<path d="M20.8401 35.8215C20.8401 35.4406 20.7248 35.0683 20.5088 34.7516C20.2928 34.4349 19.9858 34.1881 19.6266 34.0423C19.2674 33.8966 18.8721 33.8584 18.4908 33.9327C18.1094 34.007 17.7592 34.1904 17.4842 34.4598C17.2093 34.7291 17.0221 35.0722 16.9462 35.4458C16.8704 35.8193 16.9093 36.2065 17.0581 36.5584C17.2069 36.9103 17.4588 37.211 17.7821 37.4226C18.1054 37.6343 18.4855 37.7472 18.8743 37.7472C19.3957 37.7472 19.8957 37.5443 20.2644 37.1832C20.633 36.822 20.8401 36.3322 20.8401 35.8215V35.8215Z" fill="#060000"/>
<path d="M37.7486 35.8215C37.7497 35.4393 37.635 35.0653 37.4191 34.747C37.2031 34.4287 36.8956 34.1803 36.5355 34.0333C36.1754 33.8863 35.7788 33.8473 35.396 33.9212C35.0132 33.9951 34.6614 34.1786 34.3851 34.4484C34.1089 34.7183 33.9205 35.0624 33.844 35.4372C33.7675 35.812 33.8062 36.2005 33.9553 36.5537C34.1043 36.9069 34.357 37.2089 34.6813 37.4213C35.0056 37.6338 35.387 37.7472 35.7772 37.7472C36.2991 37.7472 36.7996 37.5445 37.1692 37.1835C37.5388 36.8225 37.7471 36.3327 37.7486 35.8215V35.8215Z" fill="#060000"/>
<path d="M54.6515 35.8215C54.6515 35.4406 54.5362 35.0683 54.3202 34.7516C54.1042 34.4349 53.7972 34.1881 53.438 34.0423C53.0788 33.8966 52.6835 33.8584 52.3022 33.9327C51.9208 34.007 51.5706 34.1904 51.2956 34.4598C51.0207 34.7291 50.8335 35.0722 50.7576 35.4458C50.6818 35.8193 50.7207 36.2065 50.8695 36.5584C51.0183 36.9103 51.2702 37.211 51.5935 37.4226C51.9168 37.6343 52.2969 37.7472 52.6857 37.7472C53.2071 37.7472 53.7071 37.5443 54.0758 37.1832C54.4444 36.822 54.6515 36.3322 54.6515 35.8215V35.8215Z" fill="#060000"/>
<path d="M3.91997 144.074C3.91996 143.693 3.80438 143.32 3.58787 143.003C3.37136 142.686 3.06367 142.439 2.70381 142.294C2.34395 142.149 1.94811 142.111 1.56647 142.186C1.18483 142.262 0.834575 142.446 0.560098 142.716C0.285621 142.987 0.0992821 143.331 0.0246994 143.705C-0.0498833 144.08 -0.0093514 144.467 0.141158 144.819C0.291667 145.17 0.545376 145.47 0.870127 145.681C1.19488 145.891 1.57605 146.002 1.96533 146C2.48476 145.997 2.9819 145.793 3.34815 145.432C3.7144 145.071 3.91997 144.583 3.91997 144.074Z" fill="#060000"/>
<path d="M20.8401 144.074C20.8401 143.693 20.7248 143.321 20.5088 143.004C20.2928 142.688 19.9858 142.441 19.6266 142.295C19.2674 142.149 18.8721 142.111 18.4908 142.186C18.1094 142.26 17.7592 142.443 17.4842 142.713C17.2093 142.982 17.0221 143.325 16.9462 143.699C16.8704 144.072 16.9093 144.459 17.0581 144.811C17.2069 145.163 17.4588 145.464 17.7821 145.675C18.1054 145.887 18.4855 146 18.8743 146C19.3957 146 19.8957 145.797 20.2644 145.436C20.633 145.075 20.8401 144.585 20.8401 144.074Z" fill="#060000"/>
<path d="M37.7486 144.074C37.7497 143.692 37.635 143.318 37.4191 143C37.2031 142.682 36.8956 142.433 36.5355 142.286C36.1754 142.139 35.7788 142.1 35.396 142.174C35.0132 142.248 34.6614 142.431 34.3851 142.701C34.1089 142.971 33.9205 143.315 33.844 143.69C33.7675 144.065 33.8062 144.453 33.9553 144.807C34.1043 145.16 34.357 145.462 34.6813 145.674C35.0056 145.887 35.387 146 35.7772 146C36.2991 146 36.7996 145.797 37.1692 145.436C37.5388 145.075 37.7471 144.586 37.7486 144.074V144.074Z" fill="#060000"/>
<path d="M54.6515 144.074C54.6515 143.693 54.5362 143.321 54.3202 143.004C54.1042 142.688 53.7972 142.441 53.438 142.295C53.0788 142.149 52.6835 142.111 52.3022 142.186C51.9208 142.26 51.5706 142.443 51.2956 142.713C51.0207 142.982 50.8335 143.325 50.7576 143.699C50.6818 144.072 50.7207 144.459 50.8695 144.811C51.0183 145.163 51.2702 145.464 51.5935 145.675C51.9168 145.887 52.2969 146 52.6857 146C53.2071 146 53.7071 145.797 54.0758 145.436C54.4444 145.075 54.6515 144.585 54.6515 144.074Z" fill="#060000"/>
<path d="M3.92045 128.367C3.92045 127.986 3.80516 127.613 3.58915 127.297C3.37314 126.98 3.06612 126.733 2.70691 126.587C2.3477 126.442 1.95243 126.404 1.5711 126.478C1.18976 126.552 0.83948 126.736 0.564552 127.005C0.289624 127.274 0.102396 127.617 0.0265435 127.991C-0.0493089 128.364 -0.0103787 128.752 0.138411 129.104C0.287201 129.455 0.539168 129.756 0.862449 129.968C1.18573 130.179 1.56581 130.292 1.95461 130.292C2.47599 130.292 2.97601 130.089 3.34467 129.728C3.71334 129.367 3.92045 128.877 3.92045 128.367Z" fill="#060000"/>
<path d="M20.8401 128.367C20.8401 127.986 20.7248 127.613 20.5088 127.297C20.2928 126.98 19.9858 126.733 19.6266 126.587C19.2674 126.442 18.8721 126.404 18.4908 126.478C18.1094 126.552 17.7592 126.736 17.4842 127.005C17.2093 127.274 17.0221 127.617 16.9462 127.991C16.8704 128.364 16.9093 128.752 17.0581 129.104C17.2069 129.455 17.4588 129.756 17.7821 129.968C18.1054 130.179 18.4855 130.292 18.8743 130.292C19.3957 130.292 19.8957 130.089 20.2644 129.728C20.633 129.367 20.8401 128.877 20.8401 128.367Z" fill="#060000"/>
<path d="M37.7486 128.367C37.7497 127.984 37.635 127.611 37.4191 127.292C37.2031 126.974 36.8956 126.726 36.5355 126.578C36.1754 126.431 35.7788 126.392 35.396 126.466C35.0132 126.54 34.6614 126.724 34.3851 126.994C34.1089 127.263 33.9205 127.608 33.844 127.982C33.7675 128.357 33.8062 128.746 33.9553 129.099C34.1043 129.452 34.357 129.754 34.6813 129.967C35.0056 130.179 35.387 130.292 35.7772 130.292C36.2991 130.292 36.7996 130.09 37.1692 129.729C37.5388 129.368 37.7471 128.878 37.7486 128.367V128.367Z" fill="#060000"/>
<path d="M54.6515 128.367C54.6515 127.986 54.5362 127.613 54.3202 127.297C54.1042 126.98 53.7972 126.733 53.438 126.587C53.0788 126.442 52.6835 126.404 52.3022 126.478C51.9208 126.552 51.5706 126.736 51.2956 127.005C51.0207 127.274 50.8335 127.617 50.7576 127.991C50.6818 128.364 50.7207 128.752 50.8695 129.104C51.0183 129.455 51.2702 129.756 51.5935 129.968C51.9168 130.179 52.2969 130.292 52.6857 130.292C53.2071 130.292 53.7071 130.089 54.0758 129.728C54.4444 129.367 54.6515 128.877 54.6515 128.367Z" fill="#060000"/>
<path d="M3.92045 112.659C3.91934 112.278 3.8031 111.906 3.58642 111.59C3.36974 111.275 3.06233 111.029 2.70303 110.884C2.34372 110.739 1.94863 110.701 1.56767 110.776C1.1867 110.851 0.836944 111.035 0.562576 111.305C0.288208 111.574 0.101535 111.917 0.0261359 112.291C-0.0492638 112.664 -0.0100079 113.051 0.138945 113.403C0.287898 113.754 0.539867 114.055 0.863025 114.266C1.18618 114.477 1.56604 114.59 1.9546 114.59C2.21323 114.59 2.46932 114.54 2.7082 114.443C2.94707 114.346 3.16403 114.204 3.34665 114.024C3.52927 113.845 3.67395 113.632 3.77242 113.397C3.87088 113.163 3.92118 112.912 3.92045 112.659Z" fill="#060000"/>
<path d="M20.8401 112.659C20.839 112.278 20.7228 111.906 20.5061 111.59C20.2894 111.275 19.982 111.029 19.6227 110.884C19.2634 110.739 18.8683 110.701 18.4873 110.776C18.1064 110.851 17.7566 111.035 17.4823 111.305C17.2079 111.574 17.0212 111.917 16.9458 112.291C16.8704 112.664 16.9097 113.051 17.0586 113.403C17.2076 113.754 17.4595 114.055 17.7827 114.266C18.1059 114.477 18.4857 114.59 18.8743 114.59C19.1329 114.59 19.389 114.54 19.6279 114.443C19.8667 114.346 20.0837 114.204 20.2663 114.024C20.4489 113.845 20.5936 113.632 20.6921 113.397C20.7906 113.163 20.8409 112.912 20.8401 112.659Z" fill="#060000"/>
<path d="M37.7486 112.659C37.7486 112.277 37.633 111.904 37.4164 111.586C37.1997 111.268 36.8918 111.021 36.5316 110.875C36.1714 110.728 35.775 110.69 35.3926 110.765C35.0101 110.839 34.6589 111.023 34.3831 111.293C34.1074 111.563 33.9197 111.907 33.8436 112.282C33.7675 112.657 33.8066 113.045 33.9558 113.398C34.105 113.751 34.3577 114.052 34.6819 114.265C35.0061 114.477 35.3873 114.59 35.7772 114.59C36.3 114.59 36.8015 114.387 37.1712 114.024C37.5409 113.662 37.7486 113.171 37.7486 112.659V112.659Z" fill="#060000"/>
<path d="M54.6515 112.659C54.6504 112.278 54.5342 111.906 54.3175 111.59C54.1008 111.275 53.7934 111.029 53.4341 110.884C53.0748 110.739 52.6797 110.701 52.2987 110.776C51.9178 110.851 51.568 111.035 51.2937 111.305C51.0193 111.574 50.8326 111.917 50.7572 112.291C50.6818 112.664 50.7211 113.051 50.87 113.403C51.019 113.754 51.2709 114.055 51.5941 114.266C51.9173 114.477 52.2971 114.59 52.6857 114.59C52.9443 114.59 53.2004 114.54 53.4393 114.443C53.6781 114.346 53.8951 114.204 54.0777 114.024C54.2603 113.845 54.405 113.632 54.5035 113.397C54.6019 113.163 54.6523 112.912 54.6515 112.659V112.659Z" fill="#060000"/>
<path d="M3.92045 96.9567C3.92045 96.5758 3.80516 96.2035 3.58915 95.8868C3.37314 95.5701 3.06612 95.3233 2.70691 95.1776C2.3477 95.0318 1.95243 94.9937 1.5711 95.068C1.18976 95.1423 0.83948 95.3257 0.564552 95.595C0.289624 95.8643 0.102396 96.2075 0.0265435 96.581C-0.0493089 96.9546 -0.0103787 97.3418 0.138411 97.6937C0.287201 98.0455 0.539168 98.3463 0.862449 98.5579C1.18573 98.7695 1.56581 98.8824 1.95461 98.8824C2.47599 98.8824 2.97601 98.6796 3.34467 98.3184C3.71334 97.9573 3.92045 97.4674 3.92045 96.9567Z" fill="#060000"/>
<path d="M20.8401 96.9567C20.8401 96.5758 20.7248 96.2035 20.5088 95.8868C20.2928 95.5701 19.9858 95.3233 19.6266 95.1776C19.2674 95.0318 18.8721 94.9937 18.4908 95.068C18.1094 95.1423 17.7592 95.3257 17.4842 95.595C17.2093 95.8643 17.0221 96.2075 16.9462 96.581C16.8704 96.9546 16.9093 97.3418 17.0581 97.6937C17.2069 98.0455 17.4588 98.3463 17.7821 98.5579C18.1054 98.7695 18.4855 98.8824 18.8743 98.8824C19.3957 98.8824 19.8957 98.6796 20.2644 98.3184C20.633 97.9573 20.8401 97.4674 20.8401 96.9567Z" fill="#060000"/>
<path d="M37.7486 96.9567C37.7497 96.5745 37.635 96.2006 37.4191 95.8823C37.2031 95.564 36.8956 95.3156 36.5355 95.1686C36.1754 95.0216 35.7788 94.9825 35.396 95.0564C35.0132 95.1303 34.6614 95.3138 34.3851 95.5837C34.1089 95.8536 33.9205 96.1977 33.844 96.5724C33.7675 96.9472 33.8062 97.3358 33.9553 97.689C34.1043 98.0422 34.357 98.3441 34.6813 98.5566C35.0056 98.769 35.387 98.8824 35.7772 98.8824C36.2991 98.8824 36.7996 98.6797 37.1692 98.3187C37.5388 97.9578 37.7471 97.4679 37.7486 96.9567V96.9567Z" fill="#060000"/>
<path d="M54.6515 96.9567C54.6515 96.5758 54.5362 96.2035 54.3202 95.8868C54.1042 95.5701 53.7972 95.3233 53.438 95.1776C53.0788 95.0318 52.6835 94.9937 52.3022 95.068C51.9208 95.1423 51.5706 95.3257 51.2956 95.595C51.0207 95.8643 50.8335 96.2075 50.7576 96.581C50.6818 96.9546 50.7207 97.3418 50.8695 97.6937C51.0183 98.0455 51.2702 98.3463 51.5935 98.5579C51.9168 98.7695 52.2969 98.8824 52.6857 98.8824C53.2071 98.8824 53.7071 98.6796 54.0758 98.3184C54.4444 97.9573 54.6515 97.4674 54.6515 96.9567Z" fill="#060000"/>
<g style="mix-blend-mode:multiply">
<path d="M82.0233 11.5578C93.9982 23.2884 93.9982 42.3075 82.0233 54.0382C70.0483 65.7688 50.6331 65.7688 38.6581 54.0382C26.6832 42.3075 26.6832 23.2884 38.6582 11.5578C50.6331 -0.172899 70.0483 -0.172901 82.0233 11.5578Z" fill="#F24E3D"/>
</g>
</g>
<defs>
<clipPath id="clip0">
<rect width="91" height="146" fill="white" transform="matrix(1 0 0 -1 0 146)"/>
</clipPath>
</defs>
</svg>
