<svg width="106" height="57" viewBox="0 0 106 57" fill="none" xmlns="http://www.w3.org/2000/svg">
<path d="M104.938 28.4957C104.94 33.9242 103.327 39.2312 100.305 43.7455C97.2831 48.2599 92.9867 51.7789 87.9594 53.8574C82.9322 55.936 77.3999 56.4807 72.0623 55.4227C66.7247 54.3647 61.8215 51.7515 57.9728 47.9136C54.1242 44.0757 51.503 39.1855 50.4407 33.8615C49.3784 28.5375 49.9227 23.0189 52.0049 18.0035C54.0871 12.9881 57.6135 8.70136 62.1382 5.68531C66.6629 2.66927 71.9827 1.05945 77.4247 1.05945" stroke="#F24E3D" stroke-width="2.5" stroke-miterlimit="10"/>
<path d="M0.450378 44.2184L13.3743 31.3267" stroke="white" stroke-width="1.5" stroke-miterlimit="10"/>
<path d="M11.7174 44.2184L24.6413 31.3267" stroke="white" stroke-width="1.5" stroke-miterlimit="10"/>
<path d="M22.9844 44.2184L35.9084 31.3267" stroke="white" stroke-width="1.5" stroke-miterlimit="10"/>
<path d="M34.2515 44.2184L47.1839 31.3267" stroke="white" stroke-width="1.5" stroke-miterlimit="10"/>
<path d="M45.5184 44.2184L58.4509 31.3267" stroke="white" stroke-width="1.5" stroke-miterlimit="10"/>
<path d="M56.7939 44.2184L69.7179 31.3267" stroke="white" stroke-width="1.5" stroke-miterlimit="10"/>
<path d="M68.061 44.2184L80.9849 31.3267" stroke="white" stroke-width="1.5" stroke-miterlimit="10"/>
</svg>
