<svg width="146" height="149" viewBox="0 0 146 149" fill="none" xmlns="http://www.w3.org/2000/svg">
<g clip-path="url(#clip0)">
<path d="M148.081 -28.5768V-0.298961L168.395 -0.298965L168.395 26.7796L148.081 26.7023V54.9801L129.952 54.9801L129.952 26.7023L109.556 26.741V-0.337645H129.979L129.952 -28.5768L148.081 -28.5768Z" fill="#F24E3D"/>
</g>
<g clip-path="url(#clip1)">
<path d="M137.65 112.2C193.734 112.2 239.2 66.7344 239.2 10.6498C239.2 -45.4347 193.734 -90.9001 137.65 -90.9001C81.5655 -90.9001 36.1 -45.4347 36.1 10.6498C36.1 66.7344 81.5655 112.2 137.65 112.2Z" stroke="white" stroke-width="2" stroke-miterlimit="10"/>
<path d="M189.706 136.989C259.486 108.242 292.75 28.3699 264.003 -41.4104C235.256 -111.191 155.384 -144.455 85.6038 -115.707C15.8235 -86.9604 -17.4404 -7.08819 11.3067 62.692C40.0538 132.472 119.926 165.736 189.706 136.989Z" stroke="white" stroke-width="2" stroke-miterlimit="10"/>
<path d="M137.65 129.75C114.094 129.75 91.0675 122.765 71.4816 109.678C51.8957 96.591 36.6303 77.9901 27.6159 56.2275C18.6015 34.4648 16.243 10.5177 20.8385 -12.5854C25.434 -35.6885 36.7771 -56.9101 53.4336 -73.5666C70.09 -90.223 91.3116 -101.566 114.415 -106.162C137.518 -110.757 161.465 -108.399 183.228 -99.3842C204.99 -90.3698 223.591 -75.1045 236.678 -55.5186C249.765 -35.9327 256.75 -12.9059 256.75 10.6498C256.713 42.2258 244.153 72.4978 221.825 94.8254C199.498 117.153 169.226 129.713 137.65 129.75Z" stroke="white" stroke-width="2" stroke-miterlimit="10"/>
<path d="M137.65 112.2C193.734 112.2 239.2 66.7344 239.2 10.6498C239.2 -45.4347 193.734 -90.9001 137.65 -90.9001C81.5655 -90.9001 36.1 -45.4347 36.1 10.6498C36.1 66.7344 81.5655 112.2 137.65 112.2Z" stroke="white" stroke-width="2" stroke-miterlimit="10"/>
<path d="M137.65 93.3699C183.335 93.3699 220.37 56.3349 220.37 10.6499C220.37 -35.0351 183.335 -72.0701 137.65 -72.0701C91.965 -72.0701 54.93 -35.0351 54.93 10.6499C54.93 56.3349 91.965 93.3699 137.65 93.3699Z" stroke="white" stroke-width="2" stroke-miterlimit="10"/>
<path d="M137.65 76.1099C173.802 76.1099 203.11 46.8025 203.11 10.6499C203.11 -25.5026 173.802 -54.8101 137.65 -54.8101C101.497 -54.8101 72.1899 -25.5026 72.1899 10.6499C72.1899 46.8025 101.497 76.1099 137.65 76.1099Z" stroke="white" stroke-width="2" stroke-miterlimit="10"/>
</g>
<defs>
<clipPath id="clip0">
<rect width="67.5667" height="67.5667" fill="white" transform="matrix(0.576644 -0.816995 0.576644 0.816995 100 14.114)"/>
</clipPath>
<clipPath id="clip1">
<rect width="275.3" height="275.3" fill="white" transform="translate(0 -127)"/>
</clipPath>
</defs>
</svg>
